<svg xmlns="http://www.w3.org/2000/svg" width="351.61" height="447.839" viewBox="0 0 351.61 447.839">
  <g id="Group_251" data-name="Group 251" transform="translate(-1137.71 -806.902)">
    <path id="Path_4609" data-name="Path 4609" d="M6618.168,820.641s3.205,8.906,22.327,11.031c-10.95,4.01-23.407-3.165-23.407-3.165l-8.066-6.892Z" transform="translate(-5295.003 122.926)" fill="#42403f"/>
    <path id="Path_4614" data-name="Path 4614" d="M6260.016,733.056s-15.7,2.835-25.908,6.236S6207.462,752.331,6196.69,758a75.355,75.355,0,0,0-18.141,13.606s18.141,13.039,22.676,30.614,2.269,20.976,2.269,20.976l27.211-11.339s26.646,50.456,30.048,102.613,3.4,47.054,1.7,62.928a81.007,81.007,0,0,1-7.37,26.646s44.22,14.74,77.668,10.771,42.519-7.937,42.519-7.937l13.606-11.905s7.37-10.772,12.472-14.173a27.579,27.579,0,0,1,11.338-3.969l3.969-18.142V934.88l-3.969-41.952-13.606-67.464,43.653-19.842s-3.4-26.078-22.11-48.188-35.716-28.346-49.89-32.315-33.448-8.5-33.448-8.5-4.536,28.346-22.11,36.283-32.882-9.638-32.882-9.638l-7.37.567-5.1-2.835-5.1-2.835Z" transform="translate(-4968.226 201.894)" fill="#f2f2f2"/>
    <path id="Path_4836" data-name="Path 4836" d="M6472.406,458.485c-2.408,14.57-2.836,29.447-.1,44,.344,1.826,3.13,1.053,2.788-.768-2.633-14.012-2.218-28.444.1-42.468.3-1.82-2.484-2.6-2.787-.768" transform="translate(-5189.791 398.638)" fill="#42403f"/>
    <path id="Path_4837" data-name="Path 4837" d="M6550.36,514.469c.037.035-.332-.48-.239-.38.139.147,0,.008,0-.034-.01.327.015.655,0,.983-.041.831-.142,1.661-.254,2.485-.33,2.432-.77,4.849-1.2,7.265-.377,2.111-.78,4.22-1.095,6.342-.229,1.541-.717,3.338,1.2,3.941,3.43,1.08,7.234-.529,10.707-.581a1.446,1.446,0,0,0,0-2.891c-3.073.046-6.2,1.243-9.273.834-.194-.026-.615-.237-.777-.185.5-.162.83.98.793,1.089a3.147,3.147,0,0,0,.032-.6c.052-.588.153-1.167.292-2.01.75-4.536,1.7-9.044,2.267-13.608.16-1.289.708-3.661-.407-4.692-1.364-1.262-3.413.778-2.043,2.044" transform="translate(-5248.184 357.2)" fill="#42403f"/>
    <path id="Path_4838" data-name="Path 4838" d="M6527.68,505.041c.063,1.5-.133,3-.15,4.5a1.446,1.446,0,0,0,2.891,0c.018-1.5.214-2.995.15-4.5-.079-1.853-2.971-1.863-2.891,0" transform="translate(-5233.143 363.561)" fill="#42403f"/>
    <path id="Path_4839" data-name="Path 4839" d="M6636.753,501.927c.073,2.008-.272,3.992-.3,6a1.446,1.446,0,0,0,2.891,0c.027-2.005.374-3.989.3-6-.066-1.855-2.958-1.863-2.891,0" transform="translate(-5315.828 365.926)" fill="#42403f"/>
    <path id="Path_4840" data-name="Path 4840" d="M6497.841,468.393a10.769,10.769,0,0,1,8.8-4.382,1.446,1.446,0,0,0,0-2.891,13.852,13.852,0,0,0-11.293,5.813c-1.121,1.485,1.389,2.927,2.5,1.459" transform="translate(-5208.497 395.843)" fill="#42403f"/>
    <path id="Path_4841" data-name="Path 4841" d="M6604.188,460.739c4.662-.889,9.633-.455,13.436,2.627,1.434,1.161,3.491-.872,2.045-2.044-4.681-3.793-10.466-4.473-16.249-3.37-1.826.348-1.053,3.135.769,2.787" transform="translate(-5289.959 398.613)" fill="#42403f"/>
    <path id="Path_4842" data-name="Path 4842" d="M6550.437,646.238c8.187.98,16.913-.8,22.461-7.32,1.2-1.409-.836-3.464-2.044-2.044-5.1,6-12.923,7.37-20.417,6.473-1.844-.221-1.827,2.672,0,2.891" transform="translate(-5249.487 262.79)" fill="#42403f"/>
    <path id="Path_4843" data-name="Path 4843" d="M6476.619,663.81a14.911,14.911,0,0,0-2.82,5.7,4.749,4.749,0,0,0,1.262,4.865c1.232,1.323.81,2.909.6,4.547a5.625,5.625,0,0,0,1.932,5.235c1.387,1.232,3.438-.805,2.044-2.044-1.364-1.211-1.192-2.33-.962-3.98a6.82,6.82,0,0,0-.686-4.725c-.348-.538-.837-.938-1.226-1.435-.473-.6-.313-1.149-.139-1.879a13.131,13.131,0,0,1,2.488-4.82c1.122-1.483-1.387-2.925-2.5-1.459" transform="translate(-5192.209 242.444)" fill="#42403f"/>
    <path id="Path_4844" data-name="Path 4844" d="M6504.22,761.171c2.471,1.618,3.109,4.894,4.591,7.275a6.841,6.841,0,0,0,3.26,3.04c1.308.474,2.665.325,3.5,1.565.927,1.37,1.7,2.343,3.445,2.489,1.879.158,3.842-.6,5.679-.032,1.645.51,3.118,1.507,4.924,1.1,1.445-.325,2.222-1.714,3.689-1.931,3.009-.446,6.225-.1,9.158-1,1.772-.548,1.016-3.339-.769-2.787-2.467.763-5.234.573-7.783.831a6.57,6.57,0,0,0-3.536,1.071c-.593.445-1.078,1.086-1.882,1.017a8.866,8.866,0,0,1-2.355-.835A10.563,10.563,0,0,0,6521,772.6a12.758,12.758,0,0,1-1.392.082c-.148,0-.814-.066-.716-.012-.513-.279-.884-1.194-1.218-1.648a5.515,5.515,0,0,0-3.617-2,4.208,4.208,0,0,1-2.981-2.427c-1.64-2.854-2.49-6.017-5.394-7.919-1.561-1.022-3.011,1.48-1.459,2.5" transform="translate(-5214.942 170.149)" fill="#42403f"/>
    <path id="Path_4845" data-name="Path 4845" d="M6674.593,726.888c.779-.866,2.625-.31,3.694-.7a6.054,6.054,0,0,0,3.161-3.474c.5-1.258.5-2.916,1.378-4,.827-1.026,2.517-1.224,3.617-1.866,1.536-.895,2.109-2.27,2.861-3.791q1.528-3.094,2.945-6.242c.694-1.538,1.842-3.367,1.956-5.09.124-1.857-2.769-1.85-2.891,0,.035-.522,0-.108-.084.131-.111.3-.223.6-.343.893-.324.8-.682,1.6-1.037,2.388q-1.356,3.015-2.81,5.985c-.354.724-.708,1.448-1.087,2.16-.1.2-.217.391-.325.586-.16.291.34-.262.01-.013a6.239,6.239,0,0,1-.787.572c-1.223.666-2.617.941-3.694,1.873a7.058,7.058,0,0,0-1.941,3.74c-.316,1.254-.762,3.3-2.312,3.512-1.644.227-3.111-.095-4.354,1.29s.8,3.431,2.043,2.044" transform="translate(-5342.938 214.251)" fill="#42403f"/>
    <path id="Path_4846" data-name="Path 4846" d="M6509.693,621.554c-1.772-.867-3.857-1.6-5.749-.643a5.751,5.751,0,0,0-1.565,1.246c-.173.185-.338.378-.511.563-.229.244-.219.269-.4.334.108-.039-.43-.014-.677-.023a10.11,10.11,0,0,0-1.607,0,3.02,3.02,0,0,0-2.572,1.806,2.927,2.927,0,0,0-.125,1.6c.163.586.173-.236.212-.183.007.011-.722.453-.768.482a5.114,5.114,0,0,0-2.16,2.378c-.74,1.687,1.75,3.16,2.5,1.459.732-1.669,3.051-1.822,3.116-3.872.009-.277.015-.85-.118-.746.25-.2.8-.075,1.083-.063a4.915,4.915,0,0,0,2.4-.265,9.439,9.439,0,0,0,2.063-1.83c.92-.817,2.264-.318,3.421.249,1.665.815,3.131-1.677,1.459-2.5" transform="translate(-5207.413 274.885)" fill="#42403f"/>
    <path id="Path_4847" data-name="Path 4847" d="M6577.821,586.059c.642-.541.982-.367,1.715-.115a5.592,5.592,0,0,0,2.43.351,9.492,9.492,0,0,0,2.7-.768c.752-.312,1.99-1.154,2.826-1.116.6.027,1.128.748,1.664,1.059a4.809,4.809,0,0,0,2.431.582c1.725-.007,3.331-.768,5.035-.861.9-.049.93.294,1.461.938a3.9,3.9,0,0,0,2.417,1.4c.952.162,1.979-.141,2.905.1-.383-.1-.2-.047.052.271a2.929,2.929,0,0,0,.968.857c1.386.709,3.554.024,4.646-.974,1.532-1.4,1.1-3.009,1.118-4.823.008-.9.764-1.219,1.436-1.709a5.854,5.854,0,0,0,1.943-2.039c.84-1.7-.283-3.494.615-5.14s-1.6-3.094-2.5-1.459c-.876,1.6-.717,2.881-.625,4.612.081,1.523-2.121,2.2-2.974,3.243a3.535,3.535,0,0,0-.8,2.2,14.327,14.327,0,0,1,.143,2.3,1.56,1.56,0,0,1-1.584,1.168c-.308-.018.032.128-.215-.136a4.03,4.03,0,0,0-.905-.924,4.766,4.766,0,0,0-2.5-.377c-1.12.033-1.611-.009-2.3-.906-1.115-1.456-2.581-1.642-4.316-1.379-1.414.214-3.37,1.164-4.784.654-.633-.228-1.094-.843-1.682-1.165a3.22,3.22,0,0,0-2.594-.23c-1.771.509-3.824,2.171-5.725,1.657a8.58,8.58,0,0,0-2.275-.563,4.311,4.311,0,0,0-2.771,1.248c-1.423,1.2.631,3.236,2.045,2.044" transform="translate(-5269.402 311.751)" fill="#42403f"/>
    <path id="Path_4848" data-name="Path 4848" d="M6589.892,347.29a7.62,7.62,0,0,0,4.091,4.937,19.238,19.238,0,0,0,6.246,1.431c1.845.23,3.97.506,5.347,1.885,1.17,1.172.932,3.245,1.03,4.766.108,1.665.285,3.677,1.771,4.727,1.463,1.033,3.431,1.262,5.051,1.979a4.657,4.657,0,0,1,2.009,1.442c.685.977.563,2.307.54,3.436a10.615,10.615,0,0,0,.347,3.592,8.915,8.915,0,0,0,1.924,3.051c1.413,1.589,3.248,2.873,4.39,4.689,1.426,2.266.348,4.509-.048,6.914-.428,2.6.365,4.575,1.808,6.692a6.892,6.892,0,0,1,1.327,2.635c.225,1.367-.267,2.768-.146,4.146.2,2.266,1.647,3.476,3.354,4.747a3.872,3.872,0,0,1,1.726,2.359,12.573,12.573,0,0,1-.146,3.917,6.858,6.858,0,0,0,1.963,5.884c1.021,1.1,2.894,2.394,3.32,3.717.561,1.743.2,3.855.395,5.664a7.113,7.113,0,0,0,.674,2.686,9.85,9.85,0,0,0,2.581,2.372c1.1.927,2.179,2.185,3.568,2.68,1.521.541,3.368.3,4.945.3a1.446,1.446,0,0,0,0-2.891c-.919,0-1.839.021-2.759,0a2.808,2.808,0,0,1-1.3-.157,2.126,2.126,0,0,1-.259-.155,3.458,3.458,0,0,1-.419-.326c-.624-.526-1.224-1.077-1.85-1.6a10.614,10.614,0,0,1-2.008-1.685,5.268,5.268,0,0,1-.348-2.041,40.236,40.236,0,0,0-.344-5.226c-.337-1.683-1.622-2.867-2.8-4.026a18.165,18.165,0,0,1-1.99-2.1,4.05,4.05,0,0,1-.494-2.907c.216-2.482.635-5.009-.991-7.15-1-1.322-3.177-2.025-3.794-3.589-.416-1.054-.034-2.349.033-3.437a7.1,7.1,0,0,0-.7-3.575c-.939-1.955-2.775-3.448-2.594-5.793.2-2.535,1.447-4.848.732-7.434a12.18,12.18,0,0,0-3.655-5.232c-1.516-1.47-3.4-2.929-3.546-5.192-.146-2.284.339-4.658-1.1-6.654a9.218,9.218,0,0,0-4.761-2.988c-.846-.292-1.729-.519-2.548-.887-.615-.277-.694-.594-.825-1.268-.371-1.906-.078-3.9-.628-5.787a6.783,6.783,0,0,0-4.5-4.228c-3.786-1.357-10.5-.08-11.828-5.09a1.446,1.446,0,0,0-2.787.768" transform="translate(-5280.44 483.616)" fill="#42403f"/>
    <path id="Path_4849" data-name="Path 4849" d="M6510.194,307.429a23.272,23.272,0,0,1-2.83,6.057,2.951,2.951,0,0,1-1.865,1.376c-.184.043.161.007-.247.028-.175.009-.349.014-.522.018-.421.008-.843-.006-1.264.024a6.968,6.968,0,0,0-3.1.928c-2.095,1.233-2.8,2.977-3.661,5.107-.881,2.175-2.857,2.764-4.768,3.8a5.911,5.911,0,0,0-3.51,5.246,4.037,4.037,0,0,1-.763,2.842,7.311,7.311,0,0,1-1.6,1.476,14.6,14.6,0,0,0-3.106,2.028c-1.479,1.626-1.773,4-2.049,6.082-.1.78.738,1.438,1.445,1.445a1.48,1.48,0,0,0,1.445-1.445c.186-1.408.416-3.476,1.537-4.367.533-.423,1.768-.939,2.51-1.468a7.547,7.547,0,0,0,3.362-4.68c.14-.951-.113-2.131.272-3.023.435-1,1.736-1.565,2.651-2.015,1.974-.971,3.827-1.956,4.864-4.006.923-1.823,1.08-3.59,3.049-4.656a3.536,3.536,0,0,1,1.105-.373c.023-.005.6-.052.988-.058a8.647,8.647,0,0,0,2.589-.275c3.635-1.185,5.122-6.17,6.255-9.329.629-1.754-2.163-2.51-2.787-.768" transform="translate(-5197.745 513.263)" fill="#42403f"/>
    <path id="Path_4850" data-name="Path 4850" d="M6451.243,254.978c-11.127-4.618-24.345.919-32.73,8.532a22.1,22.1,0,0,0-5.551,6.842,34.417,34.417,0,0,1-1.962,4.461,9.016,9.016,0,0,1-2.864,2.6c-2.179,1.426-4.658,2.71-6.1,4.97-1.918,3.012-.707,6.318-.318,9.546.707,5.865-6.072,8.362-7.458,13.572a6.223,6.223,0,0,0,.316,4.009c.488,1.209,1.366,2.416,1.531,3.729.294,2.34-2.425,4.341-3.828,5.841-1.726,1.843-3.523,4.3-2.917,6.981a6.325,6.325,0,0,0,1.851,2.971c.657.659,1.757,1.359,2.088,2.268.351.964-.859,1.974-1.417,2.634a5.907,5.907,0,0,0-1.786,3.374c-.086,2.516,2.486,2.933,4.083,4.091.7.506.191,1.37-.119,2.076a6.513,6.513,0,0,0-.908,3.35c.19,1.545,1.677,2.392,2.816,3.24,3.4,2.532,6.937,4.888,10.455,7.251q.784.526,1.57,1.051c1.552,1.035,3-1.468,1.46-2.5-3.114-2.076-6.215-4.172-9.276-6.325a46.387,46.387,0,0,1-3.913-2.889,1.684,1.684,0,0,1-.4-.372c.215.422.118.035.211-.174a15.548,15.548,0,0,0,1.269-3.384c.475-2.608-1.354-3.632-3.339-4.672a3.791,3.791,0,0,1-.968-.6c-.182-.185-.064-.237-.057.052a.74.74,0,0,1,.107-.377c.744-1.1,1.719-2.033,2.433-3.155,1.413-2.222.5-4.313-1.224-5.989a8.357,8.357,0,0,1-2-2.206c-.461-1,.1-2.135.651-2.984,1.355-2.095,3.5-3.551,4.876-5.646,1.6-2.445,1.27-4.815.056-7.33a5.849,5.849,0,0,1-.947-3.06,6.868,6.868,0,0,1,1.553-3.174c1.581-2.062,3.626-3.753,4.958-6.01,1.619-2.745,1.24-5.573.672-8.572a7.873,7.873,0,0,1,.066-4.543,6.457,6.457,0,0,1,2.233-2.478c2.033-1.5,4.492-2.56,6.175-4.5,2.059-2.371,2.383-5.656,4.331-8.1,7.412-9.288,21.816-16.489,33.544-11.621,1.716.713,2.465-2.083.769-2.787" transform="translate(-5128.168 553.609)" fill="#42403f"/>
    <path id="Path_4851" data-name="Path 4851" d="M6652.183,259.7a29.558,29.558,0,0,1,22.7,3.346,37.78,37.78,0,0,1,9.2,7.522,35.6,35.6,0,0,1,6.544,10.866,32.924,32.924,0,0,0,2.9,6.09,17.514,17.514,0,0,0,4.035,4.152c1.519,1.171,3.158,2.195,4.594,3.47a7.866,7.866,0,0,1,1.832,2c.5.957.228,2.139.3,3.173a5.419,5.419,0,0,0,2.808,4.322c1.189.76,3.133,1.39,3.4,2.984.288,1.733-.855,3.5-.761,5.264.1,1.815,1.439,3.252,2.666,4.466,1.315,1.3,3.491,2.954,3.218,5.035-.255,1.945-1.512,3.727-.857,5.748.494,1.527,1.682,2.575,2.613,3.814.9,1.192.637,2.884.446,4.314-.1.78.739,1.438,1.446,1.445a1.482,1.482,0,0,0,1.445-1.445,8.79,8.79,0,0,0-.434-5.091,21.085,21.085,0,0,0-2.067-2.709,2.844,2.844,0,0,1-.741-1.837,18.166,18.166,0,0,1,.8-2.861,6.334,6.334,0,0,0-1.2-5.636c-1.121-1.514-2.682-2.617-3.818-4.107-1.187-1.554-.207-3.208.044-4.95a5.321,5.321,0,0,0-1.8-5.054c-1.182-1-3.357-1.549-4.109-2.952-.448-.836-.179-1.988-.239-2.9a5.519,5.519,0,0,0-1.108-3.1,19.84,19.84,0,0,0-4.257-3.863,31.8,31.8,0,0,1-4.66-3.758,18.867,18.867,0,0,1-3.4-6.01,49.815,49.815,0,0,0-2.94-6.586,39.257,39.257,0,0,0-3.607-5.107,40.483,40.483,0,0,0-9.169-8.168c-7.831-5.092-17.493-7.19-26.593-4.661a1.447,1.447,0,0,0,.769,2.787" transform="translate(-5326.412 551.678)" fill="#42403f"/>
    <path id="Path_4852" data-name="Path 4852" d="M6848.82,606.015c-.243,1.138-1.312,1.826-2.137,2.558a5.853,5.853,0,0,0-2.1,3.188c-.654,3.311.908,6.768-.439,9.976-1.807,4.3-7.339,5.357-11.266,6.748a23.744,23.744,0,0,0-7.528,3.957c-1.428,1.2.627,3.232,2.043,2.044,3.878-3.249,9.266-3.825,13.706-6.008a11.677,11.677,0,0,0,5.242-4.675c1.665-3.048,1.1-6.12.969-9.425a5.12,5.12,0,0,1,.277-2.538,5.583,5.583,0,0,1,1.354-1.412,6.978,6.978,0,0,0,2.663-3.645c.387-1.814-2.4-2.59-2.787-.768" transform="translate(-5458.858 286.641)" fill="#42403f"/>
    <path id="Path_4853" data-name="Path 4853" d="M6756.773,666.859c-.061,2.232-.893,4.11-.4,6.382.4,1.816,3.183,1.048,2.787-.768-.41-1.883.45-3.722.5-5.613.049-1.861-2.842-1.859-2.892,0" transform="translate(-5406.744 240.725)" fill="#42403f"/>
    <path id="Path_4854" data-name="Path 4854" d="M6608,769.982c7.328,5.987,16.362,11,26.092,10.839,8.785-.144,16.242-4.942,21.22-12a52,52,0,0,0,7.455-17.294c.458-1.8-2.329-2.573-2.787-.768-2.268,8.945-6.348,18.536-14.427,23.714-6.62,4.243-14.566,4.2-21.791,1.581a47.784,47.784,0,0,1-13.718-8.12c-1.429-1.168-3.486.866-2.044,2.044" transform="translate(-5293.856 176.753)" fill="#42403f"/>
    <path id="Path_4855" data-name="Path 4855" d="M6048.684,841.135c13.878-8.525,26.929-18.309,40.293-27.6,13.189-9.167,26.757-18.108,41.562-24.474a94.913,94.913,0,0,1,24.27-7.018c1.834-.256,1.054-3.042-.768-2.787-15.293,2.135-29.608,8.734-42.841,16.443-14.33,8.348-27.713,18.195-41.254,27.736-7.449,5.249-14.953,10.431-22.72,15.2-1.583.972-.132,3.473,1.459,2.5" transform="translate(-4868.017 154.354)" fill="#42403f"/>
    <path id="Path_4856" data-name="Path 4856" d="M6186.374,950.565c4.965,3.04,8.773,8.15,11.868,12.97a67,67,0,0,1,9.161,21.5,45.038,45.038,0,0,1,1.015,13.406c-.149,1.854,2.743,1.844,2.891,0,.671-8.316-1.211-16.717-4.359-24.384a70.031,70.031,0,0,0-11.993-19.7,32.034,32.034,0,0,0-7.124-6.284c-1.59-.974-3.044,1.525-1.458,2.5" transform="translate(-4973.647 26.362)" fill="#42403f"/>
    <path id="Path_4857" data-name="Path 4857" d="M6374.117,1077.292a232.381,232.381,0,0,1,18.766,43.289,362.441,362.441,0,0,1,12.062,48.426,407.411,407.411,0,0,1,5.763,47.827c.495,8.225-.229,16.609-1.087,24.8a152.637,152.637,0,0,1-2.606,16.652c-.745,3.411-1.66,6.775-2.68,10.113a37.346,37.346,0,0,0-1.544,5.877,9.372,9.372,0,0,0-.1,1.2,1.446,1.446,0,0,0,2.891,0c0-.164.009-.327.018-.49.019-.342.056-.475.022-.273.066-.4.14-.789.233-1.179.232-.992.533-1.967.83-2.941.915-3,1.81-6,2.544-9.05,3.09-12.814,4.127-26.1,4.532-39.242a111.58,111.58,0,0,0-.608-11.933q-.451-5.867-1.074-11.719-1.307-12.293-3.327-24.5a374.588,374.588,0,0,0-11.343-48.848,251.389,251.389,0,0,0-18.081-44.555q-1.321-2.476-2.716-4.911a1.447,1.447,0,0,0-2.5,1.459" transform="translate(-5116.533 -70.26)" fill="#42403f"/>
    <path id="Path_4858" data-name="Path 4858" d="M6282.1,1119.888c8.695-3.806,17.8-6.814,26.3-11.038,1.666-.828.2-3.322-1.459-2.5-3.669,1.822-7.5,3.314-11.3,4.835-5.025,2.011-10.045,4.033-15,6.2-1.7.744-.23,3.235,1.458,2.5" transform="translate(-5045.152 -93.837)" fill="#42403f"/>
    <path id="Path_4859" data-name="Path 4859" d="M5904.368,399.869c-.132-.242.013.241-.077-.228-.044-.234-.106-.464-.147-.7-.06-.348-.121-1.077-.16-1.692-.11-1.741-.133-3.488-.169-5.232a68.85,68.85,0,0,0-.794-11.4c-.433-2.28-1.716-5.856-4.75-4.954-3,.892-3.487,5.353-3.826,7.909a120.264,120.264,0,0,0-.714,13.054c-.043,1.88-.076,3.763-.2,5.64a43.028,43.028,0,0,1-1.512,8.088c-1.792,6.751-4.006,13.274-3.667,20.359.172,3.573.741,7.112,1.035,10.675a50.972,50.972,0,0,1-.392,10.856c-.971,7.481-2.543,14.868-3.947,22.275q-2.051,10.831-3.62,21.746c-1.847,12.884-3.383,25.905-4.138,38.9a109.3,109.3,0,0,0,1.5,25.189c.594,3.336,1.318,7.18,3.341,9.992a9.693,9.693,0,0,0,4.179,2.961,54.88,54.88,0,0,0,7.865,2.931c12.517,3.645,26.052,3.938,38.878,1.961a156.668,156.668,0,0,0,34.688-9.052c2.929-1.179,5.807-2.476,8.612-3.924,1.654-.853.193-3.348-1.459-2.5-10.941,5.645-22.979,9.031-35.023,11.366-11.875,2.3-23.915,3.255-35.926,1.347a60.854,60.854,0,0,1-16.177-4.63,15.4,15.4,0,0,1-2.607-1.356c.21.155-.265-.262-.345-.349a2.647,2.647,0,0,1-.456-.61,15.835,15.835,0,0,1-1.668-4.006,64.3,64.3,0,0,1-2.059-12.145c-.391-4.227-.582-8.477-.569-12.722.013-4.535.458-9.049.854-13.564q.841-9.581,1.989-19.132c1.712-14.048,4.274-27.915,6.885-41.816.664-3.534,1.289-7.076,1.793-10.637a60.1,60.1,0,0,0,.855-10.416c-.23-6.854-2-13.645-.817-20.5,1.145-6.67,3.846-12.978,4.656-19.717.429-3.566.333-7.2.434-10.789a57.532,57.532,0,0,1,1.057-11.766,12.7,12.7,0,0,1,.539-1.752,4.73,4.73,0,0,1,.431-.783c-.018.026.33-.368.16-.2a2.549,2.549,0,0,1,.288-.167c-.212.157-.076-.138-.209.055-.009.013.209-.019.209-.007L5899,378.4a1.341,1.341,0,0,1,.191.047s-.272-.176.01.025c-.3-.216-.029-.017.03.043.005.006.234.285.107.119-.106-.139.136.235.157.276a12.9,12.9,0,0,1,.937,3.684c.23,1.729.314,3.482.381,5.224.133,3.432.04,6.891.35,10.314a8.184,8.184,0,0,0,.71,3.2c.894,1.632,3.39.175,2.5-1.459" transform="translate(-4739.402 460.825)" fill="#42403f"/>
    <path id="Path_4860" data-name="Path 4860" d="M6036.07,686.4c-1.069,1.408-1.166,3.694-1.347,5.367-.3,2.787-.39,5.6-.458,8.4-.156,6.5-.32,13.015-.259,19.511.125,13.323,1.987,26.564,2.036,39.88A98.085,98.085,0,0,1,6033.781,781c-.4,1.813,2.389,2.587,2.788.768a100.532,100.532,0,0,0,2.337-19.231c.137-6-.255-11.988-.7-17.965-.509-6.837-1.036-13.672-1.227-20.528s.018-13.7.115-20.554c.047-3.241.105-6.488.342-9.722a34.3,34.3,0,0,1,.431-3.772,4.975,4.975,0,0,1,.7-2.135c1.124-1.482-1.385-2.924-2.5-1.459" transform="translate(-4858.302 225.294)" fill="#42403f"/>
    <path id="Path_4861" data-name="Path 4861" d="M5979.3,369.248c3.126,2.581,5.208-1.993,6.1-4.35a124.133,124.133,0,0,0,3.994-14.565c.63-2.587,1.26-5.176,1.98-7.74.549-1.957,1.012-4.312,2.273-5.958a7.246,7.246,0,0,1,.583-.618c.244-.193.54-.263.395-.253.341-.025.013-.14.3.075-.232-.176.132.183.081.106,0,0,.169.286.219.4.993,2.216.236,5.413-.295,7.687-.782,3.352-1.779,6.65-2.584,10a115.875,115.875,0,0,0-2.06,11.75c-.1.78.739,1.438,1.445,1.445a1.481,1.481,0,0,0,1.445-1.445c.481-3.6,1.06-7.182,1.892-10.715.722-3.059,1.61-6.076,2.372-9.125.73-2.925,1.386-6.014.9-9.032-.286-1.8-1.3-3.888-3.357-4.021-4.4-.283-5.722,6.471-6.574,9.58-1.46,5.322-2.6,10.725-4.048,16.05a42.863,42.863,0,0,1-2.236,6.794,10.6,10.6,0,0,1-.6,1.144c-.266.433-.141.305-.46.612-.1.1-.2.088.017.073a.288.288,0,0,1,.264.069c-1.424-1.176-3.48.858-2.043,2.044" transform="translate(-4816.601 493.198)" fill="#42403f"/>
    <path id="Path_4862" data-name="Path 4862" d="M6027.515,363.811c3.852,3.067,5.978-2.949,6.787-5.721,1.6-5.477,2.412-11.177,3.472-16.774.47-2.478.939-4.971,1.633-7.4.119-.417.246-.833.388-1.244q.1-.3.22-.6c.1-.257.009-.025-.012.022.05-.115.1-.231.158-.342.068-.128.138-.255.206-.383.117-.222.12-.42.054-.113.087-.41.273.177-.006-.051.007.005.088-.069.1-.063.084.057-.372.119-.075.044.093-.024.7-.128.3-.089a3.527,3.527,0,0,1,.5-.013c.227.01-.28-.09.061.025.264.089-.107-.194.189.107-.344-.349.021.027.055.085-.082-.137-.061-.115.063.11.188.343.064.082.1.195a5.23,5.23,0,0,1,.175.582,3.056,3.056,0,0,1,.147.936c.031.5.046.99.038,1.487a30.478,30.478,0,0,1-.292,3.521c-.745,5.538-2.217,10.963-3.38,16.421a53.024,53.024,0,0,0-1.155,6.939c-.1,1.354-.158,3.124.951,4.112,1.637,1.458,4.148.642,5.531-.708,1.747-1.706,2.709-4.2,3.552-6.432,1.036-2.753,1.843-5.587,2.7-8.4a39.954,39.954,0,0,1,2.556-7,7.879,7.879,0,0,1,.732-1.181c-.185.237.133-.132.193-.2.314-.326-.088.009.223-.188.33-.21-.216.015.149-.064.132-.029.152.027-.129.013a5.15,5.15,0,0,1,.569,0c.537.086.642.368.717.916.25,1.819-.455,3.869-.912,5.6-.7,2.649-1.4,5.3-2.2,7.926-2.911,9.554-7.841,19.534-6.227,29.778a23.61,23.61,0,0,0,2.189,6.7c.817,1.671,3.311.207,2.5-1.459-4.625-9.45-.484-19.733,2.62-28.962a145.793,145.793,0,0,0,4.465-15.483c.375-1.73.787-3.744.2-5.476a3.7,3.7,0,0,0-3.916-2.428c-1.995.132-3.167,1.979-3.949,3.615a55.343,55.343,0,0,0-2.761,7.779c-.851,2.8-1.663,5.616-2.733,8.339a20.54,20.54,0,0,1-1.565,3.239,7.406,7.406,0,0,1-.682.97,3.692,3.692,0,0,1-.841.761,1.823,1.823,0,0,1-.514.207,1,1,0,0,1-.287,0c-.234-.032.356.082-.026,0-.081-.018-.161-.038-.24-.061-.407-.12-.062-.041-.071-.011s.176.19.2.265a1.892,1.892,0,0,1-.095-.332c-.062-.446-.011.228-.03-.2a21.806,21.806,0,0,1,.6-5.5c1.063-5.529,2.544-10.971,3.5-16.52a36.246,36.246,0,0,0,.735-7.409c-.06-1.648-.326-3.555-1.649-4.7a3.784,3.784,0,0,0-4.809.086c-1.186,1.168-1.634,3.132-2.046,4.68-1.443,5.422-2.191,11.024-3.289,16.521A75.333,75.333,0,0,1,6031.31,358a15.607,15.607,0,0,1-1,2.6,7.253,7.253,0,0,1-.531.887c-.068.1.1-.105-.143.154-.323.346.049-.05-.122.115-.263.256.112-.035-.018.021-.294.127.293.058-.025-.006.5.1.228.042.139.009-.2-.073-.069.076.095.052-.082.012-.513-.352-.149-.063-1.441-1.147-3.5.885-2.044,2.044" transform="translate(-4853.197 496.761)" fill="#42403f"/>
    <path id="Path_4863" data-name="Path 4863" d="M6028.014,538.6a18.6,18.6,0,0,0-12.8,8.257c-2.606,4.2-3.4,9.349-3.148,14.221a38.909,38.909,0,0,0,1.518,8.8,1.446,1.446,0,0,0,2.787-.768c-1.613-5.558-2.17-11.713-.3-17.284,1.96-5.855,6.754-9.35,12.716-10.433,1.827-.332,1.052-3.118-.769-2.787" transform="translate(-4841.813 337.048)" fill="#42403f"/>
    <path id="Path_4864" data-name="Path 4864" d="M6044.939,604.774c3.178-2.875,7.457-4.215,11.51-5.259a35.671,35.671,0,0,0,6.312-2.092,28.205,28.205,0,0,0,5.051-3.2c3.143-2.394,6.078-5.156,9.689-6.85,2.664-1.25,5.714-1.209,8.553-1.818,2.426-.522,5.054-1.516,5.735-4.171a3.585,3.585,0,0,0-2.145-4.117,15.623,15.623,0,0,0-5.972-1.239,53.9,53.9,0,0,0-6.9.079,45.157,45.157,0,0,0-5.4.579,17.485,17.485,0,0,0-4.253,1.733c-1.715.836-3.662,1.729-5.3.279-1.388-1.231-3.439.806-2.044,2.044,3.044,2.7,6.329,1.383,9.556-.2a11.092,11.092,0,0,1,2.947-1.092c.114-.02.23-.035.346-.053.287-.044.062-.009.1-.015q.544-.07,1.091-.128c3.995-.431,8.294-.791,12.272-.07a10.554,10.554,0,0,1,2.163.609,4.451,4.451,0,0,1,.464.266c.209.141-.1-.1.135.115a.447.447,0,0,1,.175.288c-.056-.174,0,.053,0,.04a2.946,2.946,0,0,1-.079.3,2.28,2.28,0,0,1-.518.791,7.523,7.523,0,0,1-3.43,1.229c-2.771.562-5.644.608-8.268,1.742-3.559,1.538-6.5,4.085-9.5,6.472a33.164,33.164,0,0,1-5.217,3.53,31.143,31.143,0,0,1-6.739,2.259c-4.417,1.136-8.937,2.783-12.379,5.9-1.382,1.251.667,3.29,2.044,2.044" transform="translate(-4864.9 308.673)" fill="#42403f"/>
    <path id="Path_4865" data-name="Path 4865" d="M7055.7,1060.365c4.8,15.64,9.307,31.375,13.009,47.315a499.572,499.572,0,0,1,9.009,50.73c1.434,11.4,2.517,22.844,3.362,34.3.137,1.844,3.029,1.859,2.892,0-1.431-19.383-3.561-38.724-6.845-57.885-2.795-16.309-6.468-32.447-10.815-48.41-2.446-8.987-5.091-17.919-7.823-26.822-.544-1.773-3.336-1.017-2.788.768" transform="translate(-5634.029 -57.702)" fill="#42403f"/>
    <path id="Path_4866" data-name="Path 4866" d="M6868.716,720.092a133.74,133.74,0,0,1,57.651,22.938,91.578,91.578,0,0,1,29.072,35.812,152.826,152.826,0,0,1,9.178,26.759,1.447,1.447,0,0,0,2.788-.768c-4.095-16.064-10-31.967-20.091-45.291-10.429-13.774-24.628-23.8-40.228-30.972a131.621,131.621,0,0,0-38.371-11.369c-1.841-.233-1.823,2.66,0,2.891" transform="translate(-5491.098 201.46)" fill="#42403f"/>
    <path id="Path_4867" data-name="Path 4867" d="M7095.562,1098.29c11.471-4.971,23.2-9.331,34.5-14.707,2.8-1.333,5.581-2.726,8.246-4.316a1.446,1.446,0,0,0-1.459-2.5A140.62,140.62,0,0,1,7121,1084.54c-6.041,2.641-12.149,5.125-18.247,7.633-2.89,1.188-5.778,2.379-8.645,3.621-1.7.738-.232,3.229,1.458,2.5" transform="translate(-5662.663 -71.342)" fill="#42403f"/>
    <path id="Path_4868" data-name="Path 4868" d="M7086.3,1169.51c5.649,13.775,10.57,27.852,16.775,41.4a95.743,95.743,0,0,0,4.706,9.223,1.446,1.446,0,0,0,2.5-1.459,138.816,138.816,0,0,1-8.479-17.9c-3.023-7.258-5.854-14.593-8.706-21.919-1.315-3.378-2.63-6.757-4.006-10.111-.7-1.7-3.494-.954-2.787.769" transform="translate(-5657.222 -140.592)" fill="#42403f"/>
    <path id="Path_4869" data-name="Path 4869" d="M7152.971,1361.909c-.376,3.209-.555,6.441-.767,9.665q-.672,10.217-1.486,20.424c-.787,9.806-1.6,19.575-1.72,29.417-.085,6.694.074,13.415-.615,20.085-.815,7.876-1.875,15.669-4.278,23.229-.564,1.777,2.226,2.538,2.788.769a74.14,74.14,0,0,0,2.313-8.821c.719-3.854,1.156-7.762,1.645-11.651a172.334,172.334,0,0,0,1.007-20.366c.118-17.106,1.978-34.1,3.11-51.157.256-3.865.443-7.745.894-11.594.216-1.844-2.676-1.829-2.891,0" transform="translate(-5701.136 -286.912)" fill="#42403f"/>
    <path id="Path_4870" data-name="Path 4870" d="M7023.242,1788.731a50.356,50.356,0,0,0-12.362,4.754c-4.178,2.4-7.049,5.92-9.632,9.917a62.773,62.773,0,0,1-3.955,5.883,20.6,20.6,0,0,1-2.416,2.33c-2.441,2.137-4.973,4.183-7.209,6.542-1.906,2.011-4.146,4.615-4.184,7.551a5.473,5.473,0,0,0,3.731,5.167c2.146.653,4.443-.111,6.4-1a36.233,36.233,0,0,0,7-4.494c4.114-3.187,7.647-6.956,11.569-10.348,1.408-1.219-.644-3.256-2.044-2.044-2.987,2.584-5.7,5.47-8.716,8.031a54.491,54.491,0,0,1-6.45,4.822,14.852,14.852,0,0,1-5.5,2.357c-.2.021-.406.027-.61.027-.056,0-.605-.049-.338-.009a2.276,2.276,0,0,1-.944-.315,2.772,2.772,0,0,1-1.147-1.606c-.5-1.966,1.7-4.389,3-5.794a81.306,81.306,0,0,1,6.765-6.213c.878-.757,1.771-1.511,2.58-2.342a27.431,27.431,0,0,0,3.107-4.188c2.685-4.1,5.123-8.41,9.357-11.114a44.358,44.358,0,0,1,12.77-5.124,1.447,1.447,0,0,0-.769-2.787" transform="translate(-5579.264 -611.924)" fill="#42403f"/>
    <path id="Path_4871" data-name="Path 4871" d="M7208.891,1091.639c3.723,14.7,7.416,29.409,10.739,44.2,1.609,7.162,3.17,14.354,4.252,21.618q.132.879.251,1.76c.035.252-.034-.27.019.14.016.12.031.24.046.36q.057.426.108.853c.141,1.16.285,2.323.364,3.489.411,6.017-.329,12.162-1.046,18.127a489.87,489.87,0,0,1-9.513,51.655,224.308,224.308,0,0,1-6.6,23.815c-2.951,8.407-7.4,16.166-11.224,24.188q-1.608,3.369-3.131,6.777c-.752,1.684,1.738,3.157,2.5,1.459,2.059-4.622,4.263-9.177,6.513-13.708,2.007-4.04,4.164-8.024,5.916-12.183a158.845,158.845,0,0,0,7.414-23.7,521.159,521.159,0,0,0,10.138-51.618,166.878,166.878,0,0,0,2.007-21.039,61.862,61.862,0,0,0-.692-9.171c-.9-6.626-2.249-13.187-3.673-19.716-2.988-13.694-6.373-27.3-9.786-40.895q-.9-3.591-1.812-7.181c-.456-1.8-3.245-1.038-2.787.768" transform="translate(-5738.325 -81.428)" fill="#42403f"/>
    <path id="Path_4872" data-name="Path 4872" d="M7087.17,1903.521c7.7,4.281,18.94,7.727,27.074,2.714,1.581-.974.131-3.475-1.459-2.5-3.757,2.315-8.374,2.341-12.592,1.528a39.175,39.175,0,0,1-11.564-4.242c-1.628-.9-3.087,1.591-1.459,2.5" transform="translate(-5657.433 -697.062)" fill="#42403f"/>
    <path id="Path_4873" data-name="Path 4873" d="M7184.042,1916.755c-.312,13.916-3.107,27.656-3.14,41.587a1.446,1.446,0,0,0,2.891,0c.034-13.93,2.829-27.671,3.14-41.587.041-1.861-2.85-1.86-2.891,0" transform="translate(-5729.128 -708.09)" fill="#42403f"/>
    <path id="Path_4874" data-name="Path 4874" d="M6494.7,1903.516a180.957,180.957,0,0,0,29.224,8.138,191.884,191.884,0,0,0,53.316,2.529,201.019,201.019,0,0,0,37.739-7.215,1.447,1.447,0,0,0-.769-2.788,194.842,194.842,0,0,1-62.869,7.753,184.326,184.326,0,0,1-43-6.952c-4.347-1.25-8.634-2.682-12.873-4.253-1.746-.647-2.5,2.145-.768,2.787" transform="translate(-5207.473 -696.911)" fill="#42403f"/>
    <path id="Path_4875" data-name="Path 4875" d="M6782.064,1948.994c.562,10.964-2.9,21.552-4.276,32.33-.235,1.841,2.657,1.823,2.891,0,1.38-10.791,4.839-21.346,4.276-32.33-.095-1.851-2.986-1.862-2.891,0" transform="translate(-5423.106 -732.565)" fill="#42403f"/>
    <path id="Path_4876" data-name="Path 4876" d="M6791.716,1971.986a14.456,14.456,0,0,0,8.524-.942,10.986,10.986,0,0,0,4.8-4.988c2.4-4.761,2.632-10.375,3.113-15.585a46.154,46.154,0,0,1,1.249-8.233,1.446,1.446,0,0,0-2.786-.769c-1.312,4.677-1.316,9.656-1.9,14.452-.483,3.99-1.207,9.134-4.593,11.8-2.136,1.684-5.055,1.835-7.644,1.474-1.819-.254-2.605,2.531-.769,2.787" transform="translate(-5432.896 -727.137)" fill="#42403f"/>
    <path id="Path_4877" data-name="Path 4877" d="M6467.062,1908.773c-2.109,8.3-3.656,16.706-5.285,25.107a134.151,134.151,0,0,1-5.663,21.422c-.65,1.745,2.143,2.5,2.787.768a134.041,134.041,0,0,0,5.663-21.422c1.63-8.4,3.177-16.808,5.284-25.107.458-1.8-2.329-2.573-2.786-.769" transform="translate(-5178.857 -702.309)" fill="#42403f"/>
    <path id="Path_4878" data-name="Path 4878" d="M6500.485,1947.33c8.361-2.423,14.863-8.146,21.677-13.272,1.469-1.1.03-3.615-1.459-2.5-6.584,4.953-12.9,10.639-20.985,12.981a1.446,1.446,0,0,0,.768,2.787" transform="translate(-5211.258 -720.176)" fill="#42403f"/>
    <path id="Path_4882" data-name="Path 4882" d="M6583.333,683.869a25.8,25.8,0,0,0,10.455-3.158c1.626-.9.171-3.4-1.459-2.5a22.319,22.319,0,0,1-9,2.763c-1.841.155-1.856,3.047,0,2.891" transform="translate(-5274.45 231.191)" fill="#42403f"/>
  </g>
</svg>
