<svg xmlns="http://www.w3.org/2000/svg" width="1082.688" height="521.966" viewBox="0 0 1082.688 521.966">
  <g id="Group_253" data-name="Group 253" transform="translate(-283.273 -759)">
    <path id="Path_4610" data-name="Path 4610" d="M1919.282,549.36l-20.544,5.667s-9.918-6.376-12.752-13.814,0-25.5-1.771-34.712-21.96-44.276,8.147-64.111,57.735,8.855,57.735,8.855,15.939,15.585,19.127,31.17,3.188,25.149,5.668,29.4,7.792,11.689,7.792,11.689l-18.064,7.084-4.959-31.878a4.956,4.956,0,0,0,3.188-3.188c.708-2.479,3.188-7.438,1.417-10.98s-2.834-8.147-6.021-8.147a4.6,4.6,0,0,0-4.25,2.125s-7.793-14.168-17.356-15.939-15.585-2.834-22.669-4.959-17.71-6.021-17.71-6.021-10.272,9.209-12.4,17-.354,16.648-.354,16.648l6.375,18.064,8.855,17.71s4.959,8.147,7.792,9.918,8.855,6.021,8.855,6.021l3.542,6.73Z" transform="translate(-1464.972 431.182)" fill="#f2f2f2"/>
    <path id="Path_4612" data-name="Path 4612" d="M4972.5,392.669c-.842-.421-11.579-32.421,7.58-53.473s36.21-21.473,52-14.526,22.316,23.579,23.158,29.052.843,16.842.843,16.842l-2.948,19.158s-4.632.632-7.157-8.21-.632-17.684-4.632-25.474-10.105-14.526-18.105-15.368-23.368-.421-30.1,8.211-8.9,24.093-11.157,29.684c-4.842,12-9.474,14.105-9.474,14.105" transform="translate(-3793.561 517.579)" fill="#f2f2f2"/>
    <path id="Path_4613" data-name="Path 4613" d="M5277.173,654.716c1.263,0,17.684,5.895,18.1,12.21s-4,9.474-3.788,12,6.315,2.105,8.21,4.631,4.632,5.895,3.579,8.631-4.21,13.263-4.21,13.263-11.79-1.684-18.737-6.105c-9.074-5.774-7.579-15.158-7.368-19.789s4.21-24.842,4.21-24.842" transform="translate(-4022.439 266.059)" fill="#f2f2f2"/>
    <path id="Path_4615" data-name="Path 4615" d="M3334.506,783.106s13.931,6.385,19.154,5.8,22.057-8.126,22.057-8.126l57.463,164.264,4.644,89.968s-60.946,6.965-77.2,6.965-57.463-4.644-57.463-4.644l-28.441-5.8,6.385-97.514,51.078-150.334" transform="translate(-2518.113 171.141)" fill="#f2f2f2"/>
    <path id="Path_4616" data-name="Path 4616" d="M3439.751,653.806c4.953-4.28,8.888-9.529,12.509-14.947,1.063-1.591-1.5-3.077-2.561-1.5a69.647,69.647,0,0,1-12.046,14.347c-1.446,1.25.659,3.339,2.1,2.1" transform="translate(-2640.422 279.632)" fill="#42403f"/>
    <path id="Path_4617" data-name="Path 4617" d="M3480.374,637.6c-1.053,5.209-2.271,10.527-2.267,15.868,0,4.3,1.037,8.69,4.371,11.637,1.425,1.26,3.53-.829,2.1-2.1-2.964-2.62-3.582-6.483-3.5-10.265.112-4.842,1.2-9.626,2.153-14.355.376-1.863-2.48-2.66-2.859-.788" transform="translate(-2671.244 279.752)" fill="#42403f"/>
    <path id="Path_4618" data-name="Path 4618" d="M3196.17,758.133c2.134-2.572,4.045-5.32,6.21-7.871a41.445,41.445,0,0,1,4.314-4.534,7.385,7.385,0,0,1,1.554-1.114,2.334,2.334,0,0,0,.487-.174c-.013.039-.123.06-.206,0-.379-.276.18.1.254.163,3.016,2.379,2,7.792,1.372,11.024a72.076,72.076,0,0,1-2.893,10.113c-6.859,19.509-14.265,38.829-21.574,58.173-5.841,15.459-11.854,30.865-17.2,46.5-7.156,20.923-13.867,42-20.844,62.98-9.492,28.547-19.291,56.995-29.715,85.216q-2.071,5.61-4.177,11.207c-.672,1.788,2.193,2.561,2.859.788,11.058-29.413,21.408-59.086,31.377-88.884,7.434-22.219,14.568-44.539,22.071-66.735,5.34-15.8,11.332-31.351,17.227-46.946,7.551-19.976,15.208-39.925,22.325-60.06a88.984,88.984,0,0,0,3.146-10.321c.906-4.082,1.778-9.074-.157-13-.693-1.406-2.189-3.132-3.894-3.164-1.572-.029-2.994,1.169-4.106,2.136a64.37,64.37,0,0,0-8.362,9.586c-.734.954-1.633,2.18-2.163,2.82-1.209,1.458.876,3.567,2.1,2.1" transform="translate(-2396.842 200.723)" fill="#42403f"/>
    <path id="Path_4619" data-name="Path 4619" d="M3027.839,916.11c-3.559,13.021-6.666,26.164-9.612,39.335-3.453,15.442-6.66,30.938-9.744,46.457q-4.856,24.424-9.346,48.918-4.362,23.628-8.523,47.292-3.62,20.5-7.166,41.008l-.756,4.345c-.324,1.866,2.533,2.668,2.859.788q3.472-19.971,6.967-39.938,4.116-23.4,8.384-46.767,4.49-24.494,9.268-48.935c3.088-15.7,6.292-31.386,9.727-47.018,2.975-13.535,6.1-27.044,9.655-40.441q.565-2.13,1.145-4.256a1.484,1.484,0,0,0-2.859-.788" transform="translate(-2298.225 70.043)" fill="#42403f"/>
    <path id="Path_4620" data-name="Path 4620" d="M4017.71,916.9c3.559,13.021,6.666,26.164,9.611,39.336,3.454,15.442,6.661,30.938,9.745,46.457q4.854,24.424,9.345,48.918,4.362,23.628,8.523,47.292,3.62,20.5,7.166,41.008l.756,4.345c.326,1.876,3.184,1.081,2.859-.788q-3.473-19.971-6.967-39.938-4.115-23.4-8.384-46.767-4.49-24.494-9.268-48.936c-3.087-15.7-6.291-31.386-9.727-47.018-2.974-13.536-6.1-27.044-9.655-40.441q-.565-2.13-1.145-4.256a1.484,1.484,0,0,0-2.859.788" transform="translate(-3077.47 70.041)" fill="#42403f"/>
    <path id="Path_4621" data-name="Path 4621" d="M3437.431,697.65a54.588,54.588,0,0,1,.354,11.057c-.151,4.655-.4,9.307-.407,13.966a1.483,1.483,0,0,0,2.965,0c.009-4.8.273-9.59.42-14.386a56.571,56.571,0,0,0-.473-11.426c-.326-1.876-3.184-1.081-2.859.788" transform="translate(-2640.58 235.134)" fill="#42403f"/>
    <path id="Path_4622" data-name="Path 4622" d="M2460,430.855c4.159,5.753,8.787,11.148,13.38,16.555,4.777,5.624,9.462,11.318,14.4,16.8a421.88,421.88,0,0,0,32.028,31.481,354.889,354.889,0,0,0,30.25,24.528c5.4,3.861,11.163,7.168,16.9,10.505,6.569,3.822,13.183,7.572,19.865,11.194,7.529,4.082,15.255,7.778,22.8,11.822,6.973,3.737,14.546,7.547,20.114,13.287,1.332,1.372,3.427-.726,2.1-2.1-4.891-5.041-11.26-8.531-17.343-11.911-6.718-3.733-13.645-7.058-20.455-10.615-6.667-3.482-13.232-7.157-19.763-10.886-6.241-3.563-12.576-7.071-18.586-11.016-5.027-3.3-9.807-6.983-14.508-10.727-5.024-4-10.013-8.079-14.866-12.288a424.168,424.168,0,0,1-32.262-30.823c-5.645-6.046-10.974-12.345-16.305-18.665-5.166-6.125-10.493-12.142-15.192-18.641-1.108-1.532-3.681-.053-2.56,1.5" transform="translate(-1904.499 436.218)" fill="#42403f"/>
    <path id="Path_4623" data-name="Path 4623" d="M2983.411,1837.687a327.91,327.91,0,0,0,31.02,16.714c1.708.833,3.213-1.723,1.5-2.561a327.808,327.808,0,0,1-31.019-16.714c-1.62-1.019-3.111,1.546-1.5,2.56" transform="translate(-2298.263 -622.504)" fill="#42403f"/>
    <path id="Path_4624" data-name="Path 4624" d="M3271.352,1384.844c-.657,11.394-1.777,22.767-2.837,34.129-1.383,14.825-2.839,29.643-4.247,44.465q-1.067,11.234-2.068,22.474c-.166,1.9,2.8,1.889,2.965,0,1.222-13.992,2.589-27.971,3.935-41.952,1.356-14.089,2.728-28.177,3.94-42.28.482-5.607.953-11.218,1.277-16.837.11-1.906-2.855-1.9-2.965,0" transform="translate(-2508.681 -282.584)" fill="#42403f"/>
    <path id="Path_4625" data-name="Path 4625" d="M3258.72,1793.513c12.235,2.607,24.572,4.764,36.924,6.739,5.6.9,11.2,1.742,16.822,2.49,3.521.469,7.076.991,10.629,1.132,7.879.312,15.819.115,23.7-.023q11.549-.2,23.087-.782c12.072-.613,24.143-1.516,36.142-2.984,4.11-.5,8.218-1.064,12.3-1.784a57.011,57.011,0,0,0,7.357-1.642c.345-.11.686-.228,1.021-.365,1.742-.714.979-3.584-.788-2.859a32.275,32.275,0,0,1-5.985,1.56c-3.545.7-7.124,1.24-10.7,1.718-11.418,1.522-22.919,2.452-34.416,3.123q-23.481,1.371-47.021,1.135c-9.129-.077-18.125-1.521-27.134-2.914-12.384-1.917-24.744-4.05-37.025-6.546q-2.061-.419-4.117-.857c-1.861-.4-2.657,2.461-.789,2.859" transform="translate(-2505.265 -589.169)" fill="#42403f"/>
    <path id="Path_4626" data-name="Path 4626" d="M2465.563,357.085c4.558-3.716,9.412-7.053,13.889-10.872,4.273-3.643,8.469-7.775,10.639-13.051.725-1.763-2.142-2.531-2.859-.788-2.042,4.965-6.436,8.861-10.455,12.232-4.313,3.618-8.948,6.826-13.311,10.382-1.48,1.206.629,3.293,2.1,2.1" transform="translate(-1906.936 509.493)" fill="#42403f"/>
    <path id="Path_4627" data-name="Path 4627" d="M2560.9,333.529c.5.66,1.145,1.155,1.674,1.8.758.923,1.515,1.856,2.332,2.728q2.374,2.533,4.819,5c3.2,3.249,6.479,6.423,9.733,9.621,1.623,1.6,3.377,3.016,5.046,4.56.768.711,1.551,1.4,2.353,2.067.768.643,1.3,1.483,2.027,2.172,3,2.859,6.176,5.56,9.269,8.319,4.541,4.05,9.117,8.067,13.9,11.831,4.944,3.89,10.088,7.509,15.3,11.022,3.4,2.29,6.827,4.418,10.433,6.374q5.693,3.088,11.533,5.9,11.4,5.477,23.3,9.822a219.681,219.681,0,0,0,49.48,11.881,180.481,180.481,0,0,0,50.8-1.112q3.124-.524,6.226-1.169c1.867-.385,1.077-3.244-.788-2.859a174.942,174.942,0,0,1-50.017,2.8,210.9,210.9,0,0,1-48.98-10.332,242.466,242.466,0,0,1-23.426-9.21q-5.71-2.592-11.289-5.459c-3.683-1.891-7.494-3.749-10.974-6a251.235,251.235,0,0,1-29.626-22.241c-2.692-2.363-5.359-4.755-8.023-7.149-1.615-1.451-3.249-2.884-4.845-4.355-.683-.629-1.176-1.414-1.842-2.053-.8-.77-1.734-1.437-2.556-2.2-1.609-1.489-3.31-2.858-4.88-4.39-1.587-1.548-3.127-3.143-4.732-4.673-3.306-3.151-6.513-6.416-9.648-9.737-.746-.791-1.433-1.611-2.136-2.438-.343-.4-.676-.818-1.019-1.222-.25-.293-.668-.509-.886-.8-1.14-1.5-3.716-.024-2.56,1.5" transform="translate(-1980.453 509.48)" fill="#42403f"/>
    <path id="Path_4628" data-name="Path 4628" d="M2556.444,467.923c7.41-4.154,14.17-9.513,18.954-16.608,1.07-1.586-1.5-3.072-2.56-1.5-4.5,6.668-10.936,11.647-17.89,15.545-1.665.933-.172,3.5,1.5,2.56" transform="translate(-1975.643 420.834)" fill="#42403f"/>
    <path id="Path_4629" data-name="Path 4629" d="M2235.473,137.384c-4.237-2.909-8.355-5.992-12.631-8.845a46.459,46.459,0,0,0-4.859-2.934,9.21,9.21,0,0,0-3.884-1.248,2.854,2.854,0,0,0-2.972,3.754c.635,2.175,2.566,4.058,4.09,5.641,3.507,3.645,7.614,6.66,10.752,10.642,2.969,3.769,5.716,7.711,8.785,11.4a68.487,68.487,0,0,0,9.477,9.125c6.563,5.387,15.318,12.049,23.975,7.03a1.484,1.484,0,0,0-1.5-2.56c-6.759,3.919-13.97-1.367-19.155-5.564a76.265,76.265,0,0,1-8.522-7.618c-2.972-3.248-5.567-6.81-8.212-10.322a50.334,50.334,0,0,0-5.545-6.771c-1.616-1.506-3.283-2.956-4.9-4.465a49.516,49.516,0,0,1-5.136-5.32,12.246,12.246,0,0,1-.754-1.057c-.1-.159-.193-.321-.286-.485a1.3,1.3,0,0,1-.175-.348c-.058-.146-.066-.318-.128-.459.1.235.043.029.01.088-.1.184-.048.266-.285.342a1.1,1.1,0,0,1,.75-.056,6.867,6.867,0,0,1,1.749.629,41.586,41.586,0,0,1,4.9,2.9c4.393,2.907,8.607,6.076,12.949,9.057,1.577,1.083,3.062-1.486,1.5-2.56" transform="translate(-1717.22 665.37)" fill="#42403f"/>
    <path id="Path_4630" data-name="Path 4630" d="M2406.782,314.774c5.633,8.347,11.366,16.63,17.406,24.689,1.13,1.509,3.706.033,2.56-1.5-6.039-8.06-11.772-16.342-17.406-24.689-1.062-1.573-3.632-.091-2.56,1.5" transform="translate(-1864.442 523.635)" fill="#42403f"/>
    <path id="Path_4631" data-name="Path 4631" d="M2235.367,84c-2.365-3.019-5.1-5.779-7.653-8.639-3.6-4.041-7.222-8.107-10.476-12.44a35.122,35.122,0,0,1-3.368-5.12,4.2,4.2,0,0,1-.558-1.538c.086.51-.025.028.018-.041.113-.183-.163.339,0,.031-.153.283.022.124-.1.2-.172.109.158-.158.235-.225-.168.145.3-.291.074-.077.041-.038.459-.106.166-.062-.274.041.144-.011.222.018-.575-.212.561.253.111.047a5.848,5.848,0,0,1,.8.464,4.222,4.222,0,0,1,.64.5c.339.29.665.6.985.907.8.773,1.558,1.584,2.314,2.4a205.236,205.236,0,0,0,18.323,17.941c1.454,1.217,3.562-.87,2.1-2.1a194.438,194.438,0,0,1-17.831-17.41,35.1,35.1,0,0,0-4.71-4.568,4.345,4.345,0,0,0-3.982-.966c-4.138,1.42-1.553,5.928.005,8.292a123.991,123.991,0,0,0,10.68,13.3c3.275,3.725,6.844,7.273,9.9,11.18,1.175,1.5,3.26-.61,2.1-2.1" transform="translate(-1716.814 718.982)" fill="#42403f"/>
    <path id="Path_4632" data-name="Path 4632" d="M2253.388,48.257a94.918,94.918,0,0,0-10.429-12.749c-3.363-3.649-6.964-7.217-9.8-11.307a11.629,11.629,0,0,1-2.241-4.591,1.721,1.721,0,0,1,.13-1.213c-.185.229.011.064.321.113a4.431,4.431,0,0,1,1.521.678c1.931,1.174,3.2,3.276,4.634,4.978q2.42,2.878,4.92,5.687c4.438,4.989,9.017,9.851,13.537,14.765,1.3,1.407,3.388-.694,2.1-2.1-4.376-4.758-8.807-9.468-13.113-14.289q-2.775-3.107-5.456-6.3c-1.646-1.96-3.082-4.15-5.35-5.444-1.84-1.048-4.619-1.687-5.8.63-.863,1.689-.314,3.745.4,5.374,1.972,4.493,5.8,8.259,9.069,11.818,4.539,4.937,9.364,9.769,13,15.438,1.027,1.6,3.595.116,2.56-1.5" transform="translate(-1729.967 747.295)" fill="#42403f"/>
    <path id="Path_4633" data-name="Path 4633" d="M2300.448,33.351c3.792.15,2.341-4.282,1.387-6.232a69.7,69.7,0,0,0-4.949-8.013,80.091,80.091,0,0,1-7.412-12.63,10.5,10.5,0,0,1-.925-3.217c-.008-.2.019-.446.1-.426a1.234,1.234,0,0,0-.13.157c-.172.184.018-.052.085-.033.031.009-.382.065-.074.046.172-.011.279-.017.047-.018a2.229,2.229,0,0,1,.976.1c-.62-.2-.08-.088-.036.015.109.256-.179-.179.067.051a16.482,16.482,0,0,1,1.565,1.721c1.443,1.8,3.017,4.1,4.467,6.134a137.61,137.61,0,0,0,13.635,16.986c5.249,5.333,12,10.736,19.86,10.8a1.483,1.483,0,0,0,0-2.965c-6.7-.053-12.524-4.75-17.062-9.228a125.026,125.026,0,0,1-13.6-16.7c-1.59-2.23-3.148-4.487-4.833-6.647-.885-1.134-1.919-2.621-3.373-3.05-2.22-.656-4.554.389-4.656,2.873-.122,2.954,1.807,6.107,3.177,8.581,2.343,4.23,5.125,8.174,7.746,12.229a44.978,44.978,0,0,1,2.869,4.951,8.928,8.928,0,0,1,.678,1.9c-.068-.3.04.2.007.179.16.1-.185.009.087-.2s.75-.306.3-.324c-1.908-.075-1.905,2.89,0,2.965" transform="translate(-1773.384 758.997)" fill="#42403f"/>
    <path id="Path_4634" data-name="Path 4634" d="M2458.373,73.7c2.889-4.478,2.2-10.249,2.528-15.314.135-2.087.368-4.518,1.745-6.2a5.363,5.363,0,0,1,2.71-1.667c1.23-.372,1.853-.091,2.1,1.179.488,2.507-.553,5.36-1.153,7.765a22.064,22.064,0,0,0-.664,7.636c.536,5.932,2.236,11.7,2.691,17.638a23.221,23.221,0,0,1-.917,9.38,17.516,17.516,0,0,1-6.5,8.316c-1.529,1.11-.051,3.684,1.5,2.56a21.274,21.274,0,0,0,7.014-8.011,22.239,22.239,0,0,0,1.976-9.264c.07-6.565-1.907-12.908-2.668-19.382a27.62,27.62,0,0,1-.268-4.573,19.43,19.43,0,0,1,.733-3.658c.715-2.858,1.7-5.992,1.16-8.961a4.782,4.782,0,0,0-2.04-3.285c-1.518-.92-3.355-.429-4.886.207a8.4,8.4,0,0,0-4.791,5.653c-.9,3.072-.771,6.39-.876,9.557-.1,3.039-.256,6.3-1.953,8.928-1.037,1.608,1.529,3.1,2.561,1.5" transform="translate(-1901.369 723.35)" fill="#42403f"/>
    <path id="Path_4635" data-name="Path 4635" d="M2492.378,259.192c3.611,8.379,8.167,16.22,15.689,21.653,1.549,1.119,3.031-1.452,1.5-2.56-7.068-5.106-11.244-12.744-14.625-20.59-.753-1.747-3.309-.239-2.56,1.5" transform="translate(-1928.982 565.563)" fill="#42403f"/>
    <path id="Path_4636" data-name="Path 4636" d="M2406.721,172.316c.787,8.771,4.333,18.387,12.619,22.64,1.694.87,3.2-1.688,1.5-2.56-7.319-3.757-10.454-12.321-11.15-20.08-.169-1.885-3.136-1.9-2.965,0" transform="translate(-1864.586 630.331)" fill="#42403f"/>
    <path id="Path_4637" data-name="Path 4637" d="M4217.707,429.356c-4.185,5.788-8.874,11.191-13.492,16.632-4.788,5.642-9.495,11.343-14.467,16.827a424.078,424.078,0,0,1-31.917,31.247,335.1,335.1,0,0,1-30.037,24.241c-5.382,3.788-11.128,7.04-16.815,10.34-6.643,3.854-13.33,7.64-20.091,11.283-7.468,4.024-15.129,7.673-22.592,11.706-6.92,3.74-14.335,7.59-19.869,13.3-1.329,1.37.766,3.469,2.1,2.1,4.929-5.082,11.44-8.532,17.583-11.912,6.732-3.705,13.664-7.022,20.465-10.6s13.5-7.336,20.162-11.155c6.064-3.476,12.235-6.886,18.049-10.773,5.081-3.4,9.927-7.152,14.7-10.964,5.04-4.024,10.047-8.117,14.912-12.35a424.724,424.724,0,0,0,32.394-31.037c5.668-6.1,11.008-12.455,16.381-18.809,5.151-6.091,10.416-12.106,15.094-18.575,1.12-1.548-1.451-3.03-2.56-1.5" transform="translate(-3100.324 436.22)" fill="#42403f"/>
    <path id="Path_4638" data-name="Path 4638" d="M4659.527,354.989c-4.362-3.556-9-6.765-13.311-10.382-4.019-3.37-8.413-7.268-10.455-12.232-.716-1.741-3.586-.978-2.859.788,2.17,5.275,6.366,9.41,10.639,13.051,4.479,3.816,9.332,7.156,13.89,10.872,1.467,1.2,3.577-.89,2.1-2.1" transform="translate(-3540.61 509.492)" fill="#42403f"/>
    <path id="Path_4639" data-name="Path 4639" d="M3973.458,332.031c-.177.233-.556.415-.771.646-.351.378-.661.814-1,1.209-.749.882-1.48,1.759-2.275,2.6q-2.377,2.518-4.818,4.973c-3.148,3.184-6.358,6.309-9.562,9.437-1.57,1.532-3.271,2.9-4.88,4.39-.781.723-1.61,1.379-2.406,2.081-.735.649-1.273,1.5-1.993,2.169-2.968,2.78-6.054,5.45-9.089,8.157-4.471,3.988-8.975,7.943-13.679,11.656-4.812,3.8-9.843,7.31-14.927,10.733-3.4,2.29-6.827,4.418-10.432,6.374q-5.5,2.986-11.144,5.71a247.025,247.025,0,0,1-23.182,9.784,216.369,216.369,0,0,1-48.488,11.7,177.841,177.841,0,0,1-50.013-1.006q-3.125-.525-6.227-1.169c-1.862-.384-2.659,2.473-.788,2.859a177.718,177.718,0,0,0,50.806,2.906,214.262,214.262,0,0,0,49.768-10.438,249.646,249.646,0,0,0,23.739-9.33q5.714-2.583,11.3-5.441c3.754-1.92,7.6-3.823,11.174-6.072a240.473,240.473,0,0,0,30.411-22.826c2.744-2.409,5.462-4.848,8.179-7.289,1.621-1.456,3.291-2.874,4.869-4.377.724-.69,1.258-1.529,2.028-2.172.859-.719,1.692-1.456,2.515-2.217,1.614-1.494,3.312-2.866,4.883-4.41,1.635-1.608,3.229-3.258,4.9-4.824,3.4-3.178,6.635-6.573,9.813-9.972.711-.76,1.36-1.585,2.028-2.384.578-.692,1.273-1.254,1.813-1.964,1.155-1.519-1.419-3-2.56-1.5" transform="translate(-2881.017 509.482)" fill="#42403f"/>
    <path id="Path_4640" data-name="Path 4640" d="M4585.761,465.364c-6.954-3.9-13.395-8.877-17.891-15.545-1.061-1.574-3.631-.092-2.56,1.5,4.784,7.1,11.544,12.455,18.953,16.609,1.666.934,3.163-1.626,1.5-2.56" transform="translate(-3489.616 420.833)" fill="#42403f"/>
    <path id="Path_4641" data-name="Path 4641" d="M4795.5,139.915c3.914-2.687,7.731-5.514,11.655-8.187,1.525-1.039,3.067-2.061,4.674-2.969a10.386,10.386,0,0,1,3.363-1.451c-.07.01.293-.027.409-.014-.289-.034.177.065.25.089a.443.443,0,0,1-.271-.237c-.088-.235-.092-.006,0-.193-.056.12-.055.274-.109.4a1.058,1.058,0,0,1-.124.275c-.11.211-.23.416-.357.618a28.584,28.584,0,0,1-4.458,5.016c-1.729,1.678-3.529,3.281-5.313,4.9a37.9,37.9,0,0,0-4.566,5.084c-2.685,3.467-5.219,7.053-8.024,10.426a63.62,63.62,0,0,1-8.776,8.549c-5.59,4.58-13.52,11.528-21.083,7.142a1.484,1.484,0,0,0-1.5,2.56c7.716,4.474,15.719-.448,21.847-5.306a79.777,79.777,0,0,0,9.142-8.035,143.063,143.063,0,0,0,9.082-11.393,46.75,46.75,0,0,1,5.7-6.682c1.934-1.759,3.893-3.492,5.765-5.319,1.747-1.706,9.167-8.657,3.945-10.618-2.87-1.078-6.45,1.577-8.709,3.022-4.8,3.071-9.339,6.54-14.035,9.764-1.563,1.073-.083,3.644,1.5,2.56" transform="translate(-3636.803 665.399)" fill="#42403f"/>
    <path id="Path_4642" data-name="Path 4642" d="M4734.18,313.276c-5.633,8.347-11.367,16.63-17.406,24.689-1.145,1.528,1.429,3.007,2.56,1.5,6.039-8.06,11.772-16.342,17.405-24.689,1.071-1.586-1.5-3.072-2.56-1.5" transform="translate(-3603.631 523.637)" fill="#42403f"/>
    <path id="Path_4643" data-name="Path 4643" d="M4883.6,86.083c2.627-3.356,5.68-6.415,8.508-9.6a164.132,164.132,0,0,0,11.081-13.437c1.6-2.24,5.071-6.57,2.154-9.057-3.084-2.63-6.592,1.4-8.577,3.493-6.167,6.51-12.205,13-19.1,18.769-1.465,1.227.643,3.315,2.1,2.1a181.48,181.48,0,0,0,16.966-16.472,58.4,58.4,0,0,1,4.6-4.721,5.236,5.236,0,0,1,1.5-1.016c-.407.186.663-.251.11-.047a.6.6,0,0,1,.3-.005c-.236-.107-.122-.1.053.034-.235-.174.281.227.076.059.09.074.2.248.3.3-.112-.056.046.009-.119-.238.148.221,0-.082,0-.07.019.072-.048.432.006.186.038-.17-.144.5-.2.672a3.289,3.289,0,0,1-.309.693c-.193.385-.4.76-.623,1.13-.531.9-1.117,1.761-1.72,2.61A150.655,150.655,0,0,1,4890.537,73.8c-3,3.385-6.24,6.627-9.029,10.188-1.163,1.486.92,3.6,2.1,2.1" transform="translate(-3724.613 719.001)" fill="#42403f"/>
    <path id="Path_4644" data-name="Path 4644" d="M4862.044,49.722c3.222-5.021,7.4-9.376,11.435-13.74,3.521-3.807,7.451-7.656,9.994-12.224a9.354,9.354,0,0,0,1.462-4.952,3.294,3.294,0,0,0-4.571-3.084c-2.431.781-3.953,2.509-5.521,4.4q-2.73,3.3-5.562,6.525c-4.729,5.37-9.645,10.573-14.487,15.839-1.29,1.4.8,3.5,2.1,2.1,4.087-4.444,8.219-8.848,12.258-13.335q2.477-2.752,4.886-5.566,1.232-1.444,2.443-2.9a25.875,25.875,0,0,1,2.419-2.839,6.385,6.385,0,0,1,2.374-1.4,1.233,1.233,0,0,1,.709-.078c-.291-.114-.006.365,0,.5a7.681,7.681,0,0,1-1.428,3.917c-2.469,4.066-5.957,7.53-9.169,11-4.208,4.549-8.539,9.106-11.9,14.34-1.033,1.611,1.533,3.1,2.562,1.5" transform="translate(-3707.458 747.326)" fill="#42403f"/>
    <path id="Path_4645" data-name="Path 4645" d="M4768.578,30.406c-.495.02-.037-.015.177.185.355.333.044.538.21.206.087-.176.268-1.018.464-1.478a32.083,32.083,0,0,1,2.383-4.313c2.175-3.486,4.573-6.823,6.7-10.339,1.383-2.28,9.079-14.232,1.936-14.629-1.843-.1-3.013.8-4.146,2.12-1.589,1.853-2.978,3.888-4.393,5.875a155.6,155.6,0,0,1-13.049,16.646c-4.889,5.2-11.353,11.1-18.946,11.162a1.483,1.483,0,0,0,0,2.965c6.957-.055,13.053-4.359,17.942-8.928C4763.23,24.861,4767.714,18.95,4772,13c1.683-2.338,3.319-4.713,5.043-7.021a26.15,26.15,0,0,1,1.688-2.1c.219-.241.451-.465.686-.69.3-.292-.075.089.042-.042s.56-.229.022-.054a1.841,1.841,0,0,1,.914-.1c-.3-.01.177.078.207.05-.088.084-.055-.1-.217-.2.242.153,0-.1.07.13.085.273.036-.158.027.232a4.437,4.437,0,0,1-.261,1.464c-1.122,3.849-3.555,7.431-5.68,10.778-2.24,3.528-4.765,6.9-6.77,10.576-1.039,1.905-3.6,7.515.812,7.341,1.9-.075,1.911-3.04,0-2.965" transform="translate(-3620.193 758.976)" fill="#42403f"/>
    <path id="Path_4646" data-name="Path 4646" d="M4701.958,72.314c-1.484-2.3-1.773-5.089-1.906-7.764a86.162,86.162,0,0,0-.5-8.739,9.874,9.874,0,0,0-3.394-6.6c-2.313-1.778-6.315-2.828-8.084.191-1.455,2.485-.7,5.8-.089,8.422.64,2.761,1.439,5.294,1.274,8.153-.379,6.517-2.4,12.82-2.817,19.338a24.215,24.215,0,0,0,1.381,10.561,21.2,21.2,0,0,0,7.537,9.221c1.546,1.123,3.027-1.448,1.5-2.56a17.917,17.917,0,0,1-6.144-7.374,20.024,20.024,0,0,1-1.376-8.12c.09-5.969,1.767-11.776,2.548-17.666a23.193,23.193,0,0,0,.039-7.882c-.56-2.664-1.529-5.3-1.674-8.04-.043-.828-.113-2.1.519-2.755.738-.771,2.5.136,3.254.618,1.806,1.147,2.4,3.34,2.68,5.341.78,5.654-.572,12.079,2.7,17.147,1.031,1.6,3.6.113,2.561-1.5" transform="translate(-3580.954 723.238)" fill="#42403f"/>
    <path id="Path_4647" data-name="Path 4647" d="M4656.328,257.693c-3.382,7.845-7.558,15.484-14.626,20.59-1.533,1.107-.054,3.68,1.5,2.56,7.522-5.433,12.078-13.275,15.69-21.653.747-1.734-1.807-3.246-2.561-1.5" transform="translate(-3546.839 565.565)" fill="#42403f"/>
    <path id="Path_4648" data-name="Path 4648" d="M4751.02,172.315c-.7,7.759-3.83,16.323-11.149,20.08-1.7.872-.2,3.431,1.5,2.56,8.286-4.253,11.832-13.869,12.618-22.64.171-1.9-2.795-1.889-2.965,0" transform="translate(-3620.672 630.331)" fill="#42403f"/>
    <path id="Path_4649" data-name="Path 4649" d="M3711.493,651.71a69.607,69.607,0,0,1-12.045-14.347c-1.055-1.579-3.625-.1-2.561,1.5,3.621,5.418,7.556,10.667,12.509,14.947,1.438,1.242,3.544-.846,2.1-2.1" transform="translate(-2835.776 279.631)" fill="#42403f"/>
    <path id="Path_4650" data-name="Path 4650" d="M3691.5,638.387c.955,4.729,2.041,9.513,2.152,14.355.087,3.782-.531,7.645-3.5,10.265-1.432,1.266.671,3.357,2.1,2.1,3.334-2.948,4.367-7.339,4.371-11.637,0-5.341-1.214-10.659-2.267-15.868-.378-1.869-3.236-1.078-2.859.788" transform="translate(-2830.543 279.75)" fill="#42403f"/>
    <path id="Path_4651" data-name="Path 4651" d="M3696.96,756.036c-.333-.4-.282-.352-.694-.894-.541-.711-1.081-1.422-1.626-2.129-1.328-1.722-2.676-3.429-4.089-5.081a38.761,38.761,0,0,0-4.3-4.457c-1.076-.912-2.426-2.008-3.925-1.979-1.8.034-3.309,1.9-3.995,3.383a13.512,13.512,0,0,0-.988,6.133,47.463,47.463,0,0,0,2.677,12.916c2.659,8.133,5.752,16.142,8.725,24.164q5.963,16.086,12.047,32.127c6.117,16.2,12.465,32.336,18.114,48.708,7.224,20.938,13.924,42.058,20.9,63.079,9.659,29.1,19.626,58.1,30.242,86.863q2.169,5.876,4.373,11.738c.666,1.77,3.533,1,2.859-.789-10.834-28.82-20.99-57.888-30.773-87.08-7.4-22.086-14.513-44.269-21.936-66.348-5.112-15.2-10.8-30.182-16.471-45.183-7.559-19.995-15.191-39.969-22.419-60.086-1.12-3.118-2.281-6.231-3.252-9.4-1.266-4.128-2.524-8.695-2.063-13.053a5.65,5.65,0,0,1,1.882-4.066c.638-.5.108.029.047-.161a2.172,2.172,0,0,0,.487.174,8.047,8.047,0,0,1,1.738,1.277,66.075,66.075,0,0,1,8.163,9.409c.723.945,1.418,1.918,2.178,2.834,1.22,1.47,3.307-.638,2.1-2.1" transform="translate(-2821.241 200.723)" fill="#42403f"/>
    <path id="Path_4652" data-name="Path 4652" d="M3745.072,696.861a56.5,56.5,0,0,0-.474,11.426c.147,4.8.412,9.586.42,14.386a1.484,1.484,0,0,0,2.965,0c-.009-4.659-.255-9.31-.407-13.966a54.554,54.554,0,0,1,.354-11.057c.324-1.866-2.532-2.668-2.859-.788" transform="translate(-2871.832 235.135)" fill="#42403f"/>
    <path id="Path_4653" data-name="Path 4653" d="M4107.494,1835.127a327.946,327.946,0,0,1-31.02,16.714c-1.714.837-.213,3.395,1.5,2.56a327.87,327.87,0,0,0,31.019-16.714c1.612-1.013.126-3.58-1.5-2.56" transform="translate(-3121.189 -622.504)" fill="#42403f"/>
    <path id="Path_4654" data-name="Path 4654" d="M3904.971,1428.532c1.138,24.919,3.032,49.8,5.2,74.652q.58,6.666,1.192,13.328c.173,1.885,3.139,1.9,2.965,0-1.987-21.7-3.767-43.416-5.136-65.162q-.719-11.4-1.251-22.819c-.087-1.9-3.053-1.911-2.965,0" transform="translate(-2992.632 -315.477)" fill="#42403f"/>
    <path id="Path_4655" data-name="Path 4655" d="M3509.5,780.938a35,35,0,0,0,15.588,6.586,33.514,33.514,0,0,0,17.612-1.333,22.981,22.981,0,0,0,8.292-5.416c1.325-1.374-.769-3.473-2.1-2.1-7.6,7.877-20.349,7.714-29.964,4.132a28,28,0,0,1-7.335-3.969,1.534,1.534,0,0,0-2.1,0,1.491,1.491,0,0,0,0,2.1" transform="translate(-2694.558 173.066)" fill="#42403f"/>
    <path id="Path_4656" data-name="Path 4656" d="M3239.266,1793.422c-5.179,19.57-6.687,40.155-7.343,60.32q-.264,8.138-.261,16.281a1.484,1.484,0,0,0,2.965,0c.007-19.988.893-40.15,4.148-59.9.882-5.351,1.961-10.671,3.349-15.916a1.484,1.484,0,0,0-2.859-.788" transform="translate(-2485.695 -590.489)" fill="#42403f"/>
    <path id="Path_4657" data-name="Path 4657" d="M3251.755,1846.576a34.877,34.877,0,0,0,23.276,4.354,31.217,31.217,0,0,0,19.22-11.527,34.232,34.232,0,0,0,6.07-12.6c.472-1.85-2.387-2.639-2.859-.788a29.75,29.75,0,0,1-12.246,17.771,29.379,29.379,0,0,1-19.961,4.417,33.111,33.111,0,0,1-12-4.186,1.484,1.484,0,0,0-1.5,2.56" transform="translate(-2500.279 -615.026)" fill="#42403f"/>
    <path id="Path_4658" data-name="Path 4658" d="M3579.572,1835.059c-.966,14.547-1.393,29.12-1.464,43.7q-.023,4.561-.016,9.122a1.483,1.483,0,0,0,2.965,0c0-12.889.129-25.774.7-38.652q.313-7.088.784-14.168c.126-1.905-2.839-1.9-2.965,0" transform="translate(-2746.524 -621.557)" fill="#42403f"/>
    <path id="Path_4659" data-name="Path 4659" d="M3605.246,1880.517c1.157-.367,2.38-.093,3.571-.246a4.545,4.545,0,0,0,2.619-1.186,7.651,7.651,0,0,0,1.606-2.417,32.186,32.186,0,0,0,2.179-8.372,166.77,166.77,0,0,0,1.588-21.93c.062-2.889.081-5.778.081-8.668a1.484,1.484,0,0,0-2.965,0c0,5.647-.083,11.3-.375,16.936-.33,6.351-.614,13.085-2.576,19.186a8.84,8.84,0,0,1-1.375,2.912c.183-.234-.181.2-.259.256a1.855,1.855,0,0,1-.874.361c-1.354.207-2.661-.12-4.008.308-1.812.575-1.038,3.439.788,2.859" transform="translate(-2765.597 -623.54)" fill="#42403f"/>
    <path id="Path_4660" data-name="Path 4660" d="M3928.617,1794.212c4.6,17.385,6.571,35.316,7.2,53.257.177,5.077.249,10.156.25,15.236a1.483,1.483,0,0,0,2.965,0c-.007-18.127-.944-36.312-4.19-54.174q-1.384-7.617-3.362-15.107a1.484,1.484,0,0,0-2.859.788" transform="translate(-3010.395 -590.491)" fill="#42403f"/>
    <path id="Path_4661" data-name="Path 4661" d="M3799.2,1844.018a31.654,31.654,0,0,1-21.138,4.03,28.553,28.553,0,0,1-17.576-10.5,31.31,31.31,0,0,1-5.5-11.536c-.472-1.847-3.332-1.064-2.859.788a32.829,32.829,0,0,0,13.485,19.461,32.22,32.22,0,0,0,22.063,4.84,35.982,35.982,0,0,0,13.018-4.527,1.484,1.484,0,0,0-1.5-2.561" transform="translate(-2877.523 -615.027)" fill="#42403f"/>
    <path id="Path_4662" data-name="Path 4662" d="M3417.295,434.685c-4.725.844-6.161,6.095-6.169,10.236-.009,4.57,1.248,9.87,4.369,13.351a6,6,0,0,0,5.773,2.136c1.865-.4,1.076-3.257-.789-2.859a2.388,2.388,0,0,1-1.33-.139,4.469,4.469,0,0,1-1.5-1.169,12.589,12.589,0,0,1-2.4-4.439c-1.183-3.5-1.813-7.847-.429-11.382a4.157,4.157,0,0,1,3.265-2.875c1.875-.335,1.081-3.193-.789-2.859" transform="translate(-2620.815 431.743)" fill="#42403f"/>
    <path id="Path_4663" data-name="Path 4663" d="M3736.783,443.413c.456,0,.286-.072.687.109-.162-.073.385.247.342.208a3.34,3.34,0,0,1,.85,1.282,12.539,12.539,0,0,1,.61,5.062c-.139,3.583-.954,7.729-3.1,10.691a3.754,3.754,0,0,1-1.352,1.227,1.17,1.17,0,0,1-.349.082.719.719,0,0,1-.525-.106c-1.708-.832-3.213,1.724-1.5,2.56,4.322,2.1,7.086-3,8.269-6.349,1.475-4.181,2.374-9.673.8-13.955-.776-2.111-2.363-3.775-4.738-3.777a1.483,1.483,0,0,0,0,2.965" transform="translate(-2862.171 427.383)" fill="#42403f"/>
    <path id="Path_4664" data-name="Path 4664" d="M3514.39,492.226c-.474,4.519-1.169,9.018-2,13.484a97.309,97.309,0,0,1-3.171,13.066c-2.4,7.149-6.779,13.642-13.477,17.363a30.115,30.115,0,0,1-23.825,2.2c-8.4-2.809-14.75-9.764-18.02-17.882-1.8-4.48-3.221-9.156-4.582-13.785a105.012,105.012,0,0,1-3.406-14.238c-.276-1.881-3.134-1.081-2.859.788a100.518,100.518,0,0,0,3.094,13.162c1.315,4.567,2.76,9.106,4.406,13.565,3.222,8.723,9.309,16.526,18,20.257a29.679,29.679,0,0,0,11.83,2.654,37.606,37.606,0,0,0,13.746-2.67c7.668-3.192,13.3-9.426,16.552-16.988a73.71,73.71,0,0,0,4.206-14.816c1.062-5.342,1.906-10.74,2.475-16.158.2-1.9-2.768-1.882-2.965,0" transform="translate(-2644.833 389.465)" fill="#42403f"/>
    <path id="Path_4665" data-name="Path 4665" d="M3474.165,405.53c-4.332,4.276-3.365,11.241,1.34,14.741a16.733,16.733,0,0,0,12.9,2.571c4.39-.837,8.409-3.745,9.485-8.25,1.22-5.113-1.64-9.556-6.309-11.587a16.648,16.648,0,0,0-17.418,2.525c-1.44,1.257.664,3.347,2.1,2.1a13.516,13.516,0,0,1,12.4-2.534c3.418.954,6.78,3.461,6.569,7.35-.417,7.707-10.464,9.188-16.14,6.527a8.681,8.681,0,0,1-3.968-3.414,6.69,6.69,0,0,1,1.136-7.93c1.36-1.342-.737-3.439-2.1-2.1" transform="translate(-2666.188 456.62)" fill="#42403f"/>
    <path id="Path_4666" data-name="Path 4666" d="M3637.483,404.405c3.333,3.289,2.078,8.413-1.648,10.7a14.008,14.008,0,0,1-9.939,1.606c-3.329-.69-6.355-2.667-7.184-6.134-.9-3.775,1.452-6.77,4.836-8.191a13.635,13.635,0,0,1,13.935,2.014c1.432,1.25,3.537-.839,2.1-2.1a16.585,16.585,0,0,0-15.549-3.221c-4.64,1.386-8.9,5.175-8.466,10.4.842,10.216,13.695,12.75,21.383,8.411a10.7,10.7,0,0,0,4.869-5.449,9.694,9.694,0,0,0-2.237-10.137c-1.359-1.342-3.457.754-2.1,2.1" transform="translate(-2774.714 459.054)" fill="#42403f"/>
    <path id="Path_4667" data-name="Path 4667" d="M3574.129,430.149a13.946,13.946,0,0,1,8.631-.148c1.829.562,2.61-2.3.789-2.859a16.718,16.718,0,0,0-10.208.148c-1.793.618-1.022,3.483.788,2.859" transform="translate(-2742.18 437.947)" fill="#42403f"/>
    <path id="Path_4668" data-name="Path 4668" d="M3513.585,237.614a54.677,54.677,0,0,0,1.9-12.306c.058-3.469-.248-6.934-.2-10.406.016-1.238.021-2.487.145-3.72.131-1.3.413-2.591.435-3.9.035-2.128-.516-4.2-2.547-5.177-.672-.324-1.419-.49-2.075-.843-.265-.142-.064.176-.081-.176a11.4,11.4,0,0,1-.04-1.272,13.072,13.072,0,0,0,.239-3.5c-.4-2.006-2.157-3.78-3.67-5.027a17.972,17.972,0,0,0-3.481-2.141,10.984,10.984,0,0,1-3.308-1.9l.434,1.048c.054.525-.446.83.116.324a2.019,2.019,0,0,0,.451-.6,2.548,2.548,0,0,0,.145-1.686,7.71,7.71,0,0,0-1.989-3.263,46.475,46.475,0,0,0-5.985-5.6,31.3,31.3,0,0,0-7.717-4.616,36.185,36.185,0,0,0-8.3-2.015,38.029,38.029,0,0,0-17.075,1.19,28.282,28.282,0,0,0-3.795,1.562c-1,.5-2.419,1.068-3.04,2.051a2.17,2.17,0,0,0,.1,2.388,6.1,6.1,0,0,0,1.554,1.625l.078.132q-.341-.85.153-1.045c-.051-.006-.306.2-.334.206-.34.1-.681.323-1.024.437a21.281,21.281,0,0,1-2.778.657,40.552,40.552,0,0,0-5.941,1.3,8.594,8.594,0,0,0-4.772,3.48c-1.208,2.025-.787,3.617.829,5.2a3.273,3.273,0,0,0,.483.478c.3.172-.023.328.081-.027.034-.12-.182.213-.21.232a19.228,19.228,0,0,1-2.046,1.4,54.486,54.486,0,0,0-5.187,2.718c-1.677,1.131-3.276,2.749-3.466,4.872-.21,2.361,1.667,3.393,2.851,5.081.592.844.071,1.434-.512,2.149a34.154,34.154,0,0,0-2.688,3.3c-1.717,2.731-.591,5.122.667,7.741.7,1.456.2,2.516.032,4.074a24.03,24.03,0,0,0,.016,4.494c.274,3.461.475,6.645-1.079,9.871-.825,1.711,1.73,3.217,2.56,1.5a16.733,16.733,0,0,0,1.683-5.955,35.1,35.1,0,0,0-.212-5.593,20.487,20.487,0,0,1,.265-5.755,6.836,6.836,0,0,0-1-4.712c-.732-1.448-1.31-2.676-.374-4.164.847-1.348,2.093-2.4,3-3.706a3.993,3.993,0,0,0,.572-4.039c-.561-1.261-1.69-2-2.48-3.084-1.509-2.067,2.352-4,3.746-4.708,2.111-1.071,4.909-1.953,6.261-4.042a2.8,2.8,0,0,0-.133-3.429c-.36-.46-.916-.8-1.24-1.278-.266-.39-.234-.412.015-.9,1.109-2.177,4.1-2.706,6.255-3.124,2.448-.474,5.213-.644,7.4-1.949,1.151-.686,1.873-1.865,1.159-3.168a4.843,4.843,0,0,0-.925-1.107c-.189-.183-.382-.37-.579-.546-.037-.033-.148-.2-.192-.2-.248-.04.119-.06.008.06l-.156.471q-.423.779.155.272a3.33,3.33,0,0,0,.472-.288q.636-.378,1.293-.713a21.957,21.957,0,0,1,2.543-1.1,29.863,29.863,0,0,1,5.678-1.419,37.836,37.836,0,0,1,11.656.154,28.579,28.579,0,0,1,10.714,3.7,41.384,41.384,0,0,1,8.749,7.481c.2.223.417.444.6.683s.431.934.649,1.089c-.054-.038.322.676.151-.06-.068-.294.178-.288-.165-.029a2,2,0,0,0-.687,1.013c-.471,1.853,2.162,2.888,3.443,3.534a17.285,17.285,0,0,1,5,3.283c.813.845,1.7,1.83,1.633,2.915-.126,2.065-1.112,5.121,1.461,6.447,1.149.592,2.586.569,2.87,2.038.408,2.114-.343,4.388-.43,6.51-.25,6.09.646,12.225-.35,18.272-.337,2.048-.8,4.073-1.3,6.086-.461,1.852,2.4,2.642,2.859.788" transform="translate(-2635.357 630.717)" fill="#42403f"/>
    <path id="Path_4669" data-name="Path 4669" d="M3550.746,653.791s20.585,2.366,25.181-1.464,12.4-9.882,12.4-9.882l1.258,18.112s3.9-11.516-12.141-5.2c-16.362,6.44-26.7-1.563-26.7-1.563" transform="translate(-2725.935 275.297)" fill="#42403f"/>
    <path id="Path_4670" data-name="Path 4670" d="M3621.95,286.651c-1.179,3.58,2.228,5.148,5.163,5.605a55.715,55.715,0,0,0,6.364.5c1.11.044,2.221.083,3.331.137.557.027,1.112.056,1.668.093.167.011,2.027.28,1.259-.418a15.458,15.458,0,0,0-1.521,1.541,3.5,3.5,0,0,0-.915,2.747c.364,2.518,3.084,3.163,5.184,3.4,1.269.141,1.933.354,2.381,1.62.344.973.655,1.944,1.054,2.9.777,1.855,1.686,3.649,2.555,5.462,2.274,4.747,3.771,9.553,3.333,14.876-.157,1.9,2.81,1.891,2.965,0a28.513,28.513,0,0,0-2.506-13.678c-.806-1.885-1.736-3.712-2.618-5.562-.863-1.812-1.438-3.69-2.2-5.536-1.034-2.51-3.1-2.765-5.5-3.1a2.97,2.97,0,0,1-1.345-.434c-.46-.327-.385-.262-.22-.679.264-.665,1.261-1.224,1.69-1.82a2.547,2.547,0,0,0-1.795-4.116,51.433,51.433,0,0,0-6.983-.4,35.7,35.7,0,0,1-6.6-.614,4.822,4.822,0,0,1-1.837-.726c-.16-.136-.161-.11-.194-.3a3.091,3.091,0,0,1,.147-.7c.6-1.817-2.265-2.6-2.859-.788" transform="translate(-2779.366 543.95)" fill="#42403f"/>
    <path id="Path_4671" data-name="Path 4671" d="M3480.163,285.341c-3.2.126-6.406.155-9.611.048a30.192,30.192,0,0,0-5.045.094c-3.748.5-7.45,1.967-10.994,3.217a12.982,12.982,0,0,0-2.327.918,1.529,1.529,0,0,0,.716,2.871q-.2-1.456-.394-2.912a5.2,5.2,0,0,0-3.3,3.139c-.578,1.391-.844,1.842-2.292,2.385-1.9.711-3.2,1.947-3.094,4.078a2,2,0,0,1-.646,1.822,9.893,9.893,0,0,0-1.567,2.026c-.989,1.958.144,3.883-.239,5.887-.405,2.117-2.1,3.723-3.612,5.124a24.83,24.83,0,0,0-6.168,9.253c-.673,1.788,2.192,2.561,2.859.788a23.335,23.335,0,0,1,5.994-8.484,13.519,13.519,0,0,0,3.446-4.8,7.732,7.732,0,0,0,.527-2.638c.016-.976-.327-1.925-.317-2.894.016-1.557,1.636-2.39,2.3-3.693a5.856,5.856,0,0,0,.37-2.595c.061-.844.834-.973,1.56-1.233a5.08,5.08,0,0,0,3.049-2.568c.522-1.064.658-2.306,1.912-2.743a1.49,1.49,0,0,0-.394-2.912l.976.413q.191.721.381,1.443c.059-.167-.679,1.066-.6.813,0-.013.083-.036.082-.044-.013-.056.337-.085,0-.008a9.231,9.231,0,0,0,1.007-.383c.862-.313,1.732-.607,2.6-.9,1.754-.586,3.515-1.159,5.284-1.7a22.352,22.352,0,0,1,7.916-.8c3.205.107,6.408.077,9.611-.048,1.9-.074,1.912-3.04,0-2.965" transform="translate(-2636.147 544.172)" fill="#42403f"/>
    <path id="Path_4672" data-name="Path 4672" d="M3576.459,434.28c-.828,5.025.793,10.2,2.085,15.028.159.594.321,1.188.472,1.784.1.383.512,1.332.387,1.705-.212.635-2.378,1.072-3.068,1.267a21.068,21.068,0,0,1-7.377.69c-1.9-.145-1.894,2.821,0,2.965a23.521,23.521,0,0,0,8.166-.8c2.32-.656,5.619-1.512,5.206-4.523-.785-5.72-3.981-11.442-3.011-17.332.307-1.867-2.549-2.67-2.859-.788" transform="translate(-2738.575 432.834)" fill="#42403f"/>
    <path id="Path_4673" data-name="Path 4673" d="M3717.6,438.807q-.479.011.306.107l.934.191,1.635.335,3.5.717c1.863.381,2.66-2.476.789-2.859l-4.67-.956c-1.314-.269-2.748-.822-3.991-.095a1.484,1.484,0,0,0,1.5,2.56" transform="translate(-2849.892 430.818)" fill="#42403f"/>
    <path id="Path_4674" data-name="Path 4674" d="M3431.886,433.125l9.653-1.771c1.875-.344,1.081-3.2-.788-2.859l-9.653,1.771c-1.874.344-1.08,3.2.789,2.859" transform="translate(-2635.045 436.403)" fill="#42403f"/>
    <path id="Path_4675" data-name="Path 4675" d="M3489.414,388.178a13.66,13.66,0,0,1,11.283-.645c1.789.672,2.561-2.193.789-2.859a16.577,16.577,0,0,0-13.567.944c-1.687.894-.19,3.454,1.5,2.56" transform="translate(-2678.073 470.149)" fill="#42403f"/>
    <path id="Path_4676" data-name="Path 4676" d="M3636.855,386.712a19.163,19.163,0,0,1,9.688-.236c1.856.436,2.647-2.422.788-2.859a22.349,22.349,0,0,0-11.265.236,1.484,1.484,0,0,0,.789,2.859" transform="translate(-2789.387 470.629)" fill="#42403f"/>
    <path id="Path_4677" data-name="Path 4677" d="M3521.721,430.541a11.519,11.519,0,0,0,.094,4.986c.448,1.854,3.308,1.069,2.859-.788a7.952,7.952,0,0,1-.095-3.409c.363-1.864-2.495-2.662-2.858-.788" transform="translate(-2703.91 435.646)" fill="#42403f"/>
    <path id="Path_4678" data-name="Path 4678" d="M3659.619,430.3v3.349a1.484,1.484,0,0,0,2.965,0V430.3a1.484,1.484,0,0,0-2.965,0" transform="translate(-2807.907 436.105)" fill="#42403f"/>
    <path id="Path_4679" data-name="Path 4679" d="M3538.449,544.723a25.894,25.894,0,0,0,28.23-3.892c1.427-1.272-.676-3.363-2.1-2.1a22.817,22.817,0,0,1-24.637,3.428c-1.709-.831-3.214,1.725-1.5,2.56" transform="translate(-2716.106 353.678)" fill="#42403f"/>
    <path id="Path_4680" data-name="Path 4680" d="M3584.831,592.292a27.311,27.311,0,0,1,9.051-2.127c1.9-.118,1.909-3.084,0-2.965a31.53,31.53,0,0,0-10.547,2.531c-1.749.749-.24,3.3,1.5,2.56" transform="translate(-2749.886 316.895)" fill="#42403f"/>
    <path id="Path_4732" data-name="Path 4732" d="M5076.213,773.235s2.291,4.051,9.511,5.284,13.561,1.057,17.788-.176a35.891,35.891,0,0,1,7.045-1.409s-7.574,5.636-16.027,6.869-19.2-2.29-19.2-2.29Z" transform="translate(-3873.808 176.825)" fill="#42403f"/>
    <path id="Path_4733" data-name="Path 4733" d="M5009.821,1725.624c-3.992,3.838-9.356,6.331-14.273,8.756a129.893,129.893,0,0,1-14.969,6.294q-3.962,1.372-8.012,2.469a19.845,19.845,0,0,0-2.722.95,7.1,7.1,0,0,1-1.6.3,5.212,5.212,0,0,0-1.633.643,8.7,8.7,0,0,1-1.63.4q-1.167.293-2.339.568-2.209.517-4.433.968-4.276.866-8.6,1.478a148.335,148.335,0,0,1-35.392.617,142.059,142.059,0,0,1-17.7-2.949,140.1,140.1,0,0,1-16.9-5.2q-4.564-1.681-9.058-3.548c-3-1.243-6.08-2.444-8.944-3.983-5.195-2.791-10.35-6.119-13.7-11.1-1.061-1.574-3.631-.092-2.561,1.5,6.4,9.5,17.855,13.873,28.069,17.922a178.127,178.127,0,0,0,17.1,5.982,135.274,135.274,0,0,0,18.342,3.705,149.486,149.486,0,0,0,54.558-2.53,38.005,38.005,0,0,0,4.1-1.026,5.619,5.619,0,0,0,.759-.364c1.007-.534.2-.123.2-.124.676-.239,1.449-.184,2.14-.4a7.33,7.33,0,0,0,.959-.469,10.762,10.762,0,0,1,1.763-.48q2.139-.58,4.258-1.237a131.78,131.78,0,0,0,17.841-7.052c5.686-2.723,11.871-5.578,16.463-9.993,1.378-1.325-.72-3.42-2.1-2.1" transform="translate(-3700.462 -537.222)" fill="#42403f"/>
    <path id="Path_4734" data-name="Path 4734" d="M5026.147,841.826a16.933,16.933,0,0,0-.4,8.949,13.821,13.821,0,0,0,7.11,8.428c1.673.918,3.171-1.641,1.5-2.56-2.8-1.534-5.063-3.738-5.812-6.921a14.068,14.068,0,0,1,.469-7.108,1.484,1.484,0,0,0-2.859-.788" transform="translate(-3836.145 125.967)" fill="#42403f"/>
    <path id="Path_4735" data-name="Path 4735" d="M5303.661,859.2a13.824,13.824,0,0,0,7.11-8.428,16.929,16.929,0,0,0-.4-8.949,1.484,1.484,0,0,0-2.859.788,14.074,14.074,0,0,1,.47,7.108c-.75,3.182-3.017,5.386-5.813,6.92-1.673.918-.178,3.479,1.5,2.56" transform="translate(-4044.04 125.966)" fill="#42403f"/>
    <path id="Path_4736" data-name="Path 4736" d="M5052.958,906.1c2.259,10.364,6.054,20.372,10.107,30.149,4.26,10.279,8.96,20.366,13.663,30.448,2.278,4.885,4.563,9.768,6.735,14.7.768,1.742,3.323.235,2.56-1.5-8.54-19.395-18.383-38.236-25.434-58.261a137.348,137.348,0,0,1-4.772-16.328c-.406-1.864-3.265-1.075-2.859.788" transform="translate(-3856.932 78.185)" fill="#42403f"/>
    <path id="Path_4737" data-name="Path 4737" d="M4843.848,908.015a299.226,299.226,0,0,1-1.039-39.862,50.616,50.616,0,0,0-.151-7.417c-.254-2.222-.533-5.071-2.1-6.815a3.293,3.293,0,0,0-3.227-1.019,4.187,4.187,0,0,0-3.1,3.064,44.983,44.983,0,0,0-1.686,7.919c-.992,6.8-1.37,13.658-2.121,20.483-.208,1.894,2.758,1.879,2.965,0,.6-5.439.941-10.9,1.579-16.338.32-2.726.7-5.453,1.28-8.136a20.362,20.362,0,0,1,.878-3.249c.2-.5.488-.9,1.1-.866.188.012-.133-.1.005-.005a.889.889,0,0,1,.259.315c1.083,1.609,1.186,4.1,1.332,5.976a69.082,69.082,0,0,1-.019,7.478c-.2,6.6-.312,13.2-.148,19.8.154,6.241.6,12.465,1.23,18.675.191,1.88,3.158,1.9,2.965,0" transform="translate(-3689.403 116.903)" fill="#42403f"/>
    <path id="Path_4738" data-name="Path 4738" d="M4796.415,868.775c-.353.095.248.107-.148.022-.287-.062.357.1-.1-.043.333.1.25.1.143.049-.212-.1-.058-.159.034.046-.023-.051-.493-.563-.194-.163a4.947,4.947,0,0,1-.922-2.181,43.9,43.9,0,0,1-1.121-7.984c-.5-6.186-.459-12.578-1.848-18.653-.433-1.894-1.1-4.256-2.864-5.351a2.891,2.891,0,0,0-4.421,1.658c-.829,2.262-.794,4.94-.846,7.315-.076,3.466.026,6.935.13,10.4.115,3.8.277,7.6.279,11.406,0,1.386-.01,2.779-.132,4.16a4.418,4.418,0,0,1-.161,1.129c-.041.174-.126.354-.154.528.03-.187-.014-.076.127-.224-1.322,1.377.772,3.477,2.1,2.1,1.243-1.3,1.108-3.768,1.159-5.417.1-3.125-.02-6.258-.116-9.382-.11-3.6-.244-7.2-.28-10.805a62.5,62.5,0,0,1,.292-8.4,11.783,11.783,0,0,1,.268-1.4c.047-.179.1-.355.16-.531.122-.362-.13.165.113-.231.168-.273-.217.077.032-.045.12-.058-.349.245-.3.177-.083.116-.184-.081.115.019-.6-.2.488.1-.087-.029.22.048.385.271.181.088a3.979,3.979,0,0,1,.339.347c-.149-.169.058.07.17.275s.233.427.334.649c.021.048.107.258.005.01.052.128.1.258.147.389.079.233.157.465.228.7.173.578.312,1.165.435,1.755,1.255,6.036,1.184,12.327,1.724,18.449.268,3.027.528,13.488,5.968,12.023a1.484,1.484,0,0,0-.788-2.859" transform="translate(-3654.309 131.068)" fill="#42403f"/>
    <path id="Path_4739" data-name="Path 4739" d="M4737.662,890.81c-.344-.009-.04.126-.4-.133.059.042.013.038-.17-.158a.969.969,0,0,1-.24-.3,11.1,11.1,0,0,1-1.222-2.928c-1.092-3.564-1.835-7.236-2.775-10.842a63.171,63.171,0,0,0-3.033-9.565c-.887-2.022-2.191-4.981-4.5-5.708-2.51-.79-4.529,2.083-4.725,4.3a15.659,15.659,0,0,0,.721,4.833c1.281,5.32,2.965,10.536,4.258,15.854a48.4,48.4,0,0,1,1.479,8.177,15.5,15.5,0,0,1,.032,1.7,3.384,3.384,0,0,1-.128,1.079c-.047.176-.09.35-.153.52-.1.259,0,0,.021-.048a1.3,1.3,0,0,1-.15.273c-.088.117.1-.162-.14.139.217-.276-.235.066.1-.059-1.771.664-1,3.531.789,2.859,3.887-1.457,2.61-7.471,2.07-10.519-.981-5.536-2.651-10.937-4.148-16.348-.594-2.147-1.21-4.3-1.618-6.495q-.059-.316-.109-.634c-.06-.385,0,.124-.031-.233-.027-.29-.031-.574-.042-.864-.013-.389-.094.245,0-.016.063-.184.123-.367.2-.547a4.537,4.537,0,0,1,.762-1.171c-.058.05-.122-.082.13.141a7.229,7.229,0,0,1,.793.861,17.089,17.089,0,0,1,1.833,3.4,63.251,63.251,0,0,1,2.891,9.46c.984,3.822,1.683,7.8,3.042,11.512.764,2.088,1.954,4.356,4.472,4.419,1.909.048,1.908-2.917,0-2.965" transform="translate(-3606.702 110.712)" fill="#42403f"/>
    <path id="Path_4740" data-name="Path 4740" d="M4697.708,943.246c-1.395-.055-2.193-1.755-2.706-2.837a43.839,43.839,0,0,1-1.665-4.632c-.736-2.151-1.382-4.331-2.183-6.46-.914-2.422-1.931-5.438-3.947-7.193-2.621-2.279-5.178.426-5.505,3.2-.414,3.494,1.134,6.989,2.015,10.3,1.052,3.967,2.406,7.853,3.719,11.739,1.39,4.115,2.807,8.227,4,12.405.5,1.75.964,3.514,1.3,5.3.4,2.119.578,4.272.979,6.393.987,5.212,2.96,13.14,9.313,13.928,1.889.234,1.873-2.733,0-2.965.4.049-.441-.115-.62-.167-.275-.08-.235-.084-.192-.064a5.509,5.509,0,0,1-.552-.292,5.87,5.87,0,0,1-1.552-1.442c-1.806-2.354-2.612-5.458-3.236-8.3-.827-3.769-1.1-7.607-2.078-11.346-1.014-3.867-2.288-7.664-3.561-11.451s-2.588-7.557-3.754-11.376c-.934-3.059-1.966-6.208-2.611-9.341a6.185,6.185,0,0,1,.235-4.333c.157-.281.221-.074.06-.12.139.04-.143-.11-.126-.006.009.051.014-.033.2.131-.149-.129.29.308.367.4,1.553,1.83,2.428,4.6,3.227,6.885s1.5,4.579,2.265,6.864c1.058,3.176,2.639,7.583,6.6,7.741,1.908.076,1.9-2.89,0-2.965" transform="translate(-3577.388 65.368)" fill="#42403f"/>
    <path id="Path_4741" data-name="Path 4741" d="M4826.146,1044.523c5.563-.263,11.078.135,16.216-2.413,3.966-1.967,7.406-5.036,11.6-6.538a11.478,11.478,0,0,1,6.465-.511,5.807,5.807,0,0,1,2.9,1.332,3.993,3.993,0,0,1,.523.757c-.045-.07.054-.11-.012-.034-.252.295.063,0-.232.312-.14.148-.287.289-.439.425a10.849,10.849,0,0,1-1.456,1.048,43.4,43.4,0,0,1-4.2,2.285c-3.158,1.547-6.4,2.906-9.608,4.355a36.055,36.055,0,0,0-7.664,4.685,77.764,77.764,0,0,0-18.227,20.959,79.1,79.1,0,0,0-11.117,33.069c-.187,1.9,2.779,1.884,2.965,0a76.8,76.8,0,0,1,28.842-52.217c5.288-4.064,11.843-5.957,17.72-9,2.071-1.073,5.409-2.556,6.226-4.974.6-1.767-.67-3.454-2.049-4.442a11.527,11.527,0,0,0-6.8-1.784c-5.284.12-9.6,3.37-13.923,6.018a21.769,21.769,0,0,1-7.756,3.209c-3.283.562-6.664.339-9.979.5-1.9.09-1.911,3.055,0,2.965" transform="translate(-3674.708 -17.874)" fill="#42403f"/>
    <path id="Path_4742" data-name="Path 4742" d="M4710.021,1163.888a128.516,128.516,0,0,1-4.172,16.438,53.336,53.336,0,0,1-6.55,12.834c-1.086,1.575,1.482,3.059,2.561,1.5,6.226-9.026,8.85-19.375,11.02-29.98.382-1.863-2.476-2.66-2.858-.788" transform="translate(-3590.492 -116.496)" fill="#42403f"/>
    <path id="Path_4743" data-name="Path 4743" d="M4774.068,1320.56c-.014,4.818-.253,10.067-3.427,13.978a29.76,29.76,0,0,1-3.927,3.648c-1.405,1.2-2.835,2.366-4.248,3.554-1.463,1.228.644,3.316,2.1,2.1,2.962-2.485,6.4-4.815,8.74-7.923,3.316-4.4,3.716-10.031,3.73-15.353a1.483,1.483,0,0,0-2.965,0" transform="translate(-3637.875 -234.182)" fill="#42403f"/>
    <path id="Path_4744" data-name="Path 4744" d="M4701.094,1313.929c-11.4-4.019-13.978-19.352-8.372-29.018a1.484,1.484,0,0,0-2.562-1.5c-4.919,8.483-4.372,20.91,2.314,28.311a18.9,18.9,0,0,0,7.83,5.063c1.8.635,2.579-2.228.789-2.859" transform="translate(-3581.352 -206.752)" fill="#42403f"/>
    <path id="Path_4745" data-name="Path 4745" d="M4851.564,1202.686q-3.977,28.905-6.264,58c-1.095,13.866-1.887,27.76-3.272,41.6a133.348,133.348,0,0,1-2.048,13.459,43.712,43.712,0,0,0-1.091,8.664,23.064,23.064,0,0,0,.285,4.25,14.556,14.556,0,0,0,1.5,3.607c.854,1.708,3.412.207,2.561-1.5a10.023,10.023,0,0,1-1.191-2.9,24.18,24.18,0,0,1-.188-3.909,42.8,42.8,0,0,1,1.068-7.861,122.587,122.587,0,0,0,1.9-12.225c.665-6.4,1.181-12.81,1.66-19.225,1.153-15.454,2.218-30.912,3.771-46.333q1.758-17.458,4.162-34.842a1.536,1.536,0,0,0-1.035-1.824,1.493,1.493,0,0,0-1.824,1.036" transform="translate(-3695.787 -145.697)" fill="#42403f"/>
    <path id="Path_4746" data-name="Path 4746" d="M4683.694,1325.736c-6.515,8.89-14.3,17.669-24.131,22.964-5.717,3.08-12.909,5.047-19.118,2.186s-9.5-9.345-11.041-15.7a53.137,53.137,0,0,1-1.312-13.6,30.8,30.8,0,0,1,1.689-10.37,52.665,52.665,0,0,1,5.837-10.449c3.5-5.269,7.131-10.45,10.578-15.756,1.042-1.6-1.523-3.093-2.56-1.5-3.307,5.09-6.774,10.07-10.149,15.114a64.654,64.654,0,0,0-5.878,10.11,29.565,29.565,0,0,0-2.377,10.083,60.977,60.977,0,0,0,.876,15.143c1.4,7.251,4.772,14.8,11.373,18.705,6.346,3.753,13.947,2.893,20.47.089,11.771-5.059,20.893-15.421,28.3-25.53,1.129-1.541-1.442-3.022-2.56-1.5" transform="translate(-3534.829 -206.856)" fill="#42403f"/>
    <path id="Path_4747" data-name="Path 4747" d="M4743.16,1409.5a68.693,68.693,0,0,0-2.914,9.168c-.846,2.928-1.507,6.312-3.008,8.951l2.71.354a67.584,67.584,0,0,1-.263-8.81c0-2.968.094-5.951-.057-8.916-.1-1.9-3.062-1.91-2.965,0,.313,6.137-.485,12.416.426,18.513.194,1.3,2.127,1.378,2.71.354,1.553-2.733,2.266-6.074,3.134-9.067.522-1.8,1.032-3.607,1.571-5.4.348-1.157.847-2.829,1.215-3.649.776-1.727-1.778-3.236-2.56-1.5" transform="translate(-3618.801 -301.644)" fill="#42403f"/>
    <path id="Path_4748" data-name="Path 4748" d="M4667.213,1443.758c-4.56-.845-9.631-1.919-13.132-5.192-3.679-3.439-4.868-8.639-5.6-13.43-.289-1.88-3.146-1.082-2.859.788.815,5.3,2.311,10.948,6.366,14.739,3.907,3.652,9.327,5.006,14.44,5.954,1.866.346,2.665-2.511.789-2.859" transform="translate(-3550.256 -313.188)" fill="#42403f"/>
    <path id="Path_4749" data-name="Path 4749" d="M4805.81,1359.124c.2,4.37.475,8.761.325,13.137a77.255,77.255,0,0,1-1.205,10.192c-.315,1.866,2.541,2.669,2.858.788a83.894,83.894,0,0,0,1.3-10.732c.172-4.458-.111-8.933-.315-13.385-.087-1.9-3.053-1.911-2.966,0" transform="translate(-3670.201 -263.219)" fill="#42403f"/>
    <path id="Path_4750" data-name="Path 4750" d="M4745.435,1454.509c-2.173,2.964-4.4,6.078-7.358,8.315a17.917,17.917,0,0,1-10.958,3.322,1.483,1.483,0,0,0,0,2.965,20.777,20.777,0,0,0,12.454-3.727c3.414-2.531,5.933-5.984,8.422-9.379,1.129-1.541-1.442-3.022-2.56-1.5" transform="translate(-3610.557 -335.628)" fill="#42403f"/>
    <path id="Path_4751" data-name="Path 4751" d="M4914.354,840.582c-12.921,4.06-26.071,7.924-38.154,14.152-1.7.875-.2,3.434,1.5,2.56,11.854-6.109,24.772-9.87,37.446-13.853,1.813-.57,1.04-3.433-.788-2.859" transform="translate(-3723.316 126.176)" fill="#42403f"/>
    <path id="Path_4752" data-name="Path 4752" d="M5178.67,981.4c8.648-19.634,18.9-38.556,26.207-58.771a130.663,130.663,0,0,0,4.92-16.526c.406-1.86-2.452-2.655-2.859-.788-2.242,10.286-6.089,20.21-10.2,29.873-4.336,10.184-9.13,20.165-13.88,30.16-2.3,4.83-4.588,9.662-6.744,14.556-.762,1.73,1.792,3.241,2.56,1.5" transform="translate(-3949.576 78.186)" fill="#42403f"/>
    <path id="Path_4753" data-name="Path 4753" d="M5494.552,884.342c-.656-5.959-1.011-11.947-1.771-17.9a71.42,71.42,0,0,0-1.514-8.716,8.322,8.322,0,0,0-1.532-3.687,3.845,3.845,0,0,0-4.174-1c-2.047.877-2.633,3.685-2.968,5.64a35.72,35.72,0,0,0-.525,6.624c.131,7.39.449,14.764.323,22.159-.117,6.859-.577,13.7-1.269,20.52-.192,1.9,2.774,1.883,2.965,0a280.841,280.841,0,0,0,1.162-35.57c-.125-4.953-.818-10.393.735-15.218a4.625,4.625,0,0,1,.448-1.053c.08-.128.137-.209.192-.284.165-.22.17-.112.079-.1,1.138-.176,1.354,1.459,1.57,2.247a59.107,59.107,0,0,1,1.453,7.751c.828,6.172,1.177,12.391,1.858,18.579.207,1.876,3.174,1.9,2.966,0" transform="translate(-4179.322 116.931)" fill="#42403f"/>
    <path id="Path_4754" data-name="Path 4754" d="M5537.684,870.9c.137.142.106.082.094.143-.037.183-.035-.091-.076-.267-.038-.159-.071-.318-.1-.478-.019-.091-.031-.183-.044-.274,0-.012.017.176-.018-.153-.118-1.156-.152-2.318-.167-3.479-.039-3.316.089-6.634.194-9.948.113-3.567.236-7.135.233-10.7a43.493,43.493,0,0,0-.535-8.307c-.37-1.879-1.364-3.776-3.6-3.346-2,.384-2.977,2.364-3.561,4.117a37.688,37.688,0,0,0-1.419,8.288c-.314,3.261-.491,6.533-.72,9.8a63.579,63.579,0,0,1-1.086,9.4,15.917,15.917,0,0,1-.469,1.712,3.84,3.84,0,0,1-.487,1.05c-.244.424.044-.018-.174.235-.3.344.119,0-.154.132s.314-.177.071-.024c-.3.187.148-.07.053.014a.486.486,0,0,1-.2,0c-.25-.047.384.089-.028-.021a1.484,1.484,0,0,0-.788,2.859c4.876,1.313,5.44-7.008,5.762-9.929.683-6.192.646-12.469,1.589-18.632a27.122,27.122,0,0,1,.774-3.667c.07-.236.149-.468.228-.7a2.589,2.589,0,0,1,.152-.4c.085-.186.175-.37.276-.548.065-.114.447-.635.2-.337a3.982,3.982,0,0,1,.372-.386c-.175.158-.084-.016.143-.068-.355.081.047.09.173-.024,0,0-.4.063-.133.03.306-.04.023-.02.026-.016.088.127-.457-.244-.3-.176.269.117-.142-.238.031.045.221.36.026-.005.079.136.076.205.139.414.194.626a31.165,31.165,0,0,1,.565,7.45c.023,3.545-.095,7.09-.207,10.633-.115,3.661-.271,7.328-.214,10.992.029,1.856-.229,4.854,1.18,6.322,1.324,1.379,3.419-.719,2.1-2.1" transform="translate(-4211.347 131.058)" fill="#42403f"/>
    <path id="Path_4755" data-name="Path 4755" d="M5582.876,897.9c.454.17-.031.021-.059-.06.148.452-.093-.229.014-.011a1.175,1.175,0,0,1-.2-.458,7.065,7.065,0,0,1-.213-2.282,36.152,36.152,0,0,1,1.038-6.928c1.216-5.481,2.906-10.838,4.323-16.267a31.166,31.166,0,0,0,1.137-5.647c.133-1.947-1.095-4.609-3.091-5.166-2.552-.71-4.354,2.2-5.339,4.077a39.1,39.1,0,0,0-2.848,7.614c-1.254,4.434-2.208,8.944-3.442,13.382a15.966,15.966,0,0,1-1.336,3.681,2.318,2.318,0,0,1-.67.843c.3-.276-.461.22-.051.02-.314.153.071.047-.295.056-1.905.048-1.912,3.014,0,2.965,2.081-.052,3.309-1.647,4.07-3.413a57.606,57.606,0,0,0,2.6-9.136,106.631,106.631,0,0,1,3.113-11.263c.693-1.893,1.7-4.6,3.187-5.792.278-.223.128-.086.3-.175-.108.057-.09-.046-.054,0-.165-.227.155.166.172.194a8.1,8.1,0,0,1,.5.867c.094.2.162.406.24.611.12.317,0-.306,0,.007,0,.285-.01.563-.033.847-.034.419.021-.076-.036.292-.029.188-.062.375-.1.561-.082.453-.179.9-.279,1.351-.246,1.092-.527,2.176-.816,3.256-1.448,5.416-3.125,10.777-4.283,16.266a31.269,31.269,0,0,0-.957,7.875c.1,1.942.641,3.943,2.627,4.687,1.789.671,2.563-2.194.789-2.859" transform="translate(-4246.555 110.765)" fill="#42403f"/>
    <path id="Path_4756" data-name="Path 4756" d="M5593.434,985.2c5.233-.65,7.434-6.276,8.6-10.747,1.049-4.006,1.267-8.15,2.26-12.162,1-4.054,2.34-8.025,3.669-11.982,1.376-4.1,2.811-8.183,4.053-12.327a67.215,67.215,0,0,0,2.675-10.221c.317-2.41-.358-7.566-4.007-6.639-2.376.6-3.63,3.778-4.486,5.78-1.125,2.632-1.954,5.354-2.862,8.063-.522,1.558-.985,3.155-1.622,4.672-.511,1.217-1.392,3.35-2.963,3.413-1.9.076-1.912,3.041,0,2.965,3.514-.14,5.136-3.666,6.188-6.539.754-2.06,1.386-4.166,2.067-6.25a40.1,40.1,0,0,1,3.036-7.476,8.753,8.753,0,0,1,.8-1.224c.139-.163.3-.3.445-.454,0,0,.07-.057.07-.058-.012-.023.476-.083-.008-.012-.256.037-.045-.024-.063,0-.08.1-.158-.232.06.121a3.429,3.429,0,0,1,.5,1.839c.063,3.108-1.306,6.26-2.119,9.224-1.02,3.718-2.279,7.37-3.514,11.021-1.321,3.913-2.665,7.823-3.827,11.787a83.948,83.948,0,0,0-2.194,10.675c-.586,3.688-1.347,7.691-3.374,10.9a7.715,7.715,0,0,1-1.755,1.965c-.179.121-.364.227-.553.334-.071.04-.146.075-.22.11-.357.172.28-.093-.084.033-.18.062-.359.112-.542.164-.106.03-.672.113-.242.06-1.868.232-1.892,3.2,0,2.965" transform="translate(-4262.827 65.558)" fill="#42403f"/>
    <path id="Path_4757" data-name="Path 4757" d="M5384.673,1104.3a80.262,80.262,0,0,0-27.032-52.123,38.012,38.012,0,0,0-8.153-5.745c-3.029-1.455-6.143-2.729-9.194-4.138-2.623-1.211-5.666-2.462-7.832-4.342a4.373,4.373,0,0,1-.733-.79c-.026-.036-.012-.053-.027-.025-.078.145.41-.572.539-.7,1.539-1.516,4.34-1.744,6.375-1.541,4.9.49,8.942,4.107,13.074,6.447a22.135,22.135,0,0,0,8.217,2.807c3.159.4,6.349.269,9.521.418,1.908.09,1.9-2.875,0-2.965-2.885-.136-5.788-.017-8.664-.318a19.182,19.182,0,0,1-7.578-2.5c-3.991-2.259-7.681-5.322-12.21-6.459a14.156,14.156,0,0,0-6.99.012c-2.127.548-4.589,1.845-5.138,4.174-.61,2.591,2.414,4.364,4.269,5.456a92.322,92.322,0,0,0,9.625,4.658,51.152,51.152,0,0,1,7.678,3.682c7.751,5.135,14.242,12.55,19.256,20.307a76.18,76.18,0,0,1,12.033,33.686c.185,1.882,3.152,1.9,2.965,0" transform="translate(-4064.621 -17.92)" fill="#42403f"/>
    <path id="Path_4758" data-name="Path 4758" d="M5624.362,1193.16a53.452,53.452,0,0,1-6.55-12.834,128.133,128.133,0,0,1-4.171-16.437c-.383-1.868-3.24-1.078-2.859.788,2.17,10.605,4.795,20.954,11.02,29.98,1.077,1.561,3.648.08,2.561-1.5" transform="translate(-4276.923 -116.497)" fill="#42403f"/>
    <path id="Path_4759" data-name="Path 4759" d="M5557.588,1341.74c-1.377-1.155-2.768-2.292-4.135-3.457a30.4,30.4,0,0,1-4.04-3.745c-3.175-3.91-3.414-9.16-3.427-13.978a1.483,1.483,0,0,0-2.965,0c.016,5.321.414,10.953,3.73,15.353,2.344,3.109,5.778,5.438,8.74,7.924,1.452,1.219,3.56-.868,2.1-2.1" transform="translate(-4225.932 -234.182)" fill="#42403f"/>
    <path id="Path_4760" data-name="Path 4760" d="M5626.885,1284.912c5.6,9.665,3.031,25-8.372,29.017-1.787.63-1.018,3.5.788,2.859a19.119,19.119,0,0,0,11.42-10.758,26.723,26.723,0,0,0,1.434-15.107,23.371,23.371,0,0,0-2.709-7.509,1.484,1.484,0,0,0-2.561,1.5" transform="translate(-4282.007 -206.753)" fill="#42403f"/>
    <path id="Path_4761" data-name="Path 4761" d="M5477.667,1336.439c1.794-1.262,1.757-4.167,1.811-6.118a81.571,81.571,0,0,0-.908-12.766c-.625-4.789-1.468-9.525-1.959-14.331q-.546-5.347-.978-10.7c-1.394-16.919-2.406-33.863-4.045-50.762q-1.9-19.576-4.608-39.06a1.493,1.493,0,0,0-1.823-1.035,1.521,1.521,0,0,0-1.036,1.824c2.836,20.607,4.961,41.292,6.531,62.033.584,7.723,1.107,15.451,1.71,23.173.281,3.606.581,7.211.92,10.812.341,3.629.6,7.308,1.224,10.9a127.263,127.263,0,0,1,1.982,16.861,32.561,32.561,0,0,1-.11,5.146c-.028.224-.161.891-.271,1.31-.125.47.06-.08-.1.254-.114.242.04-.011.163-.1-1.549,1.09-.069,3.661,1.5,2.56" transform="translate(-4166.511 -145.71)" fill="#42403f"/>
    <path id="Path_4762" data-name="Path 4762" d="M5532.576,1285.016c3.134,4.824,6.4,9.555,9.618,14.324a75.914,75.914,0,0,1,5.942,9.87,25.574,25.574,0,0,1,2.39,8.9,57.353,57.353,0,0,1-.559,14.185c-1.146,6.636-3.84,13.867-9.817,17.607-5.58,3.492-12.426,2.677-18.217.139-11.127-4.879-19.82-14.7-26.854-24.3-1.116-1.523-3.69-.046-2.561,1.5,6.866,9.369,15.046,18.655,25.457,24.168,6.479,3.431,14.28,5.305,21.28,2.3,6.816-2.929,10.8-9.724,12.688-16.618a53.7,53.7,0,0,0,1.716-14.233,36.121,36.121,0,0,0-1.552-11.694,50.374,50.374,0,0,0-5.977-11.249c-3.619-5.493-7.411-10.869-11-16.385-1.036-1.594-3.6-.11-2.56,1.5" transform="translate(-4187.698 -206.857)" fill="#42403f"/>
    <path id="Path_4763" data-name="Path 4763" d="M5598.2,1410.252c-.151,2.965-.056,5.948-.058,8.916a67.755,67.755,0,0,1-.262,8.809l2.709-.354c-1.5-2.64-2.16-6.023-3.007-8.951a68.838,68.838,0,0,0-2.913-9.168c-.781-1.737-3.337-.231-2.561,1.5.066.15.343.9.487,1.335.244.724.468,1.455.688,2.186.554,1.839,1.075,3.688,1.61,5.532.867,2.992,1.581,6.334,3.135,9.066.577,1.017,2.514.952,2.709-.354.911-6.1.113-12.376.426-18.513.1-1.907-2.868-1.9-2.965,0" transform="translate(-4262.782 -301.646)" fill="#42403f"/>
    <path id="Path_4764" data-name="Path 4764" d="M5648.347,1425.135c-.736,4.791-1.925,9.991-5.6,13.43-3.5,3.272-8.573,4.346-13.132,5.192-1.873.348-1.08,3.206.789,2.859,5.112-.948,10.532-2.3,14.44-5.954,4.056-3.791,5.551-9.436,6.366-14.739.287-1.867-2.569-2.671-2.859-.788" transform="translate(-4290.321 -313.187)" fill="#42403f"/>
    <path id="Path_4765" data-name="Path 4765" d="M5548.1,1382.453a77.089,77.089,0,0,1-1.206-10.192c-.15-4.376.125-8.767.325-13.137.087-1.908-2.878-1.9-2.965,0-.2,4.452-.486,8.927-.315,13.385a84.062,84.062,0,0,0,1.3,10.732c.316,1.878,3.174,1.081,2.859-.788" transform="translate(-4226.586 -263.218)" fill="#42403f"/>
    <path id="Path_4766" data-name="Path 4766" d="M5570,1466.148a17.912,17.912,0,0,1-10.958-3.322c-2.963-2.237-5.186-5.352-7.358-8.315-1.118-1.523-3.691-.046-2.561,1.5,2.49,3.4,5.008,6.848,8.423,9.379a20.776,20.776,0,0,0,12.454,3.727,1.484,1.484,0,0,0,0-2.965" transform="translate(-4230.315 -335.63)" fill="#42403f"/>
    <path id="Path_4767" data-name="Path 4767" d="M5361.594,853.915c-12.467-6.421-26.167-10.235-39.49-14.421-1.825-.573-2.605,2.288-.789,2.859,13.076,4.108,26.547,7.821,38.782,14.122,1.694.872,3.2-1.685,1.5-2.56" transform="translate(-4058.232 126.995)" fill="#42403f"/>
    <path id="Path_4768" data-name="Path 4768" d="M4837.721,1751.586c-3.293,10.54-6.351,21.1-8.145,32.016a135.1,135.1,0,0,0-1.345,35.535,164.2,164.2,0,0,0,3.326,19.694c.422,1.861,3.28,1.073,2.859-.788a140.5,140.5,0,0,1-3.819-34.694,150.737,150.737,0,0,1,4.938-33.749c1.5-5.793,3.261-11.515,5.045-17.226.571-1.826-2.291-2.606-2.859-.788" transform="translate(-3687.3 -559.004)" fill="#42403f"/>
    <path id="Path_4769" data-name="Path 4769" d="M5499.238,1748.774c6.945,21.717,9.159,44.824,8.046,67.537q-.469,9.572-1.77,19.08a1.536,1.536,0,0,0,1.035,1.824,1.491,1.491,0,0,0,1.823-1.035,212.22,212.22,0,0,0-1.458-69.285,165.7,165.7,0,0,0-4.816-18.908c-.579-1.81-3.444-1.036-2.859.788" transform="translate(-4192.908 -556.295)" fill="#42403f"/>
    <path id="Path_4770" data-name="Path 4770" d="M5099.568,1976.92c7.07,6.326,13.743,13.116,21.469,18.67,1.552,1.115,3.033-1.455,1.5-2.561-7.513-5.4-13.991-12.054-20.868-18.207-1.419-1.269-3.523.821-2.1,2.1" transform="translate(-3891.695 -727.562)" fill="#42403f"/>
    <path id="Path_4771" data-name="Path 4771" d="M5184.639,2050.524q-.022,6.376-.094,12.752a1.483,1.483,0,0,0,2.965,0q.069-6.375.095-12.752a1.484,1.484,0,0,0-2.966,0" transform="translate(-3956.035 -783.777)" fill="#42403f"/>
    <path id="Path_4772" data-name="Path 4772" d="M5187.44,2024.617c5.109-3.724,11.225-5.845,16.732-8.877,1.673-.92.178-3.482-1.5-2.56-5.509,3.032-11.624,5.153-16.733,8.877-1.526,1.113-.048,3.687,1.5,2.56" transform="translate(-3956.604 -756.59)" fill="#42403f"/>
    <path id="Path_4773" data-name="Path 4773" d="M4976.93,603.262c1.048,5.587,1.34,15.537,9.563,13.986,1.873-.353,1.08-3.212-.788-2.859-2.5.471-3.657-1.236-4.319-3.408a78.477,78.477,0,0,1-1.6-8.507c-.352-1.873-3.209-1.08-2.859.788" transform="translate(-3799.696 306.198)" fill="#42403f"/>
    <path id="Path_4774" data-name="Path 4774" d="M5008.641,644.064c2.208,10.3,5.772,21.127,13.2,28.91a30.477,30.477,0,0,0,22.556,9.215,56.166,56.166,0,0,0,16.292-2.814c1.816-.565,1.041-3.428-.789-2.859-8.191,2.547-17.237,4-25.552,1.154-7.846-2.686-13.337-9.152-16.937-16.393a76.136,76.136,0,0,1-5.911-18c-.4-1.865-3.258-1.076-2.859.788" transform="translate(-3823.565 275.474)" fill="#42403f"/>
    <path id="Path_4775" data-name="Path 4775" d="M5291.937,591.671a19.582,19.582,0,0,1,.073,7.6c-.355,1.575-1.071,3.432-2.94,3.468-1.905.036-1.912,3,0,2.965,7.052-.135,6.56-10.086,5.725-14.824-.331-1.876-3.188-1.081-2.858.788" transform="translate(-4033.653 314.926)" fill="#42403f"/>
    <path id="Path_4776" data-name="Path 4776" d="M5271.009,627.239c-.317,9.414-2.327,18.585-3.437,27.908-.813,6.834-1.006,14.43,3.69,20,2.89,3.429,7.159,5.373,11.364,6.646,1.83.554,2.612-2.307.789-2.859-3.534-1.07-7.055-2.62-9.606-5.373a14.45,14.45,0,0,1-3.5-7.912,39.948,39.948,0,0,1,.181-10.08c.474-4.138,1.214-8.242,1.84-12.358a137.167,137.167,0,0,0,1.645-15.972c.064-1.909-2.9-1.906-2.964,0" transform="translate(-4018.207 287.824)" fill="#42403f"/>
    <path id="Path_4777" data-name="Path 4777" d="M5023.811,317.33a42.3,42.3,0,0,0-21.855-1.441,44.191,44.191,0,0,0-18.541,8.92c-11.392,9.079-18.472,23.047-20.142,37.412a54.437,54.437,0,0,0,3.124,25.458c.668,1.768,3.535,1,2.858-.788a53.419,53.419,0,0,1,1.9-41.669c5.723-12,15.966-22.253,29.005-25.854a39.159,39.159,0,0,1,22.858.821c1.814.6,2.593-2.259.788-2.859" transform="translate(-3789.163 521.78)" fill="#42403f"/>
    <path id="Path_4778" data-name="Path 4778" d="M5186.165,357.08c-.651,3.284-1.162,6.607-1.962,9.859-.456,1.853,2.4,2.643,2.859.788.8-3.253,1.311-6.576,1.962-9.86.37-1.864-2.487-2.661-2.859-.788" transform="translate(-3955.739 490.956)" fill="#42403f"/>
    <path id="Path_4779" data-name="Path 4779" d="M5203.057,326.83c9.837,3.2,18.013,9.66,22.669,18.974,4.354,8.713,5.382,18.786,4.691,28.393a83.293,83.293,0,0,1-2.937,16.471,1.483,1.483,0,0,0,2.858.788,78.235,78.235,0,0,0,2.7-31.016c-1.317-10.089-5.273-19.909-12.762-27a43.043,43.043,0,0,0-16.428-9.468c-1.82-.592-2.6,2.271-.789,2.859" transform="translate(-3969.197 515.14)" fill="#42403f"/>
    <path id="Path_4780" data-name="Path 4780" d="M5128.212,577.491a80.693,80.693,0,0,1-.816,11.339c-.15,1.078-.316,2.153-.508,3.225a4.556,4.556,0,0,0-.172,1.731c.425,1.939,3.2,1.862,4.71,1.868a60.838,60.838,0,0,1,6.3-.1c1.895.206,1.88-2.761,0-2.965a42.66,42.66,0,0,0-5.384.088,14.663,14.663,0,0,1-2.763-.08,1.371,1.371,0,0,1-.439-.122c.076-.364.673,1.08.464,1.106a1.464,1.464,0,0,0,.03-.15,8.217,8.217,0,0,0,.335-1.934c.194-1.217.365-2.437.519-3.66a80.9,80.9,0,0,0,.685-10.35,1.484,1.484,0,0,0-2.965,0" transform="translate(-3912.463 325.28)" fill="#42403f"/>
    <path id="Path_4781" data-name="Path 4781" d="M5186.4,542.161a9.8,9.8,0,0,1,6-2.025,10.809,10.809,0,0,1,5.5,2.062c1.593,1.06,3.079-1.507,1.5-2.56a13.663,13.663,0,0,0-7-2.467,12.439,12.439,0,0,0-7.492,2.43c-1.559,1.079-.079,3.65,1.5,2.56" transform="translate(-3955.805 354.565)" fill="#42403f"/>
    <path id="Path_4782" data-name="Path 4782" d="M5015.928,395.639c-11.6-.389-25.5.766-33.244,10.627-6.412,8.165-6.886,19.085-9.912,28.64a37.237,37.237,0,0,1-4.5,9.549,46.235,46.235,0,0,1-9.02,9.587c-1.469,1.222.639,3.31,2.1,2.1,5.553-4.622,10.188-10.058,12.958-16.782,2.336-5.674,3.344-11.768,4.831-17.691a40.1,40.1,0,0,1,4.417-11.5,21.868,21.868,0,0,1,9.748-8.393c6.975-3.157,15.108-3.418,22.626-3.166,1.908.064,1.906-2.9,0-2.965" transform="translate(-3786.035 461.167)" fill="#42403f"/>
    <path id="Path_4783" data-name="Path 4783" d="M5053.639,543.033a9.806,9.806,0,0,1,6-2.025,10.792,10.792,0,0,1,5.5,2.062c1.594,1.06,3.081-1.507,1.5-2.56a13.654,13.654,0,0,0-7-2.467,12.444,12.444,0,0,0-7.492,2.43c-1.56,1.078-.078,3.649,1.5,2.56" transform="translate(-3855.849 353.909)" fill="#42403f"/>
    <path id="Path_4784" data-name="Path 4784" d="M5070.021,575.1a33.519,33.519,0,0,1,.05,4.582c-.068,1.909,2.9,1.906,2.966,0a33.519,33.519,0,0,0-.05-4.582,1.525,1.525,0,0,0-1.483-1.483,1.493,1.493,0,0,0-1.482,1.483" transform="translate(-3869.803 327.12)" fill="#42403f"/>
    <path id="Path_4785" data-name="Path 4785" d="M5205.3,565.263a39.453,39.453,0,0,0,.341,4.239,1.5,1.5,0,0,0,1.824,1.035,1.514,1.514,0,0,0,1.035-1.824,32.387,32.387,0,0,1-.236-3.45,1.521,1.521,0,0,0-1.482-1.483,1.494,1.494,0,0,0-1.483,1.483" transform="translate(-3971.656 334.525)" fill="#42403f"/>
    <path id="Path_4786" data-name="Path 4786" d="M5039.111,774.468c-.155,3.108-.288,6.455-1.64,9.32-1.512,3.206-4.447,4.973-7.735,6-1.815.566-1.041,3.429.788,2.859,3.892-1.213,7.5-3.376,9.392-7.123,1.717-3.407,1.974-7.307,2.161-11.053.1-1.907-2.87-1.9-2.965,0" transform="translate(-3838.699 176.973)" fill="#42403f"/>
    <path id="Path_4787" data-name="Path 4787" d="M5091.766,684.18a7.857,7.857,0,0,0,7.5,2.193c1.309-.226,2.593-.619,3.918-.741a19.035,19.035,0,0,1,4.014.074c2.022.244,4.025.837,6.078.736a14.985,14.985,0,0,0,7.424-2.836c1.586-1.046.1-3.615-1.5-2.56a11.91,11.91,0,0,1-6.314,2.441,40.614,40.614,0,0,1-5.39-.709,20.848,20.848,0,0,0-7,.316c-2.524.535-4.653,1.022-6.637-1.009-1.336-1.367-3.432.73-2.1,2.1" transform="translate(-3885.858 246.423)" fill="#42403f"/>
    <path id="Path_4788" data-name="Path 4788" d="M5131.933,700.092c-.111,3.005-2.686,3.617-5.265,3.66-3.034.051-6.018-.574-9.039-.7-1.908-.079-1.9,2.886,0,2.965,5.807.242,16.936,3.125,17.268-5.926.07-1.908-2.9-1.905-2.964,0" transform="translate(-3904.575 232.971)" fill="#42403f"/>
    <path id="Path_4789" data-name="Path 4789" d="M5208.488,408.823a20.064,20.064,0,0,1,9.984,8.739,34.314,34.314,0,0,1,3.508,11.994c.572,4.1.8,8.25,1.429,12.346.533,3.448,1.394,7.053,3.515,9.9,2.8,3.754,7.167,5.156,11.7,5.342,1.908.079,1.9-2.887,0-2.965-3.484-.143-7.043-1.139-9.194-3.946-2.089-2.724-2.763-6.335-3.243-9.66-1.186-8.218-1-16.918-5.1-24.4a23.294,23.294,0,0,0-11.813-10.2,1.494,1.494,0,0,0-1.825,1.035,1.519,1.519,0,0,0,1.036,1.824" transform="translate(-3973.238 453.407)" fill="#42403f"/>
    <path id="Path_4790" data-name="Path 4790" d="M5290.591,654.78c3.292,2.212,7.315,3.232,10.8,5.1,2.844,1.527,6.957,4.377,5.323,8.188-1.532,3.572-6.167,8.941-.751,11.569a31.436,31.436,0,0,0,3.436,1.318,9.026,9.026,0,0,1,2.948,1.33c1.255,1.08,1.541,3.227,1.679,4.762a29.441,29.441,0,0,1-2.768,15.626c-.889,1.687,1.67,3.187,2.561,1.5a32.734,32.734,0,0,0,3.265-14.762,17.482,17.482,0,0,0-1.107-6.9c-.915-2.153-2.5-3.19-4.63-4-1.205-.457-2.462-.8-3.641-1.32-.748-.332-1.43-.569-1.393-1.448a7.993,7.993,0,0,1,1.328-3.208c.594-1.058,1.247-2.09,1.737-3.2,1.958-4.439-.94-8.477-4.562-10.87-3.968-2.622-8.8-3.608-12.73-6.247-1.588-1.067-3.074,1.5-1.5,2.56" transform="translate(-4035.371 268.13)" fill="#42403f"/>
    <path id="Path_4791" data-name="Path 4791" d="M2042.776,844.541l1.726,6.41s8.169-.076,13.343-1.722a42.669,42.669,0,0,0,11.765-6.312s-11.052,2.832-15.351,3.156c-7.6.574-11.482-1.532-11.482-1.532" transform="translate(-1590.574 124.362)" fill="#42403f"/>
    <path id="Path_4792" data-name="Path 4792" d="M2190.532,597.107a9.591,9.591,0,0,1,.919-1.355,4.609,4.609,0,0,1,.825-.762,1.7,1.7,0,0,1,.2-.115c.34-.171-.292.121.043-.023a1.741,1.741,0,0,1,.391-.1c-.462.078.061,0,.181.039-.6-.19.357.2.079.045a3.7,3.7,0,0,1,.49.332c.146.137.281.279.416.426.23.252.043.02.245.311a12.233,12.233,0,0,1,1.3,2.5c1.549,4.051,2.332,9.256,1.1,13.3a3.947,3.947,0,0,1-1.133,1.977c.137-.123-.085.078-.288.18-.239.12.012.006.055-.011a2.46,2.46,0,0,1-.371.118c-.09.02-.351.06,0,.018a3.136,3.136,0,0,1-.358.02,1.042,1.042,0,0,1-.512-.052c-1.862-.389-2.658,2.469-.788,2.859,6.022,1.258,7.061-6.213,6.863-10.508a28.317,28.317,0,0,0-1.647-8.528c-.768-2.061-1.884-4.493-3.96-5.532-2.868-1.435-5.267,1.082-6.611,3.368a1.484,1.484,0,0,0,2.561,1.5" transform="translate(-1699.729 313.412)" fill="#42403f"/>
    <path id="Path_4793" data-name="Path 4793" d="M1947.283,490.655a68.975,68.975,0,0,0,14.907,6.712,94.709,94.709,0,0,0,12.478,2.76c7.491,1.245,14.812,2.592,20.986,7.336,4.886,3.754,8.672,8.8,11.966,13.95,1.025,1.6,3.592.117,2.561-1.5-5.365-8.389-12.048-16.156-21.616-19.687-7.424-2.74-15.523-2.982-23.14-5.018a65.583,65.583,0,0,1-16.644-7.117,1.484,1.484,0,0,0-1.5,2.56" transform="translate(-1518.141 391.674)" fill="#42403f"/>
    <path id="Path_4794" data-name="Path 4794" d="M1924.79,635.723c.805-3.581,5.3-5.525,8.569-4.059,1.727.775,3.236-1.78,1.5-2.56-4.917-2.205-11.665.232-12.925,5.831-.418,1.859,2.44,2.652,2.859.788" transform="translate(-1499.556 285.95)" fill="#42403f"/>
    <path id="Path_4795" data-name="Path 4795" d="M2033.04,841.985A44.738,44.738,0,0,1,2037.965,861a1.484,1.484,0,0,0,2.965,0,48.137,48.137,0,0,0-5.329-20.512c-.842-1.712-3.4-.211-2.561,1.5" transform="translate(-1583.118 126.759)" fill="#42403f"/>
    <path id="Path_4796" data-name="Path 4796" d="M1887.346,450.744a42.209,42.209,0,0,0-17,18.609c-3.757,8.463-4.311,18.167-2.558,27.2s7.118,17.158,7.654,26.467c.484,8.406-.042,16.878,1.773,25.167a29.279,29.279,0,0,0,4.691,11.067,26,26,0,0,0,10,8.082c1.715.813,3.221-1.742,1.5-2.56a23.575,23.575,0,0,1-8.643-6.628,24.941,24.941,0,0,1-4.257-8.978c-2.029-7.57-1.842-15.615-2.015-23.388a44.8,44.8,0,0,0-2.648-14.336c-1.372-3.839-3.027-7.566-4.17-11.486a44.812,44.812,0,0,1,.008-25.869c2.875-8.87,9.264-16,17.159-20.787,1.63-.988.141-3.553-1.5-2.56" transform="translate(-1458.11 419.8)" fill="#42403f"/>
    <path id="Path_4797" data-name="Path 4797" d="M1949.155,436.444a37.741,37.741,0,0,1,26.257-4.746c8.94,1.7,17.133,6.281,23.95,12.219a70.508,70.508,0,0,1,17.155,22.623c3.973,8.282,5.445,17.152,7.249,26.074a92.6,92.6,0,0,0,3.921,14.74c1.554,4.069,3.657,8.209,7.168,10.934,1.489,1.156,3.6-.928,2.1-2.1-3.114-2.417-5.022-6-6.406-9.625a86.972,86.972,0,0,1-3.641-13.374c-.954-4.587-1.742-9.209-2.794-13.775a68.989,68.989,0,0,0-4.44-13.1c-7.746-17.023-22.925-32.629-41.555-37.067a41,41,0,0,0-30.459,4.634,1.484,1.484,0,0,0,1.5,2.56" transform="translate(-1518.42 436.66)" fill="#42403f"/>
    <path id="Path_4798" data-name="Path 4798" d="M2233.091,793.678c5.688-2.834,11.549-5.307,17.309-7.989,1.729-.8.225-3.362-1.5-2.56-5.76,2.682-11.621,5.155-17.31,7.988-1.708.851-.208,3.409,1.5,2.56" transform="translate(-1732.169 169.491)" fill="#42403f"/>
    <path id="Path_4799" data-name="Path 4799" d="M1967.294,898.83c7.019-1.6,13.886-3.8,20.923-5.326,1.864-.4,1.075-3.263-.789-2.859-7.037,1.524-13.9,3.726-20.923,5.326-1.86.424-1.072,3.283.789,2.859" transform="translate(-1532.35 88.455)" fill="#42403f"/>
    <path id="Path_4800" data-name="Path 4800" d="M2035.954,578.466c1.441-5,5.679-8.045,10.921-7.238,1.866.287,2.671-2.57.788-2.859a12.9,12.9,0,0,0-9.271,1.693,13.412,13.412,0,0,0-5.3,7.616,1.484,1.484,0,0,0,2.859.788" transform="translate(-1583.236 331.224)" fill="#42403f"/>
    <path id="Path_4801" data-name="Path 4801" d="M2062.222,598.307a5.42,5.42,0,0,1,3.9-2.324c1.9-.065,1.912-3.03,0-2.965a8.144,8.144,0,0,0-5.993,3.192,1.529,1.529,0,0,0,0,2.1,1.492,1.492,0,0,0,2.1,0" transform="translate(-1603.322 312.512)" fill="#42403f"/>
    <path id="Path_4802" data-name="Path 4802" d="M2206.787,629.232a12.07,12.07,0,0,1,1.372,4.5c.315,1.878,3.173,1.081,2.859-.788a14.044,14.044,0,0,0-1.671-5.2c-1-1.619-3.569-.132-2.56,1.5" transform="translate(-1713.885 286.899)" fill="#42403f"/>
    <path id="Path_4803" data-name="Path 4803" d="M1945.491,656.463a38.853,38.853,0,0,1,2.282,3.9c.922,1.671,3.483.177,2.56-1.5a38.838,38.838,0,0,0-2.282-3.9,1.524,1.524,0,0,0-2.029-.532,1.494,1.494,0,0,0-.532,2.028" transform="translate(-1517.165 266.42)" fill="#42403f"/>
    <path id="Path_4804" data-name="Path 4804" d="M1911.651,497.166c-8.272,4.114-12.829,14.274-13.869,23.033-1.15,9.693,2.759,18.839,6.483,27.547,1.846,4.316,3.426,8.739,5.546,12.935a69.2,69.2,0,0,0,8.054,12.459,43.265,43.265,0,0,0,14.961,11.552c9.128,4.392,20.291,3,28.52-2.716,1.556-1.082.075-3.654-1.5-2.56a26.283,26.283,0,0,1-23.753,3.462,39.315,39.315,0,0,1-7.709-4.12,34.81,34.81,0,0,1-6.668-5.68c-6.077-6.618-10-14.746-13.311-23-3.257-8.128-7.531-16.263-7.852-25.2a31.437,31.437,0,0,1,3.3-14.859c2.07-4.254,4.971-8.146,9.289-10.293,1.708-.85.208-3.408-1.5-2.561" transform="translate(-1481.253 384.808)" fill="#42403f"/>
    <path id="Path_4805" data-name="Path 4805" d="M1994.38,906.711c2.1,4.692,6.63,7.83,11.184,9.866a65.031,65.031,0,0,0,19.56,4.791,124.447,124.447,0,0,0,45.589-3.559c6.541-1.778,13.336-4.174,18.764-8.352a1.535,1.535,0,0,0,.532-2.028,1.491,1.491,0,0,0-2.028-.532c-4.572,3.518-10.1,5.682-15.572,7.34a112.616,112.616,0,0,1-21.243,4.113,128.343,128.343,0,0,1-22.491.378,71.646,71.646,0,0,1-19.331-3.794c-5.011-1.837-10.179-4.746-12.4-9.72-.777-1.739-3.333-.232-2.56,1.5" transform="translate(-1554.028 78.038)" fill="#42403f"/>
    <path id="Path_4806" data-name="Path 4806" d="M1759.284,1172.116c.125,8.44,1.3,16.872.7,25.317a127.639,127.639,0,0,1-3.238,19.584,188.315,188.315,0,0,1-5.74,20.017c-2.628,7.474-5.953,14.688-8.763,22.094a98.84,98.84,0,0,0-4.291,13.55,31.835,31.835,0,0,0-.9,10.829c.219,1.873,3.187,1.895,2.965,0-.847-7.261,1.8-14.644,4.264-21.38,2.8-7.654,6.219-15.069,9.02-22.722a180.585,180.585,0,0,0,5.855-19.684,149.229,149.229,0,0,0,3.606-20.075c.922-9.185-.369-18.342-.506-27.529a1.484,1.484,0,0,0-2.965,0" transform="translate(-1360.27 -122.417)" fill="#42403f"/>
    <path id="Path_4807" data-name="Path 4807" d="M1703.344,924.795c6.884-5.193,13.807-10.345,21.029-15.062a121.156,121.156,0,0,1,22.83-12.194,92.766,92.766,0,0,1,12.844-3.677c1.862-.417,1.073-3.276-.788-2.859a93.975,93.975,0,0,0-23.065,8.3,188.488,188.488,0,0,0-22.677,14.3c-3.933,2.818-7.805,5.719-11.668,8.632-1.5,1.135-.029,3.711,1.5,2.56" transform="translate(-1333.412 88.189)" fill="#42403f"/>
    <path id="Path_4808" data-name="Path 4808" d="M1700.9,1019.053c8.132,13.078,8.172,28.971,14.02,42.932a47.014,47.014,0,0,0,6.506,11.107c1.184,1.5,3.269-.615,2.1-2.1-9.463-11.954-9.946-27.733-14.637-41.676a56.021,56.021,0,0,0-5.425-11.764c-1.006-1.617-3.572-.13-2.561,1.5" transform="translate(-1333.003 -6.601)" fill="#42403f"/>
    <path id="Path_4809" data-name="Path 4809" d="M1785.379,1218.728c3.1-2.157,6.6-3.667,9.643-5.9,1.521-1.118.044-3.693-1.5-2.561-3.043,2.236-6.548,3.747-9.644,5.9-1.554,1.084-.074,3.655,1.5,2.56" transform="translate(-1395.154 -152.005)" fill="#42403f"/>
    <path id="Path_4810" data-name="Path 4810" d="M2201.645,659.353a221.758,221.758,0,0,0,4.137,27.963,116.849,116.849,0,0,0,4.68,16.381,47.286,47.286,0,0,0,7.19,13.367c2.929,3.594,6.959,6.314,11.724,6.352l-1.048-2.531-.041.044a1.5,1.5,0,0,0,1.048,2.531c7.757.274,15.551.224,23.276,1.055,6.772.729,13.547,2.318,19.338,6.037,11.159,7.166,18.273,19.139,23.543,30.99,3.009,6.765,5.461,13.763,7.8,20.781.6,1.8,3.465,1.029,2.859-.788-4.329-12.978-9.083-26.144-16.844-37.522a58.586,58.586,0,0,0-13.835-14.637,43.012,43.012,0,0,0-19.191-7.355c-8.911-1.331-17.965-1.208-26.948-1.526l1.049,2.531.04-.044a1.5,1.5,0,0,0-1.049-2.531c-8.335-.066-13.125-9.993-15.777-16.817-3.9-10.037-5.983-20.789-7.509-31.416q-.921-6.409-1.48-12.864c-.164-1.886-3.131-1.9-2.965,0" transform="translate(-1710.182 263.638)" fill="#42403f"/>
    <path id="Path_4811" data-name="Path 4811" d="M2416.272,1229.321c1.634,2.776,3.493,5.438,5.3,8.1,2.393,3.535,4.8,7.083,7.477,10.415.731.911,1.667,2.307,2.871,2.629a1.484,1.484,0,0,0,.788-2.859c-.142-.038.379.241.119.035-.159-.125.279.261-.018-.026-.229-.222-.45-.447-.663-.685-.6-.662-1.148-1.365-1.689-2.072-1.594-2.084-3.1-4.237-4.59-6.4-2.407-3.488-4.88-6.987-7.031-10.642a1.484,1.484,0,0,0-2.56,1.5" transform="translate(-1871.618 -164.901)" fill="#42403f"/>
    <path id="Path_4812" data-name="Path 4812" d="M2478.706,1194.4c2.874-5.756,5.764-11.5,9.687-16.633a90.922,90.922,0,0,1,15.263-15.141c2.706-2.193,5.474-4.327,8.368-6.267,1.577-1.057.095-3.627-1.5-2.56a126.281,126.281,0,0,0-15.544,12.4,74.327,74.327,0,0,0-13.6,16.729c-1.9,3.242-3.561,6.617-5.239,9.977-.85,1.7,1.707,3.206,2.56,1.5" transform="translate(-1916.732 -109.512)" fill="#42403f"/>
    <path id="Path_4813" data-name="Path 4813" d="M2321.338,1271.516c-3.43,12.027-6.305,24.207-9.663,36.254a419.216,419.216,0,0,1-15.484,46.259,260.307,260.307,0,0,1-12.872,27.08c-.92,1.673,1.639,3.17,2.561,1.5a296.3,296.3,0,0,0,20.707-48.062c4.842-14.305,8.829-28.871,12.626-43.483,1.627-6.261,3.21-12.536,4.984-18.758a1.484,1.484,0,0,0-2.859-.788" transform="translate(-1771.532 -197.549)" fill="#42403f"/>
    <path id="Path_4814" data-name="Path 4814" d="M2482.479,1311.969c5.845,16.343,11.931,32.621,18.884,48.531.336.769.675,1.538,1.01,2.308q.194.446.385.892c.144.334-.149-.363.019.046.048.115.1.23.141.346.7,1.749,3.571.985,2.859-.788-1.262-3.145-2.7-6.221-4.026-9.341-3.1-7.315-6.045-14.817-8.878-22.281q-3.874-10.211-7.536-20.5c-.638-1.784-3.5-1.015-2.859.788" transform="translate(-1921.558 -227.436)" fill="#42403f"/>
    <path id="Path_4815" data-name="Path 4815" d="M2232.32,1585.283c7.6-2.744,13.91-7.672,20.428-12.321,6.664-4.752,13.2-9.7,19.479-14.946,5.409-4.521,10.61-9.279,15.686-14.169,5.346-5.151,10.724-10.323,15.791-15.75,5.592-5.99,10.819-12.335,16.605-18.143a1.483,1.483,0,0,0-2.1-2.1c-5.1,5.121-9.767,10.672-14.638,16.009-4.916,5.385-10.156,10.477-15.372,15.568a306.326,306.326,0,0,1-33.735,28.651c-4,2.907-8.053,5.726-12.1,8.565a45.786,45.786,0,0,1-10.839,5.773c-1.781.643-1.013,3.509.788,2.859" transform="translate(-1731.93 -375.948)" fill="#42403f"/>
    <path id="Path_4816" data-name="Path 4816" d="M2091.893,1810.748c-14.755-.085-27.285,8.918-37.557,18.651-2.146,2.033-4.349,4.07-6.369,6.229-1.826,1.951-3.879,4.55-3.352,7.408a5.816,5.816,0,0,0,5.2,4.663c2.466.21,4.958-.96,7.057-2.123a83.447,83.447,0,0,0,7.242-4.709c3.491-2.441,6.621-5.36,10.154-7.743,1.573-1.062.091-3.632-1.5-2.56-2.8,1.888-5.334,4.121-8.01,6.172-2.046,1.567-4.211,2.981-6.356,4.409-2.3,1.532-8.528,6.052-10.6,2.054-1.115-2.153,1.329-4.531,2.706-5.941,1.829-1.874,3.742-3.687,5.638-5.492a86.223,86.223,0,0,1,15.3-12c6.229-3.69,13.147-6.093,20.445-6.051a1.483,1.483,0,0,0,0-2.965" transform="translate(-1591.896 -604.326)" fill="#42403f"/>
    <path id="Path_4817" data-name="Path 4817" d="M2374.657,1166.172c4.918,12.634,9.344,25.45,14.058,38.16,2.625,7.077,5.15,14.18,7.4,21.388a203.6,203.6,0,0,1,6.552,25.632A57.62,57.62,0,0,1,2403.7,1262a18.434,18.434,0,0,1-.389,3.9,12.7,12.7,0,0,1-3.13,5.582c-3.588,4-8.25,7.13-12.44,10.459q-7.427,5.9-14.922,11.712-12.267,9.51-24.76,18.728c-10.181,7.492-20.5,14.807-31.03,21.794-5.744,3.81-11.457,7.7-17.48,11.06-.551.307-1.1.614-1.67.892-.112.055-.568.327-.421.2.227-.195-.072.058-.054.011l-.058.016q1.443-.33,1.559,2.069a1.484,1.484,0,0,0-2.56-1.5,1.549,1.549,0,0,0,.528,2.147,2.035,2.035,0,0,0,1.9-.109,34.606,34.606,0,0,0,3.439-1.833c2.5-1.437,5.025-2.887,7.413-4.505,1.83-1.241,3.675-2.455,5.524-3.667q14.141-9.271,27.821-19.214c17.956-12.987,35.288-26.748,52.757-40.372,3.986-3.109,8.438-6.592,10.126-11.559,1-2.938.916-6.27.695-9.323-.625-8.634-2.825-17.177-5.171-25.48-2.236-7.914-4.8-15.74-7.591-23.474q-6.266-17.339-12.661-34.64-1.772-4.77-3.615-9.513c-.685-1.759-3.553-.994-2.859.788" transform="translate(-1781.321 -117.677)" fill="#42403f"/>
    <path id="Path_4818" data-name="Path 4818" d="M1737.816,1623.457c4.374,8.719,12.2,15.621,19.885,21.376a117.534,117.534,0,0,0,28.965,16,65.428,65.428,0,0,0,13.656,3.683,143.007,143.007,0,0,0,18.544,1.054c10.446.117,21.123-.547,31.176-3.585a59.538,59.538,0,0,0,24.911-15.007,1.484,1.484,0,0,0-2.1-2.1,56.006,56.006,0,0,1-20.923,13.369c-9.245,3.255-19.116,4.224-28.863,4.351-10.827.142-21.9-.042-32.271-3.45a110.512,110.512,0,0,1-28.189-14.421,95.726,95.726,0,0,1-13.469-11.153,46.324,46.324,0,0,1-8.765-11.62c-.856-1.706-3.415-.206-2.56,1.5" transform="translate(-1360.838 -461.621)" fill="#42403f"/>
    <path id="Path_4819" data-name="Path 4819" d="M2132.671,1908.579c3.632,3.99,6.69,8.908,11.919,10.974a26.224,26.224,0,0,0,13.875,1.556c6.458-1.136,11.508-5.726,14.489-11.4a36.264,36.264,0,0,0,2.258-5.458c.6-1.815-2.259-2.593-2.859-.788a25.4,25.4,0,0,1-5.577,9.888c-5.129,5.356-12.393,6.024-19.267,4.046a15.305,15.305,0,0,1-6.966-4.253c-2.054-2.1-3.8-4.486-5.775-6.659-1.287-1.414-3.379.688-2.1,2.1" transform="translate(-1657.954 -673.359)" fill="#42403f"/>
    <path id="Path_4820" data-name="Path 4820" d="M2308.54,1901.877c2.608,14.735,3.438,29.713,5.88,44.474.311,1.878,3.168,1.082,2.859-.788-2.442-14.76-3.271-29.737-5.88-44.474-.332-1.876-3.19-1.081-2.858.788" transform="translate(-1790.651 -671.538)" fill="#42403f"/>
    <path id="Path_4821" data-name="Path 4821" d="M1645.116,1625.016c-10.307,16.034-17,34.146-21.521,52.589a338.922,338.922,0,0,0-7.371,43.814c-.365,3.317-.709,6.639-.944,9.968-.133,1.888-.542,4.251.023,6.109.553,1.821,3.416,1.045,2.859-.788-.144-.476-.042.184-.063-.353-.014-.378-.031-.754-.03-1.133,0-1.052.063-2.1.13-3.154.184-2.86.465-5.715.765-8.565q.456-4.337.989-8.666.2-1.6.4-3.2.075-.588.152-1.176c.014-.109.079-.594.022-.167q.082-.61.167-1.219c2.572-18.492,6.448-36.921,13.023-54.434a148.348,148.348,0,0,1,13.96-28.131c1.035-1.61-1.531-3.1-2.56-1.5" transform="translate(-1268.508 -463.969)" fill="#42403f"/>
    <path id="Path_4822" data-name="Path 4822" d="M1659.623,1728.854a34.8,34.8,0,0,0,13.644,4.835c3.928.4,8.818-.445,11.443-3.7,1.993-2.47,3.14-5.689,4.26-8.618,1.422-3.72,2.648-7.516,3.8-11.327.958-3.163,1.878-6.343,2.683-9.549.465-1.852-2.395-2.641-2.859-.788-1.54,6.137-3.384,12.23-5.5,18.193a53.681,53.681,0,0,1-3.741,8.8,5.866,5.866,0,0,1-1.99,2.347,10.779,10.779,0,0,1-6.01,1.772c-5.018.076-9.967-2.065-14.237-4.528a1.484,1.484,0,0,0-1.5,2.561" transform="translate(-1301.553 -519.928)" fill="#42403f"/>
    <path id="Path_4823" data-name="Path 4823" d="M2013.165,643.836c1.166,1.06.966,3.992.974,5.585a40.7,40.7,0,0,0,.234,6.982,3.526,3.526,0,0,0,4.079,3.18,15.506,15.506,0,0,0,4-1.138,11.206,11.206,0,0,1,3.322-1.035c1.9-.071,1.912-3.036,0-2.965-2.434.091-4.6,1.541-6.94,2.083a3.18,3.18,0,0,1-1.236.1c-.186-.03-.082.091-.2-.219a10.532,10.532,0,0,1-.281-2.151c-.1-2.335.061-4.674-.077-7.008-.11-1.862-.309-4.168-1.784-5.51-1.409-1.281-3.512.809-2.1,2.1" transform="translate(-1567.925 276.13)" fill="#42403f"/>
    <path id="Path_4824" data-name="Path 4824" d="M2045.077,717.762c7.468-1.27,16.328-6.337,16.461-14.832a1.483,1.483,0,0,0-2.965,0c-.112,7.109-8.237,10.944-14.285,11.973-1.877.319-1.081,3.177.788,2.859" transform="translate(-1590.905 230.836)" fill="#42403f"/>
    <path id="Path_4825" data-name="Path 4825" d="M1512.588,618.519c4.655-1.542,5.846-5.953,6.378-10.351.425-3.5.25-9.084,4.091-10.8.167-.074.557-.118.667-.231.186-.193-.382-.257-.383-.254a9.589,9.589,0,0,0,.271,1.173,26.982,26.982,0,0,1,.116,3.431c-.005,2.752.463,5.461.39,8.221a39.589,39.589,0,0,1-6.531,20.186,40.221,40.221,0,0,1-6.6,7.874c-2.5,2.308-4.738,4.554-6.081,7.731a86.793,86.793,0,0,0-6,20.26A122.811,122.811,0,0,0,1497.7,683.5c-.083,7.1-.14,14.19.1,21.285.215,6.277.642,12.542,1.13,18.8.246,3.147.425,6.31.751,9.45.321,3.091,1.115,6.11,1.472,9.2a36.465,36.465,0,0,1,.206,5.655c-.076,1.908,2.889,1.9,2.965,0A48.82,48.82,0,0,0,1503.29,737a89.23,89.23,0,0,1-1.069-9.288c-.5-6.324-1-12.649-1.3-18.987-.344-7.374-.374-14.747-.294-22.126a154.834,154.834,0,0,1,.866-18.206,82.479,82.479,0,0,1,5.571-20.426,16.485,16.485,0,0,1,2.531-4.646,42.049,42.049,0,0,1,3.627-3.589,44.45,44.45,0,0,0,13.79-28.6c.2-3.049-.328-6.007-.325-9.034,0-2.1.3-4.827-.79-6.72-1.4-2.433-4.635-.721-6.174.685a10.468,10.468,0,0,0-2.864,5.614c-.5,2.3-.606,4.666-.925,7-.253,1.84-.6,3.926-1.8,5.418a4.9,4.9,0,0,1-2.342,1.565c-1.8.6-1.031,3.462.788,2.859" transform="translate(-1180.128 311.653)" fill="#42403f"/>
    <path id="Path_4826" data-name="Path 4826" d="M1516.69,681.052c-8.691,1.924-14.5,11.105-11.973,19.749.534,1.828,3.4,1.05,2.859-.788-2.092-7.161,2.76-14.521,9.9-16.1,1.862-.412,1.074-3.271-.788-2.859" transform="translate(-1185.019 246.261)" fill="#42403f"/>
    <path id="Path_4827" data-name="Path 4827" d="M1424.494,534.323c-4.922-.867-5.107-6.6-5-10.61.225-8.474.241-16.963.41-25.441.1-4.9.176-9.8.192-14.7.006-1.681-.05-3.364-.033-5.045a9.813,9.813,0,0,1,.5-3.8,3.011,3.011,0,0,1,.523-.655c.027-.147-.329.125-.205-.053-.006.009.059.068.189.3a9.913,9.913,0,0,1,.861,3.095c.4,2.325.447,4.684.7,7.024.407,3.7.778,7.45,1.508,11.1.3,1.49,1.064,4.485,3.254,3.317,2.457-1.31,3.039-5.341,3.443-7.773.316-1.9.575-3.82.789-5.739.565-5.077,1.06-10.166,1.922-15.2a45.262,45.262,0,0,1,1.615-6.981,6.788,6.788,0,0,1,.921-1.972c.144-.206-.149.135.124-.136.216-.214.034-.034.033-.037a.589.589,0,0,1,.114-.063c-.578.209-.15.059-.122.066-.232-.061.31.011.3.01a.572.572,0,0,1,.451.257,2.82,2.82,0,0,1,.478,1.135,11.283,11.283,0,0,1,.227,3.11c-.053,1.677-.337,2.922-.5,4.531-.739,7.2-.805,14.563-.847,21.8q-.01,1.635-.007,3.269a1.483,1.483,0,0,0,2.965,0c0-6.584.162-13.16.525-19.734q.1-1.819.217-3.637c.036-.563.081-1.126.111-1.69-.034.65-.041.295-.008.114.151-.822.258-1.657.351-2.487a14.6,14.6,0,0,0-.468-6.955c-.8-1.988-3.193-3.542-5.282-2.288-1.517.911-2.163,2.977-2.649,4.561-1.635,5.332-2.176,11.054-2.8,16.573-.561,4.923-.656,9.107-1.975,13.813a9.465,9.465,0,0,1-.762,2.023,5.586,5.586,0,0,0-.453.678c-.018.055-.182.125-.182.182,0-.38,1.33.131,1.473.183.3.109.066.253.008-.057.063.336-.042-.152-.071-.263-.146-.537-.27-1.077-.375-1.623a105.076,105.076,0,0,1-1.444-10.949c-.239-2.834-.092-13.981-5.356-12.313-3.007.953-3.06,5.147-3.057,7.7,0,4.417.018,8.831-.049,13.249-.149,9.8-.469,19.6-.5,29.408-.015,4.6-.505,10.34,3.293,13.726a7.789,7.789,0,0,0,3.868,1.846c1.866.329,2.667-2.528.788-2.859" transform="translate(-1119.059 414.169)" fill="#42403f"/>
    <path id="Path_4828" data-name="Path 4828" d="M1499.733,491.352c.86-5.881,1.805-11.747,2.872-17.593.559-3.063,1.14-6.122,1.72-9.182a45.732,45.732,0,0,1,1.608-7.519c.18-.48.484-1.378,1-1.581.345-.136.1-.006.294-.035.349-.053.258.163.1-.016a2.935,2.935,0,0,1,.454,1.462,34.131,34.131,0,0,1,.028,5.278c-.115,4.714-.462,9.427-.838,14.126-.408,5.088-.8,10.218-1.628,15.258-.307,1.867,2.55,2.67,2.859.788.818-4.973,1.237-10.023,1.652-15.043.425-5.136.821-10.291.927-15.445a26.2,26.2,0,0,0-.237-6.27c-.539-2.387-2.9-4.008-5.215-2.588-1.885,1.158-2.513,3.735-2.915,5.755-.685,3.444-1.313,6.9-1.959,10.351q-2,10.7-3.589,21.466c-.273,1.867,2.583,2.672,2.859.788" transform="translate(-1179.545 418.337)" fill="#42403f"/>
    <path id="Path_4829" data-name="Path 4829" d="M1532.67,514.608c1.858-.11,2.74-1.918,3.358-3.438a42.794,42.794,0,0,0,2.127-8.078c.732-3.819,1.275-7.674,1.757-11.532q.194-1.555.37-3.111c.055-.484.1-.97.161-1.452-.054.409,0-.006.036-.179a8.7,8.7,0,0,1,.737-2.357c.349-.666.569-1.035,1.265-.76-.2-.079.064.1-.019-.025a2.988,2.988,0,0,1,.193.327c.12.239.062.132.071.157a15,15,0,0,1,.716,4.568,116.36,116.36,0,0,1-.454,14.741c-.373,5-.92,10-1.276,15-.135,1.9,2.83,1.9,2.965,0,.693-9.729,2.167-19.5,1.752-29.279-.122-2.861-.132-7.847-3.764-8.535-2.588-.49-4.084,1.98-4.734,4.1a13.9,13.9,0,0,0-.48,2.485c-.262,2.246-.513,4.491-.818,6.732a115.8,115.8,0,0,1-2.222,12.409,25.812,25.812,0,0,1-1.223,3.952,10.7,10.7,0,0,1-.7,1.285c-.062.1-.154.046.185.026-1.9.112-1.909,3.078,0,2.965" transform="translate(-1205.436 397.158)" fill="#42403f"/>
    <path id="Path_4830" data-name="Path 4830" d="M1374.922,756.686c-4.375,21.182-9.182,42.328-12.462,63.716a265.668,265.668,0,0,0-3.18,50.522,94.56,94.56,0,0,0,1.462,14.044,33.772,33.772,0,0,0,3.939,11.347c2.127,3.464,6.7,3.909,10.389,3.9,6.131-.015,12.294-1.317,18.225-2.755,7.616-1.847,15.109-4.2,22.505-6.781a299.922,299.922,0,0,0,42.141-17.934q1.841-.979,3.649-2.016a1.484,1.484,0,0,0-1.5-2.56c-12.272,7.057-25.584,12.5-38.834,17.4-7.437,2.754-14.966,5.286-22.605,7.419A114.939,114.939,0,0,1,1379.491,897a36.365,36.365,0,0,1-7.233.12,9.025,9.025,0,0,1-4.224-1.366c.105.075.043.057-.135-.12-.117-.116-.233-.23-.346-.35-.282-.3.1.185-.121-.16-.21-.324-.4-.66-.59-1a26.391,26.391,0,0,1-2.122-5.269,63.2,63.2,0,0,1-2.188-12.989,224.168,224.168,0,0,1-.118-25.35,236.582,236.582,0,0,1,2.172-24.314c2.77-20.015,7.18-39.789,11.293-59.558q.954-4.586,1.9-9.172c.385-1.862-2.473-2.659-2.859-.788" transform="translate(-1075.836 190.089)" fill="#42403f"/>
    <path id="Path_4831" data-name="Path 4831" d="M1511.229,1056.349a44.925,44.925,0,0,0,6.018-3.95c3.323-2.3,6.837-4.3,10.278-6.414,6.722-4.138,13.3-8.5,19.795-12.982,3.906-2.694,7.791-5.418,11.685-8.13,1.555-1.083.074-3.655-1.5-2.56-6.574,4.579-13.122,9.2-19.794,13.633q-5.034,3.346-10.167,6.541c-3.545,2.2-7.2,4.246-10.662,6.578-2.349,1.582-4.584,3.5-7.152,4.726-1.722.821-.219,3.378,1.5,2.56" transform="translate(-1188.669 -10.507)" fill="#42403f"/>
    <path id="Path_4832" data-name="Path 4832" d="M2113.93,1791.841q-.444,8.069-.381,16.153a1.483,1.483,0,0,0,2.965,0q-.063-8.081.381-16.153c.1-1.907-2.861-1.9-2.965,0" transform="translate(-1643.854 -589.015)" fill="#42403f"/>
    <path id="Path_4833" data-name="Path 4833" d="M2282.453,1721.019c-.289,4.809-.007,9.611,0,14.423a1.483,1.483,0,0,0,2.965,0c-.007-4.812-.289-9.614,0-14.423.115-1.906-2.851-1.9-2.965,0" transform="translate(-1770.93 -535.693)" fill="#42403f"/>
    <path id="Path_4834" data-name="Path 4834" d="M1932.876,1983.946l-10.147,29.149c-.629,1.806,2.235,2.582,2.859.788l10.146-29.149c.628-1.806-2.235-2.582-2.859-.788" transform="translate(-1500.123 -733.962)" fill="#42403f"/>
    <path id="Path_4835" data-name="Path 4835" d="M1950.411,2028.7a96.217,96.217,0,0,0,15.858,16.92c1.455,1.215,3.563-.873,2.1-2.1a93.23,93.23,0,0,1-15.395-16.32c-1.118-1.521-3.692-.044-2.56,1.5" transform="translate(-1520.82 -766.817)" fill="#42403f"/>
    <path id="Path_4879" data-name="Path 4879" d="M4959.519,1311.691a56.755,56.755,0,0,0,41.12,2.5c1.807-.588,1.035-3.452-.788-2.859a53.673,53.673,0,0,1-38.835-2.2c-1.721-.794-3.229,1.761-1.5,2.56" transform="translate(-3786.031 -226.54)" fill="#42403f"/>
    <path id="Path_4880" data-name="Path 4880" d="M5279.78,1309.13a53.668,53.668,0,0,1-38.834,2.2c-1.819-.592-2.6,2.271-.788,2.86a56.755,56.755,0,0,0,41.119-2.5c1.731-.8.226-3.355-1.5-2.561" transform="translate(-3997.13 -226.54)" fill="#42403f"/>
    <path id="Path_4881" data-name="Path 4881" d="M2079.158,757.736q2.7-1.777,5.535-3.323c1.676-.914.181-3.475-1.5-2.56q-2.837,1.547-5.536,3.323c-1.587,1.045-.1,3.614,1.5,2.56" transform="translate(-1616.329 193.071)" fill="#42403f"/>
  </g>
</svg>
