<svg xmlns="http://www.w3.org/2000/svg" width="259.123" height="447.839" viewBox="0 0 259.123 447.839">
  <g id="Group_252" data-name="Group 252" transform="translate(0 0)">
    <path id="Path_4611" data-name="Path 4611" d="M374.116,720.384s-1.387,2.775,1.388,6.243,5.9,7.284,7.284,11.1,5.9,15.261,7.977,19.077,3.469,7.978,6.59,9.018,6.243,2.428,6.243,2.428l-4.162,57.23-20.064,8.607-3.992-10.1-1.264,39.643.694,105.443-1.734,15.955s-33.644,11.793-58.965,9.712-42.316-8.325-42.316-8.325l-23.586-10.752s-5.9-6.243-8.671-8.671-5.2-6.59-7.284-10.406-7.284-23.239-7.284-23.239L222.542,894.5l.347-69.023-20.117-1.387-12.487-2.081s2.428-31.563,5.55-46.825,5.9-42.663,17.342-49.253,32.6-12.14,32.6-12.14l18.383-3.122,12.14-10.059-1.734,7.978s5.549,22.545,22.892,23.239,21.158-6.59,21.158-6.59l12.833-15.261-1.041-8.671,9.365,10.753Z" transform="translate(-188.477 -579.249)" fill="#f2f2f2"/>
    <path id="Path_4681" data-name="Path 4681" d="M647.142,643.659s-10.635-2.275-14.022-4.646a44.937,44.937,0,0,1-8.131-6.775,65.6,65.6,0,0,1-4.4-6.775l-.663,10.857a28.873,28.873,0,0,0,11.316,6.117c7.114,2.033,15.9,1.223,15.9,1.223" transform="translate(-531.372 -521.476)" fill="#42403f"/>
    <path id="Path_4682" data-name="Path 4682" d="M644.143,867.475a2.789,2.789,0,1,0,2.789-2.789,2.789,2.789,0,0,0-2.789,2.789" transform="translate(-539.552 -705.381)" fill="#42403f"/>
    <path id="Path_4683" data-name="Path 4683" d="M645.483,947.882a2.789,2.789,0,1,0,2.789-2.789,2.789,2.789,0,0,0-2.789,2.789" transform="translate(-541.203 -767.195)" fill="#42403f"/>
    <path id="Path_4684" data-name="Path 4684" d="M507.659,415c-2.272-3.241-6.393-3.617-9.958-4.4-1.744-.381-1.006-3.057.738-2.676,4.449.972,8.822,1.684,11.617,5.671,1.027,1.466-1.378,2.854-2.4,1.4" transform="translate(-366.042 -354.214)" fill="#42403f"/>
    <path id="Path_4685" data-name="Path 4685" d="M680.67,400.049c-3.184-.545-5.884,1.661-8,3.753-1.271,1.257-3.234-.7-1.962-1.962,2.926-2.893,6.421-5.2,10.7-4.466,1.757.3,1.012,2.975-.738,2.676" transform="translate(-578.29 -346.028)" fill="#42403f"/>
    <path id="Path_4686" data-name="Path 4686" d="M543.194,452.7c-.051.294-.1.821-.136,1.315s-.075,1-.123,1.5a1.426,1.426,0,0,1-1.387,1.387,1.4,1.4,0,0,1-1.388-1.387c.113-1.185.155-2.379.358-3.554a1.4,1.4,0,0,1,1.707-.969,1.419,1.419,0,0,1,.969,1.707" transform="translate(-409.007 -387.322)" fill="#42403f"/>
    <path id="Path_4687" data-name="Path 4687" d="M677.139,442.924c-.067.335.013-.2-.01.04-.012.119-.02.238-.027.357-.015.267-.02.534-.022.8,0,.471.005.941.006,1.411a1.388,1.388,0,0,1-2.775,0,16.91,16.91,0,0,1,.152-3.348,1.4,1.4,0,0,1,1.707-.969,1.416,1.416,0,0,1,.969,1.707" transform="translate(-573.977 -379.804)" fill="#42403f"/>
    <path id="Path_4688" data-name="Path 4688" d="M435.4,489.882c10.149-1.614,7.009,15.63,3.6,20.292-1.971,2.7-5.477,2.921-8.533,2.211-1.739-.4-1-3.08.738-2.676,1.8.418,4.283.52,5.461-1.017a13.32,13.32,0,0,0,1.9-4.238c.893-3.081,1.585-7.128.319-10.174a2.354,2.354,0,0,0-2.751-1.722c-1.747.278-2.5-2.4-.738-2.676" transform="translate(-282.472 -417.167)" fill="#42403f"/>
    <path id="Path_4689" data-name="Path 4689" d="M482.984,550.707c-.785,6.89-2.76,13.542-4.229,20.3-1.587,7.3-2.414,14.758-1.06,22.166.319,1.746-2.354,2.495-2.676.738-1.377-7.533-.728-15.069.821-22.521,1.433-6.892,3.57-13.67,4.368-20.683.2-1.754,2.977-1.774,2.775,0" transform="translate(-333.544 -462.992)" fill="#42403f"/>
    <path id="Path_4690" data-name="Path 4690" d="M579.581,511.971c1.741,10.03,1.917,20.663,7.793,29.386,4.435,6.583,11.584,11.228,19.619,11.6a21.094,21.094,0,0,0,10.615-2.163c1.586-.814,2.991,1.579,1.4,2.4a25.38,25.38,0,0,1-21.834.163c-8.94-4.018-14.867-12.747-17.2-22.05-1.529-6.108-2-12.407-3.074-18.6-.3-1.747,2.37-2.5,2.676-.738" transform="translate(-493.986 -433.459)" fill="#42403f"/>
    <path id="Path_4691" data-name="Path 4691" d="M736.709,608.873a75.644,75.644,0,0,1-2.926,27.593c-.529,1.7-3.208.974-2.676-.738a73.427,73.427,0,0,0,2.827-26.856c-.132-1.781,2.643-1.773,2.775,0" transform="translate(-646.853 -507.699)" fill="#42403f"/>
    <path id="Path_4692" data-name="Path 4692" d="M757.541,463.385a3.4,3.4,0,0,0-1.735.2,3.252,3.252,0,0,0-1.25,1.087,9.121,9.121,0,0,0-1.373,4.426c-.292,3.449.247,7.495,2.289,10.387a4.825,4.825,0,0,0,1.431,1.357,2.426,2.426,0,0,0,1.6.262c1.744-.353,2.49,2.321.738,2.676-4.461.9-7.039-3.505-8.085-7.175-1.152-4.043-1.465-9.43.873-13.139a5.793,5.793,0,0,1,5.507-2.855c1.762.171,1.779,2.947,0,2.775" transform="translate(-674.619 -394.725)" fill="#42403f"/>
    <path id="Path_4693" data-name="Path 4693" d="M600.55,434.638c3.539,2.044,1.44,7.848.46,10.761-.582,1.729-1.291,3.417-1.843,5.156-.072.228-.109.483-.2.7-.107.266-.027-.184.008-.05a1.7,1.7,0,0,1-.071-.371c.079-.265-.277-.046.026-.071.031,0,.573.265.752.328a12.357,12.357,0,0,0,1.587.41c2.3.476,4.884.386,7.1,1.208,1.659.617.941,3.3-.738,2.676-1.932-.718-4.193-.695-6.21-1.042-1.643-.283-4.617-.727-5.157-2.677-.336-1.212.576-2.863.979-3.955a56.926,56.926,0,0,0,2.005-6.126,11.814,11.814,0,0,0,.433-3.157,2.6,2.6,0,0,0-.177-1.009.764.764,0,0,0-.354-.388,1.389,1.389,0,0,1,1.4-2.4" transform="translate(-488.052 -374.629)" fill="#42403f"/>
    <path id="Path_4694" data-name="Path 4694" d="M530.15,736.508c-.312.377-.65.852-1.086,1.487-.49.715-.967,1.439-1.453,2.157-1.213,1.795-2.478,3.555-3.861,5.223a36.723,36.723,0,0,1-13.185,10.2,41.95,41.95,0,0,1-11.992,3.229c-1.767.221-1.751-2.556,0-2.775a35.292,35.292,0,0,0,17.607-7.068,44.116,44.116,0,0,0,8.938-10.067c.994-1.468,1.938-2.981,3.069-4.349s3.092.6,1.962,1.962" transform="translate(-386.354 -604.976)" fill="#42403f"/>
    <path id="Path_4695" data-name="Path 4695" d="M464.477,761.564c5.3.05,10.108,2.4,14.225,5.6,2.888,2.244,5.182,5.045,7.916,7.435.2.178-.024-.034,0,0a.5.5,0,0,0,.2.127c-.244-.039-.194-.158-.476-.123a4.164,4.164,0,0,0-1.077.575c.053-.026.12-.24.139-.293-.153.423.065-.176.122-.326.5-1.322.941-2.669,1.385-4.011,1.445-4.37,2.816-8.765,4.181-13.16q2.157-6.948,4.252-13.914c.511-1.707,3.19-.98,2.676.738-2.64,8.818-5.333,17.626-8.2,26.372-.488,1.488-.975,2.98-1.518,4.449-.354.958-.675,2.29-1.923,2.342-1.1.047-2.022-1.068-2.723-1.778-1.31-1.329-2.589-2.685-3.958-3.955-4.192-3.888-9.314-7.246-15.219-7.3a1.388,1.388,0,0,1,0-2.775" transform="translate(-346.06 -611.451)" fill="#42403f"/>
    <path id="Path_4696" data-name="Path 4696" d="M692.243,758.223c-7.971,2.839-13.956,10.045-18.739,16.723-.635.887-1.616,2.362-2.844,1.156a3.414,3.414,0,0,1-.7-1.644c-.249-.963-.454-1.937-.679-2.905a54.974,54.974,0,0,0-2.053-5.634c-.94-2.665-1.749-5.376-2.467-8.108a193.463,193.463,0,0,1-4.2-21.694,1.436,1.436,0,0,1,.969-1.707,1.4,1.4,0,0,1,1.707.969,182.171,182.171,0,0,0,4.854,24.074,87.6,87.6,0,0,0,3.26,9.514,16.293,16.293,0,0,1,.806,2.714c.14.613.277,1.227.43,1.837a6.8,6.8,0,0,1,.191.727c.055.421.1.13-.156-.105l-1.35-.357c1.234-.217-.988.4-.515.26-.164.049-.221.3-.039.046.129-.182.26-.362.391-.543.45-.628.9-1.254,1.362-1.873,1.434-1.923,2.94-3.8,4.551-5.574,4.018-4.438,8.774-8.517,14.484-10.551,1.685-.6,2.411,2.08.738,2.676" transform="translate(-586.815 -605.197)" fill="#42403f"/>
    <path id="Path_4697" data-name="Path 4697" d="M629.131,830.555c.59,13.163.23,26.343.674,39.509.06,1.786-2.715,1.784-2.775,0-.444-13.167-.084-26.346-.674-39.509-.08-1.785,2.7-1.781,2.775,0" transform="translate(-515.524 -678.115)" fill="#42403f"/>
    <path id="Path_4698" data-name="Path 4698" d="M.988,768.8c5.056-1.275,9.479-3.786,11.641-8.725a45.72,45.72,0,0,0,2.286-8.649q1.149-5.254,2.25-10.517c1.318-6.346,2.539-12.712,3.584-19.109.639-3.917,1.394-7.891,1.652-11.621a17.065,17.065,0,0,0-.366-5.9c-.489-1.683-1.3-2.438-3.036-2.221-1.768.22-1.752-2.557,0-2.775,4.631-.577,6.075,4.157,6.232,7.861a57.535,57.535,0,0,1-1.107,10.951c-1.043,6.9-2.29,13.765-3.677,20.6q-1.134,5.6-2.356,11.172a73.117,73.117,0,0,1-2.484,10.193,16.868,16.868,0,0,1-4.679,7,22.257,22.257,0,0,1-9.2,4.419c-1.732.437-2.471-2.239-.738-2.676" transform="translate(233.871 -578.186)" fill="#42403f"/>
    <path id="Path_4699" data-name="Path 4699" d="M22.32,684.2c1.372-7.784,2.938-15.536,4.19-23.341.493-3.076.959-6.169,1.152-9.281.12-1.943.41-4.893-.961-6.477a1.345,1.345,0,0,0-1.77-.319,2.829,2.829,0,0,0-.338.172c-.063.037-.5.346-.347.219-.129.107-.235.234-.358.346,0,0-.093.184-.012-.027-.629,1.653-3.313.936-2.676-.738a4.974,4.974,0,0,1,4.694-2.907c3.224.135,4.312,3.616,4.553,6.3a40.036,40.036,0,0,1-.57,8.771c-.555,4.156-1.279,8.287-2.026,12.412-.943,5.2-1.937,10.4-2.855,15.609-.309,1.756-2.984,1.011-2.676-.738" transform="translate(223.718 -534.071)" fill="#42403f"/>
    <path id="Path_4700" data-name="Path 4700" d="M59.333,654.806c1.463-12.513,4.754-24.784,5.876-37.337.1-1.131.178-2.266.192-3.4.006-.477,0-.955-.021-1.431-.01-.214-.025-.427-.043-.64s-.055-.469-.048-.424a8.687,8.687,0,0,0-.207-.91c-.03-.108-.16-.466-.049-.158-.028-.078-.173-.435-.124-.249.027.105-.152-.087-.028-.039a3.547,3.547,0,0,0-.45-.2,1.907,1.907,0,0,0-1.422-.111c-.8.343-1.182,1.427-1.429,2.19-.413,1.279-.669,2.62-.967,3.928-.909,3.994-1.694,8.014-2.408,12.046-1.455,8.214-2.856,16.386-5.254,24.392-.511,1.707-3.19.98-2.676-.738a199.013,199.013,0,0,0,5.019-23.052c.745-4.268,1.551-8.525,2.5-12.753.562-2.5.922-5.885,2.913-7.751,1.745-1.636,5.18-1.493,6.54.615.915,1.418.936,3.376.932,5-.018,6.047-1.251,12.149-2.282,18.084-1.326,7.629-2.888,15.243-3.788,22.938-.2,1.753-2.982,1.773-2.775,0" transform="translate(179.333 -507.326)" fill="#42403f"/>
    <path id="Path_4701" data-name="Path 4701" d="M111.081,628.072a6.818,6.818,0,0,0-.53-.6c-.118-.12-.24-.237-.367-.348-.218-.189-.019-.035-.184-.145-.111-.074-.662-.355-.378-.234a1.454,1.454,0,0,0-.349-.1c-.02,0,.215.023-.074,0a1.557,1.557,0,0,0-.291.012c.238-.023.141-.028-.016.025-.258.087-.082.016-.1.023a3.125,3.125,0,0,0-.329.181c-.25.158-.069,0-.367.285a8.019,8.019,0,0,0-.636.678c-1.978,2.4-3.2,6.24-4.227,9.332-3.293,9.888-5.5,20.1-8.848,29.975-.809,2.387-1.544,5.083-3.016,7.161C89.639,676.756,87,677.6,84.1,677.765c-1.784.1-1.778-2.674,0-2.775,2.489-.141,4.38-.935,5.551-3.2a45.324,45.324,0,0,0,2.524-6.768c1.715-5.246,3.161-10.575,4.637-15.891,1.362-4.9,2.7-9.83,4.413-14.624,1.113-3.115,2.346-6.8,4.775-9.177a4.387,4.387,0,0,1,3.677-1.419,6.188,6.188,0,0,1,3.8,2.759c1.084,1.418-1.325,2.8-2.4,1.4" transform="translate(126.233 -520.256)" fill="#42403f"/>
    <path id="Path_4702" data-name="Path 4702" d="M178.766,794.119c-2.5.766-4.731-1.169-6.335-2.835-2.382-2.475-4.388-5.286-6.75-7.782-2.135-2.256-4.629-4.563-7.769-5.19-.784-.157-2.97-.6-3.518.253-.492.765.577,2.523.938,3.136,1.831,3.109,4.539,5.605,6.691,8.481a17.114,17.114,0,0,1,2.237,4.417c.745,1.968,1.465,3.945,2.179,5.924,2.076,5.754,3.892,12.063,7.6,17.03,3.989,5.343,10.4,6.954,16.755,7.431,1.77.133,1.784,2.909,0,2.775-6.334-.476-12.884-1.921-17.413-6.7-4.351-4.594-6.43-10.979-8.539-16.8-.709-1.957-1.408-3.917-2.125-5.87a31.218,31.218,0,0,0-2.221-5.534c-1.953-3.206-4.888-5.73-6.988-8.844-1.595-2.365-3.454-6.871.306-8.288,2.913-1.1,6.579.1,9.058,1.717,3.607,2.351,6.313,5.787,9.039,9.056a34.079,34.079,0,0,0,3.573,3.887,5.643,5.643,0,0,0,1.5,1.013,1.372,1.372,0,0,0,1.039.054c1.711-.525,2.443,2.152.738,2.676" transform="translate(31.937 -636.659)" fill="#42403f"/>
    <path id="Path_4703" data-name="Path 4703" d="M104.148,991.74a168.215,168.215,0,0,0,.231,18.191c.411,7.774,1.033,15.536,1.679,23.293,1.226,14.713,3.24,29.784,1.519,44.535-.7,6.029-2.075,12.134-5.267,17.373a28.921,28.921,0,0,1-11.812,11.2c-7.3,3.45-14.782-2.772-19.349-7.964-8.624-9.807-14.19-22.33-18.435-34.549q-.973-2.8-1.845-5.638c-.528-1.71,2.149-2.441,2.676-.738,3.881,12.556,9.061,25.191,16.983,35.781a35.611,35.611,0,0,0,9.574,9.339c2.379,1.446,5.487,2.632,8.138,1.731a18.588,18.588,0,0,0,4.277-2.407,26.95,26.95,0,0,0,5.994-6.041c3.533-4.883,5.226-10.609,6.086-16.516a108.508,108.508,0,0,0,.624-20.258c-.313-7.27-.983-14.52-1.6-21.769-1.176-13.877-2.612-27.875-2.384-41.818q.031-1.871.132-3.739c.1-1.776,2.874-1.787,2.775,0" transform="translate(139.131 -802.028)" fill="#42403f"/>
    <path id="Path_4704" data-name="Path 4704" d="M198.879,985.708a236.667,236.667,0,0,1-.353,26.779c-.5,9.312-1.221,18.61-1.856,27.913a53.758,53.758,0,0,1-.876,7.789c-.687,3.171-1.773,6.239-2.573,9.381a1.389,1.389,0,0,1-2.676-.738c.7-2.738,1.6-5.417,2.286-8.158a41.575,41.575,0,0,0,1-7.373c.287-4.265.6-8.528.9-12.792.668-9.531,1.3-19.072,1.525-28.625.111-4.724.128-9.458-.154-14.176-.107-1.784,2.669-1.778,2.775,0" transform="translate(15.94 -797.391)" fill="#42403f"/>
    <path id="Path_4705" data-name="Path 4705" d="M225.462,1232.729a131.557,131.557,0,0,0-18.244,8.649,1.389,1.389,0,0,1-1.4-2.4,136.285,136.285,0,0,1,18.907-8.928c1.664-.65,2.385,2.032.738,2.676" transform="translate(-14.708 -986.182)" fill="#42403f"/>
    <path id="Path_4706" data-name="Path 4706" d="M865.4,737.128c-6.059,1.214-12.124,2.4-18.166,3.7-1.405.3-2.8.616-4.184,1.014a138.151,138.151,0,0,0-14.64,4.817c-6.11,2.525-13.018,5.969-16.7,11.721a51.1,51.1,0,0,0-5,11.336c-1.79,5.317-3.218,10.755-4.5,16.213-2.817,11.962-4.941,24.092-6.713,36.249a232.439,232.439,0,0,0-2.75,24.35c-.016.422-.027.844-.021,1.266a1.388,1.388,0,0,1-2.775,0,68.959,68.959,0,0,1,.554-8c.482-4.783,1.087-9.553,1.743-14.315,1.683-12.217,3.74-24.4,6.408-36.444,1.265-5.711,2.67-11.4,4.394-16.99a74.691,74.691,0,0,1,5.124-13.1c2.986-5.618,8.094-9.4,13.649-12.279a99.13,99.13,0,0,1,19.636-7.263c5.409-1.478,10.935-2.485,16.43-3.593q3.385-.683,6.772-1.36c1.744-.349,2.49,2.325.738,2.676" transform="translate(-789.944 -605.24)" fill="#42403f"/>
    <path id="Path_4707" data-name="Path 4707" d="M867.983,1096.19c-.109,4.507-.53,9-.759,13.5-.231,4.548-.088,9.1-.146,13.654q-.163,12.715-.3,25.43c-.146,13.574-.271,27.148-.263,40.722.006,9.286.052,18.577.372,27.858.111,3.213.256,6.426.492,9.633.092,1.241.2,2.482.328,3.72q.088.835.193,1.668.022.177.046.353c-.037-.281-.01-.072.011.072.036.25.072.5.111.75a109.441,109.441,0,0,0,6.9,23.454c1.414,3.551,2.724,7,5.343,9.851,2.174,2.367,4.735,4.322,7.031,6.562a21.393,21.393,0,0,1,2.763,3.236c1.009,1.479-1.394,2.868-2.4,1.4-1.68-2.461-4.151-4.329-6.346-6.3a27.207,27.207,0,0,1-6.363-7.592A102.729,102.729,0,0,1,870.118,1252a111.912,111.912,0,0,1-3.734-12.595,105.383,105.383,0,0,1-2.158-19c-.381-8.791-.451-17.6-.481-26.395-.044-13.1.062-26.194.192-39.29q.123-12.371.282-24.741c.057-4.547.2-9.1.1-13.649-.1-4.516.269-9.023.564-13.525.145-2.2.269-4.407.323-6.615.043-1.783,2.818-1.789,2.775,0" transform="translate(-830.954 -882.322)" fill="#42403f"/>
    <path id="Path_4708" data-name="Path 4708" d="M311.955,1148.47c1.1,17.628,1.383,35.3,1.318,52.96-.05,13.669-.378,27.332-.6,41-.2,12.168.279,24.337.483,36.5.175,10.463.365,20.936.165,31.4a149.916,149.916,0,0,1-1.04,16.319q-.122.949-.257,1.9c-.251,1.761-2.925,1.012-2.676-.738q.058-.406.113-.812c-.051.375.053-.406.071-.552q.106-.833.2-1.668.2-1.773.335-3.552c.225-2.861.349-5.729.427-8.6.263-9.648.108-19.309-.037-28.957-.19-12.676-.755-25.369-.6-38.046.152-12.817.51-25.629.612-38.447.138-17.335-.023-34.683-.9-52q-.171-3.355-.381-6.708c-.111-1.783,2.664-1.777,2.775,0" transform="translate(-125.779 -922.516)" fill="#42403f"/>
    <path id="Path_4709" data-name="Path 4709" d="M443.906,1891.125c-7.365,3.886-15.585,5.988-23.77,7.278a149.632,149.632,0,0,1-24.856,1.64c-17.69-.179-35.619-1.748-52.6-6.955a104.214,104.214,0,0,1-27.131-12.595c-1.481-.983-.093-3.387,1.4-2.4,14.567,9.666,31.535,14.728,48.725,17.156a220.1,220.1,0,0,0,25.986,1.958,165.388,165.388,0,0,0,24.392-1.006c9.051-1.144,18.333-3.19,26.454-7.475,1.578-.833,2.982,1.562,1.4,2.4" transform="translate(-258.3 -1484.266)" fill="#42403f"/>
    <path id="Path_4710" data-name="Path 4710" d="M898.454,1880.485a31.99,31.99,0,0,1-16.1,10.765c-5.846,1.8-12.786,2.166-18.11-1.3-1.491-.971-.1-3.375,1.4-2.4,4.724,3.077,10.8,2.612,15.972,1.023,5.468-1.681,10.939-4.881,14.443-9.49,1.067-1.4,3.478-.022,2.4,1.4" transform="translate(-839.309 -1484.756)" fill="#42403f"/>
    <path id="Path_4711" data-name="Path 4711" d="M1001.116,1225.1c-11.037-.01-22.5-.565-33.146-3.725a1.389,1.389,0,0,1,.738-2.676c10.418,3.093,21.6,3.615,32.408,3.625a1.388,1.388,0,0,1,0,2.775" transform="translate(-966.948 -977.479)" fill="#42403f"/>
    <path id="Path_4712" data-name="Path 4712" d="M1105.392,1225.745c-.479,12.488-1.215,24.963-1.587,37.455-.105,3.532-.192,7.066-.194,10.6a1.388,1.388,0,0,1-2.775,0c.009-13.625.813-27.261,1.456-40.867.114-2.4.234-4.791.325-7.188.068-1.78,2.844-1.789,2.775,0" transform="translate(-1100.834 -981.919)" fill="#42403f"/>
    <path id="Path_4713" data-name="Path 4713" d="M1006.244,1433.067c2.439,15.638,4.754,31.341,7.988,46.84,2.344,11.233,5.657,22.239,8.394,33.378,1.314,5.348,2.6,10.7,3.916,16.049a51.273,51.273,0,0,1,1.33,7.906,16.234,16.234,0,0,0,2.477,7.609c.965,1.509-1.435,2.9-2.4,1.4a17.481,17.481,0,0,1-2.644-7.1c-.284-2.049-.281-4.137-.728-6.162-1.127-5.1-2.483-10.16-3.719-15.234-1.946-7.989-4.011-15.941-6.143-23.882-2.474-9.215-4.3-18.564-5.935-27.961-1.859-10.681-3.544-21.392-5.214-32.1-.273-1.747,2.4-2.5,2.676-.738" transform="translate(-1003.516 -1141.555)" fill="#42403f"/>
    <path id="Path_4714" data-name="Path 4714" d="M309.9,1925.623a309.762,309.762,0,0,1,1.668,40.839c-.065,1.781-2.84,1.789-2.775,0a309.762,309.762,0,0,0-1.668-40.839c-.171-1.777,2.6-1.765,2.775,0" transform="translate(-123.604 -1519.96)" fill="#42403f"/>
    <path id="Path_4715" data-name="Path 4715" d="M677.19,1950.359c-.434,11.053,0,22.132,0,33.189a1.388,1.388,0,0,1-2.775,0c0-11.057-.434-22.136,0-33.189.07-1.78,2.845-1.789,2.775,0" transform="translate(-573.98 -1538.969)" fill="#42403f"/>
    <path id="Path_4716" data-name="Path 4716" d="M689.257,1977.733c-3.815-.57-7.478-1.963-9.709-5.276-2.705-4.019-2.89-9.521-2.977-14.188-.084-4.541.141-9.087.4-13.619.1-1.775,2.878-1.787,2.775,0-.38,6.605-.948,13.5.058,20.08a16.92,16.92,0,0,0,1.622,5.47,7.876,7.876,0,0,0,2.907,3.1,15.243,15.243,0,0,0,5.66,1.756c1.76.263,1.012,2.937-.738,2.676" transform="translate(-588.326 -1534.582)" fill="#42403f"/>
    <path id="Path_4717" data-name="Path 4717" d="M1007.666,1918.371c-.253,13.532-1.182,27.048-1.192,40.585a1.388,1.388,0,0,1-2.775,0c.01-13.538.939-27.053,1.192-40.585a1.388,1.388,0,0,1,2.775,0" transform="translate(-980.643 -1514.377)" fill="#42403f"/>
    <path id="Path_4718" data-name="Path 4718" d="M588.586,540.738c1.824,7.4,11.834,7.99,17.961,9,1.758.291,1.012,2.965-.738,2.676-7.3-1.207-17.764-2.277-19.9-10.941-.427-1.734,2.248-2.473,2.676-.738" transform="translate(-483.905 -455.583)" fill="#42403f"/>
    <path id="Path_4719" data-name="Path 4719" d="M628.4,566.185a15.94,15.94,0,0,0-.138,4.937,2.955,2.955,0,0,0,.37,1.028c-.044-.063.3.287.214.218s.458.225.205.121a6.031,6.031,0,0,0,2.266.3,26.2,26.2,0,0,1,3.532.319c1.756.306,1.012,2.98-.738,2.676-2.119-.369-4.677.178-6.6-.98-2.8-1.685-2.224-5.921-1.891-8.617.217-1.749,2.994-1.771,2.775,0" transform="translate(-521.333 -474.893)" fill="#42403f"/>
    <path id="Path_4720" data-name="Path 4720" d="M657.466,751.9a28.4,28.4,0,0,1-15.663-4.367,26.991,26.991,0,0,1-9.615-11.651,38.309,38.309,0,0,1-2.688-9.042c-.3-1.747,2.374-2.5,2.676-.738,1.63,9.51,6.815,18.48,16.4,21.661a28.509,28.509,0,0,0,8.892,1.363,1.388,1.388,0,0,1,0,2.775" transform="translate(-545.248 -598.074)" fill="#42403f"/>
    <path id="Path_4721" data-name="Path 4721" d="M635.281,1000.99a19.591,19.591,0,0,0-7.1-.229c-1.746.318-2.495-2.356-.738-2.676a23.2,23.2,0,0,1,8.572.229c1.749.354,1.009,3.03-.738,2.676" transform="translate(-522.757 -807.703)" fill="#42403f"/>
    <path id="Path_4722" data-name="Path 4722" d="M751.96,695.073a59.444,59.444,0,0,1-6.572,5.436,68.765,68.765,0,0,0-5.537,4.2c-1.33,1.184-3.3-.772-1.962-1.962,3.868-3.443,8.373-6.014,12.109-9.635,1.283-1.244,3.247.716,1.962,1.962" transform="translate(-663.786 -573.177)" fill="#42403f"/>
    <path id="Path_4723" data-name="Path 4723" d="M466.21,700.441c2.435,3.253,4.937,6.457,7.474,9.631,1.1,1.381-.847,3.357-1.962,1.962-2.684-3.359-5.331-6.75-7.907-10.193-1.07-1.431,1.338-2.815,2.4-1.4" transform="translate(-322.081 -578.662)" fill="#42403f"/>
    <path id="Path_4724" data-name="Path 4724" d="M126.873,854.328c5.841,6.294,7.729,16.45,5.1,24.556-.548,1.692-3.228.968-2.676-.738,2.318-7.156.8-16.266-4.39-21.856-1.214-1.308.744-3.274,1.962-1.962" transform="translate(97.19 -697.086)" fill="#42403f"/>
    <path id="Path_4725" data-name="Path 4725" d="M317.054,742.408c7.594,1.521,15.331,2.761,22.8,4.843,3.827,1.067,7.758,1.4,11.484,2.847,1.646.64.931,3.324-.738,2.676-4.088-1.589-8.487-2.043-12.7-3.2-2.627-.719-5.328-1.2-7.993-1.749q-6.79-1.394-13.588-2.745c-1.75-.35-1.009-3.026.738-2.676" transform="translate(-166.064 -611.356)" fill="#42403f"/>
    <path id="Path_4726" data-name="Path 4726" d="M526.835,345.139c.926-6.971,2-14.243.735-21.24a19.1,19.1,0,0,0-4.061-9.311,14.8,14.8,0,0,0-1.89-1.818c-.036-.028-.475-.353-.32-.3-.157-.05-.067,0-.143.083a14.281,14.281,0,0,0-1.521,2.534c-.839,1.36-2.086,1.16-3,.01-1.065-1.347-2.116-2.7-3.2-4.033a43.74,43.74,0,0,0-8.271-8.322,11.73,11.73,0,0,0-4.483-2.119c-.34-.064-.216.042-.064-.053-.219.137.138-.074.18-.115a3.6,3.6,0,0,0,.243-.32c.015-.018.011-.05.013-.018.007.1.049.609.007.306.236,1.679,1.194,3.456.72,5.175-1.276,4.628-8.632-.684-10.781-1.964-2.463-1.467-4.931-2.93-7.451-4.3-1.08-.586-2.169-1.161-3.289-1.668a8.781,8.781,0,0,0-.943-.385c-.169-.059-.341-.106-.511-.161-.433-.138-.176,0-.162-.045.023-.082-.654.252.146-.036-.256.092.234-.375.444-.274a.428.428,0,0,0-.064.237,18.68,18.68,0,0,1,.218,2.045c.22,1.46.321,3.041-.834,4.157-2.42,2.337-5.08-.577-6.951-2.067a8.7,8.7,0,0,0-1.442-1c-.2-.1-.394-.14-.589-.232-.024-.011-.009.006.007-.011.2-.221-.075.167-.139.3.194-.391-.131.445-.177.617a32.941,32.941,0,0,0-.844,5.541c-1.055,10.867-1.113,21.867-1.163,32.778q0,.975-.005,1.951a1.388,1.388,0,0,1-2.775,0c0-10.672.131-21.393.938-32.038.183-2.417.4-4.843.808-7.234.248-1.446.52-3.394,1.876-4.253,2.55-1.614,5.372,1.635,7.186,3.027.316.242.94.62,1.107.719.082.049.246.008.012.023-.38.025.08.016.116-.05.117-.209.127-.081.241-.364a4.013,4.013,0,0,0-.144-1.725,9.467,9.467,0,0,1-.2-2.388c.115-1.21.813-2.482,2.161-2.5a6.417,6.417,0,0,1,2.483.707,67.11,67.11,0,0,1,7.141,3.757c2.359,1.361,4.687,2.774,7.034,4.156.576.339,1.149.7,1.752.988a7.849,7.849,0,0,0,1.865.659,4.067,4.067,0,0,0,.575.048c-.118-.007-.112-.04-.223.11-.123.167-.064.161-.093.133-.094-.088.011.073.007.009-.007-.093.01-.191.005-.286a4.462,4.462,0,0,0-.164-1.016c-.192-.844-.454-1.671-.587-2.528a2.859,2.859,0,0,1,.606-2.658c.947-.881,2.368-.52,3.46-.167,3.7,1.2,6.768,4.02,9.388,6.788,1.391,1.47,2.7,3.015,3.973,4.589q.84,1.039,1.664,2.092l.75.956c.139.176.825.83.837,1.057.018.348-1.918-.523-1.865.087,0-.055.107-.142.118-.2a3.47,3.47,0,0,1,.353-.688,11.753,11.753,0,0,1,.852-1.469c.808-1.138,2.02-2.04,3.482-1.613,1.538.449,2.974,2.163,3.942,3.37a19.255,19.255,0,0,1,2.725,4.583c2.968,7.012,2.445,15.076,1.582,22.466-.191,1.64-.411,3.277-.629,4.915a1.436,1.436,0,0,1-1.388,1.387,1.394,1.394,0,0,1-1.388-1.387" transform="translate(-379.198 -266.89)" fill="#42403f"/>
    <path id="Path_4727" data-name="Path 4727" d="M420.769,309.187c2.186-3.661,2.407-8.055,2.473-12.213.067-4.209-.139-8.478.675-12.633.665-3.392,2.77-6.4,3.243-9.826a6.078,6.078,0,0,0-1.042-3.405,45.1,45.1,0,0,0-2.919-4.6c-2.391-3.414-5.177-6.679-7.076-10.408-.809-1.588,1.585-2.994,2.4-1.4,1.73,3.4,4.223,6.4,6.428,9.492,1.923,2.7,4.555,5.924,4.978,9.328a11.106,11.106,0,0,1-1.024,4.921c-.57,1.567-1.321,3.078-1.818,4.67-1.316,4.214-1.012,8.8-1.058,13.155-.051,4.873-.3,10.026-2.861,14.319a1.389,1.389,0,0,1-2.4-1.4" transform="translate(-267.029 -235.915)" fill="#42403f"/>
    <path id="Path_4728" data-name="Path 4728" d="M770.78,329.334c-6.533,8.36-1.93,20.246-.074,29.422.353,1.744-2.322,2.49-2.676.738-2.115-10.457-6.582-22.69.788-32.121,1.1-1.406,3.05.57,1.962,1.962" transform="translate(-688.82 -291.948)" fill="#42403f"/>
    <path id="Path_4729" data-name="Path 4729" d="M530.724,207.968c-3.152-3.76-4.509-8.808-5.611-13.491-.534-2.268-.978-4.555-1.465-6.833-.185-.864-.372-1.729-.6-2.581-.089-.327-.188-.649-.3-.97-.038-.114-.08-.229-.127-.339.115.264-.022-.028-.076-.123-.14-.247,0,0,.017,0-.227-.041.319.177.358.189s.4.017.409.024c.209.242.118-.161.048.019-.042.107-.516.335-.642.451a10.118,10.118,0,0,0-1.886,2.982c-.982,1.94-2.445,5.222-5.041,5.272-1.443.028-2.039-1.205-3-2a32.412,32.412,0,0,0-4.654-3.014,70.442,70.442,0,0,0-9.813-4.474,101.13,101.13,0,0,0-11.387-3.583,22.256,22.256,0,0,0-4.865-.894c-.313,0-.031.018-.023,0-.013.035.134-.04.184-.083l.283-.506a.657.657,0,0,0,.247-.751c-.1.117.142.4.166.444.383.752.828,1.471,1.281,2.183,1.179,1.856,2.437,3.66,3.661,5.487.67,1,2.074,2.532,2.062,3.83-.02,2.123-3.249,1.4-4.539,1.319-1.969-.126-3.952-.184-5.917-.344-3.358-.273-6.776-.937-10.151-.555a9.815,9.815,0,0,0-2.206.5c-.161.058.015-.246-.045.039a4.09,4.09,0,0,0-.068.489,14.254,14.254,0,0,0,.321,3.285,14.214,14.214,0,0,1-1.056,6.843c-.959,2.749-2.161,5.413-3.025,8.194a11.65,11.65,0,0,0-.65,3.217,1.388,1.388,0,0,1-2.775,0c.061-3.38,1.712-6.693,2.9-9.789,1.083-2.821,2.252-5.6,1.787-8.637a9.729,9.729,0,0,1-.042-4.507c.574-1.693,2.4-2.067,3.983-2.3,4.3-.636,8.557.446,12.85.546,1.169.027,2.333.125,3.5.2.758.05,1.516.1,2.275.139.289.015.578.031.867.038.5.012.649-.2-.1.174l-.638.829q0,.322,0,.644a.717.717,0,0,0-.031-.1c-.037.056.2.3.046.119a3.454,3.454,0,0,1-.272-.493c-.28-.481-.588-.948-.893-1.413-.841-1.28-1.71-2.541-2.564-3.812-.827-1.23-1.659-2.463-2.411-3.742a4.758,4.758,0,0,1-1.023-2.815c.381-2.524,4.709-1.14,6.19-.8,2.712.621,5.4,1.39,8.052,2.214a90.9,90.9,0,0,1,10.977,4.291,52.641,52.641,0,0,1,6.936,3.811,19.467,19.467,0,0,1,2.753,1.979c.293.28.529.617.8.914.211.228-.208.11-.02.084s.408-.274.53-.385c2.515-2.274,2.612-6.94,6.223-8.15,2.288-.767,2.976,2.13,3.375,3.749.87,3.523,1.45,7.111,2.361,10.627.923,3.563,2.024,7.518,4.436,10.4,1.14,1.36-.813,3.333-1.962,1.962" transform="translate(-380.241 -175.791)" fill="#42403f"/>
    <path id="Path_4730" data-name="Path 4730" d="M593.4,1376.732c0,.051.007.1.01.154L593,1375.9l-1.494.107q-.07.534-.14,1.069c-.031-.228-.958-.683-1.165-.818l-1.545-1.011-3.089-2.022-5.793-3.791-11.972-7.834-23.944-15.668c-1.489-.974-.1-3.378,1.4-2.4l44.8,29.315c1.35.884,4.478,2.139,3.985,4.225a1.744,1.744,0,0,1-3.421-.349c-.115-1.783,2.66-1.776,2.775,0" transform="translate(-460.589 -1073.326)" fill="#42403f"/>
    <path id="Path_4731" data-name="Path 4731" d="M549.375,1515.832q-11.523-11.285-23.943-21.6c-1.375-1.142.6-3.1,1.962-1.962q12.41,10.3,23.943,21.6c1.278,1.252-.685,3.213-1.962,1.962" transform="translate(-414.025 -1187.58)" fill="#42403f"/>
    <path id="Path_4883" data-name="Path 4883" d="M293.326,1234.917c-1.964-4.3-3.883-8.619-5.846-12.918-.737-1.613,1.654-3.025,2.4-1.4,1.963,4.3,3.883,8.619,5.846,12.918.736,1.613-1.655,3.025-2.4,1.4" transform="translate(-103.183 -978.438)" fill="#42403f"/>
  </g>
</svg>
