<svg id="Group_213" data-name="Group 213" xmlns="http://www.w3.org/2000/svg" xmlns:xlink="http://www.w3.org/1999/xlink" width="792.018" height="858.85" viewBox="0 0 792.018 858.85">
  <defs>
    <clipPath id="clip-path">
      <rect id="Rectangle_67" data-name="Rectangle 67" width="792.018" height="858.85" fill="none"/>
    </clipPath>
  </defs>
  <path id="Path_4154" data-name="Path 4154" d="M80.138,230.047l-9.356,3.43-11.228,1.731L38.129,232.84,23.8,223.948,16.48,237.742l-2.83,21.93,3.3,43.388-2.012,48.56L8.861,389.779V427.8l4.9,35.456,10.025,2.98,4.9-5.884,4.294-63.206,11.525-41.4,1.681,33.616-1.681,24.053,4.571,68.467,9.371,2.629,5.458-5.39,2.8-48.256,5.675-26.17,5.878-15.1,5.687-42.541,6.047-61.214-2.249-27.128Z" transform="translate(8.934 225.796)"/>
  <path id="Path_4155" data-name="Path 4155" d="M35.643,205.5l3.657-2.2,1.912-13.449,7.834.074,4.709-7.742,1.191-23.137-26.328,6.1v33.168Z" transform="translate(28.854 160.365)" fill="#85bdff"/>
  <path id="Path_4156" data-name="Path 4156" d="M81.979,221.946l-9.389-5.31-4.047.956-2.868,9.117L53.7,222.169l-6.226-13.947-4.649-3.275L53.7,160.829l32.261,8.194L83.6,181.932l3.255,3.077v21.123l-2.749,8.475Z" transform="translate(43.175 162.157)" fill="#85bdff"/>
  <path id="Path_4157" data-name="Path 4157" d="M20.4,232.048l-8.16-6.5,7.059-9.634,3.125,3.249Z" transform="translate(12.34 217.696)" fill="#85bdff"/>
  <g id="Group_212" data-name="Group 212">
    <g id="Group_211" data-name="Group 211" clip-path="url(#clip-path)">
      <path id="Path_4158" data-name="Path 4158" d="M25.118,189.307s-21.7,25.718-17.606,44.732,17.305,22.521,17.305,22.521l-4.729,4.047-7.557-6.585L3.423,243.785,2.009,224.955l9.206-23.181,13.9-19.679Z" transform="translate(2.026 183.598)" fill="#85bdff"/>
      <path id="Path_4159" data-name="Path 4159" d="M34.1,183.442l13.907,6.987s4.8-.227,6.844,9.047,6.6,25.467,10.531,28.14,6.627-1.5,7.794-4.051,9.5-24.089,9.5-24.089l-3.93-1.886L68.022,222.217,56.9,189.573l-9.117-6.131L36.25,179.421Z" transform="translate(34.385 180.902)" fill="#85bdff"/>
      <path id="Path_4160" data-name="Path 4160" d="M23.277,202.9s9.244,30.27-3.573,53.749l-3.014-3.3,2.94-16.134.363-18.2-4.075-24.217Z" transform="translate(16.05 196.402)" fill="#85bdff"/>
      <path id="Path_4161" data-name="Path 4161" d="M28.094,228.011S19.8,246.469,19.965,261.8s3.727,58.478,2.653,71.92-9.328,67.676-9.091,80.174,4.539,51.269,4.539,51.269l-3.776-.729L8.516,426.151V393.609l7.368-40.794.97-22.422L13.96,263.521l-.906-14.459,11.1-25.113Z" transform="translate(8.586 225.797)" fill="#85bdff"/>
      <path id="Path_4162" data-name="Path 4162" d="M26.16,255.072l4.6-2.239a113.273,113.273,0,0,1,4.834,34.309c-.472,18.275-1.534,32.893-1.3,46.334s2.123,22.874.472,31.835-1.888,34.309-1.179,43.5S36.3,453.8,36.3,453.8l-4.067-1.034-4.569-68.467,2.269-18.629-.219-29.005-.843-22.4V272.168l-3.3-17.1Z" transform="translate(25.781 254.92)" fill="#85bdff"/>
      <path id="Path_4163" data-name="Path 4163" d="M209.831,302.666s-10.5,6.557-11.443,7.027-15.182,4.627-15.182,4.627l-22.41,1.356L138.2,307.57l-2.167,24.1-1.3,26.913,2.757,26.537s9.859,50.668,11.039,52.725,4.719,22.1,4.719,22.1l4.928,64.887,7.569,3.986,10.114-3.125,4.758-53.709-2.585-26.214v-45.72l13.417,54.47,5.392,51.719,4.043,3.257,9.451-1.97,4.8-24.714V458.478l-3.006-27.889-3.261-24.376-2.078-32.588,1.934-30.869,1.6-31.026Z" transform="translate(135.846 305.164)"/>
      <path id="Path_4164" data-name="Path 4164" d="M184.049,248.875l3.026,9.746-1.514,5.5-5.816,2.765-9.377,1.842-5.133-2.247-2.468-15.251-7.907.866-4.117-6.376-1.185-7.151,2.984-25.607,5.892,2.046,27.443,18.916Z" transform="translate(150.794 214.721)" fill="#85bdff"/>
      <path id="Path_4165" data-name="Path 4165" d="M192.773,303.724l10.841.685,2.621,7.18,1.6,11.863-4.223,13.437-12.152,1.572-2.332-7.232-2.2-4.874,3.842-16.875Z" transform="translate(188.472 306.232)" fill="#85bdff"/>
      <path id="Path_4166" data-name="Path 4166" d="M201.85,255.2s-12.449,5.36-21.081,9.967S152.8,280.932,138.654,275.9s-16.8-22.95-18.382-27.981-6.141-21.537-6.141-21.537l3.35.932,4.982,6.354,8.7,28.983,6.8,6.477,9.5,1.428,17.253-4.7,10.363-5.119,20.96-11.313h3.055Z" transform="translate(115.073 228.253)" fill="#85bdff"/>
      <path id="Path_4167" data-name="Path 4167" d="M167.3,241.474s20.085-6.557,27.945,4.94l-3.771-9.969-8.332-2.175-13.953,2.868Z" transform="translate(168.68 236.204)" fill="#85bdff"/>
      <path id="Path_4168" data-name="Path 4168" d="M183.55,255.778s11.475,21.693,17.371,35.685,10.8,30.813,9.842,47.162-5.991,26.079-5.991,26.079l4.185.177,3.82-7.463,4.256-22.095-3.647-27.844L199.971,273.9l-16.55-30.835Z" transform="translate(184.935 245.074)" fill="#85bdff"/>
      <path id="Path_4169" data-name="Path 4169" d="M145.773,261.859s-.221,6.256,0,19.7-3.788,46.925-2.609,56.123,2.617,16.2,2.617,16.2l-8.467-5.163-1.7-17.167,5.083-50.933-1.245-17.337Z" transform="translate(136.736 264.021)" fill="#85bdff"/>
      <path id="Path_4170" data-name="Path 4170" d="M144.761,310.271a300.7,300.7,0,0,0-3.171,47.939c.341,26.883,15.9,81.842,17.084,92.209s4.679,75.617,4.679,75.617l-5.175-3.665-5.535-68.293-4.113-18.695L141.566,404.9l-5.607-30.594-1.225-26.178,3.47-43.021Z" transform="translate(135.846 307.627)" fill="#85bdff"/>
      <path id="Path_4171" data-name="Path 4171" d="M161.775,326.53l5.344,2.036s-6.752,29.738-5.344,42.354c0,0,11.429,47.043,13.315,57.418s4.48,31.481,4.362,39.026,0,18.072,0,18.072l-4.045-3.257-5.625-50.56-5.071-23.087c.235-1.062-8.726-36.787-8.726-36.787l2.36-31.126Z" transform="translate(157.277 329.225)" fill="#85bdff"/>
      <path id="Path_4172" data-name="Path 4172" d="M217.083,403.306l-.715,3.735-1.08,3.432.38,3.583.229,4.629-.45,5.651-2.81.7-4.2.591-1.556-.339-2.207-2.37v-1.777l-2.458-.912s-3.294-1.119-3.448-1.215-4.065-2.5-4.065-2.5l-4.472-4.211-1.695-2.416-.38-1.452.313-1.731,1.589-1.442,2.838-.809,2.761.034,3.81,1.46,1.783.273V402.7l-.245-2.876a110.4,110.4,0,0,0-14.132-.894c-1.275,0-2.536.028-3.79.07L181.016,425.2l-.207,3.436-2.444,1.984-.57,1.183,2.627,2.352,1.233,3.9-.273,6.037-6.722,3.285-1.8-.783-4.095-.934v-1.36l-6.045-2.462-6.669-.743-4.255-2.705-2.438-3.071.259-2.261,2.048-1.679,3.249-1.454,3.864-.263,5.352,1.062,1.378-.307-2.127-2.077-.516-2.719-.2-7.68-.6-11.927-.283-4.157c-18.922,4.7-31.951,14.534-31.951,25.912,0,15.935,25.541,28.853,57.048,28.853s57.046-12.917,57.046-28.853c0-10.322-10.724-19.374-26.838-24.473" transform="translate(130.898 402.219)" fill="#85bdff"/>
      <path id="Path_4173" data-name="Path 4173" d="M185.723,408.342l-3.984,1.37H176.31l-2.876-1.412-1.376-2.478-.118-2.109a14.726,14.726,0,0,1-3.814-1.4c-2.3-1.3-7.746-.7-8.941,1.659a.9.9,0,0,0-.028.11,3.977,3.977,0,0,0-.06,2.814c1.94,3.348,4.354,5.806,11.732,10.206a23.985,23.985,0,0,0,4.561,1.311v1.777s1.681,2.233,2.52,2.546c1.906.709,8.248-1.131,8.248-1.131s.125.2.267-3.067a26.486,26.486,0,0,0-.7-10.194" transform="translate(160.183 404.953)"/>
      <path id="Path_4174" data-name="Path 4174" d="M170.617,418.723a5.611,5.611,0,0,0-2.219-2.47l-.155-.012-.572,2.47-3.524,1.181-4.782-.48-1.878-2.34-1.54-1.8a29.706,29.706,0,0,1-5.491-.695c-4.177-1-8.1.281-9.533,2.332-.426.275-.829.54-1.115.715a4,4,0,0,0-.036,2.725c1.884,3.251,6.77,6.436,14.532,7.682,1.137.183,4.653.835,4.653.835v1.36s2.93,1.673,3.743,1.978c1.852.689,8.876-3.544,8.876-3.544s.12.191.259-2.978a17.874,17.874,0,0,0-1.219-6.963" transform="translate(140.703 417.654)"/>
      <path id="Path_4175" data-name="Path 4175" d="M198.65,227.042a17.806,17.806,0,0,0-6.25-12.736c-5.36-4.673-22.551-12.429-34.622-6.714-12.325,5.836-7.306,30.1-3.348,35.578,1.87,2.585,7.575-2.781,9.093,1a24.2,24.2,0,0,1,.811,2.4l1.293-1.382a4.864,4.864,0,0,1,4.677-3.312c3.771-.038,3.346,2.44,2.185,4.87-1.6,3.352-4.521,4.243-5.88,3.6a1.817,1.817,0,0,1-.484-.347l-1.249-.141a9.486,9.486,0,0,1-.082,1.6,6.673,6.673,0,0,0,2.713,6.575c3.348,2.187,11.907,3.271,14.309.833,4.832-4.9,10.814-6.386,14.17-13.413,1.265-2.649,3.551-8.184,2.663-18.416" transform="translate(151.22 207.269)"/>
      <path id="Path_4176" data-name="Path 4176" d="M178.607,292.546c3.741,8.059,8.17,16.12,11.584,21.954,6.818,11.648,6.459,34.879,7.167,41.3a3.063,3.063,0,0,0,.751,1.607,54.834,54.834,0,0,1,.263,7.525,1.7,1.7,0,0,0,1.376,1.954c3.352.578,8.9.291,12.256.87a1.691,1.691,0,0,0,1.93-1.448c.169-.974.611-2.892,1.012-4.579a4.433,4.433,0,0,0,1.046-.231c2.111-.9,3.342-6.792,3.745-9.214,2.44-14.62,1.2-31.136-.568-38.922-4.689-20.683-20.757-51.136-33.468-72.47" transform="translate(180.081 242.883)" fill="none" stroke="#000" stroke-linejoin="round" stroke-width="2"/>
      <path id="Path_4177" data-name="Path 4177" d="M198.85,324.465s0-5.987-.07-8.467a38.92,38.92,0,0,0-3.543-11.933" transform="translate(196.849 306.575)" fill="none" stroke="#000" stroke-linejoin="round" stroke-width="2"/>
      <path id="Path_4178" data-name="Path 4178" d="M206.8,324.725a59.493,59.493,0,0,1-1.163,6.832,16.714,16.714,0,0,1-2.629,4.44,1.917,1.917,0,0,1-1.655.613c-.743-.257-8.1,2.52-8.959,2.5-1.064-.022-1.432-1.311-1.526-1.916-.476-3.081-1.468-6.718-1.468-6.718-2.181.167-2.161-3.591-1.962-9.3a23.306,23.306,0,0,1,2.45-9.7l1.8-7.794" transform="translate(188.902 306.194)" fill="none" stroke="#000" stroke-linejoin="round" stroke-width="2"/>
      <path id="Path_4179" data-name="Path 4179" d="M152.868,212.609s-3.725,22.784-3.269,27.18c1.275,12.29,4.916,12.684,13.287,12.666a23.12,23.12,0,0,0,5.462-.607" transform="translate(150.794 214.364)" fill="none" stroke="#000" stroke-linejoin="round" stroke-width="2"/>
      <path id="Path_4180" data-name="Path 4180" d="M167.05,230.012c.645,3.173,1.779,8.746,2.39,10.728" transform="translate(168.429 231.911)" fill="none" stroke="#000" stroke-linejoin="round" stroke-width="2"/>
      <path id="Path_4181" data-name="Path 4181" d="M138.5,305.09s-3.061,36.38-3.539,44.439c-1.934,32.552,9.158,72.99,15.223,95.45,4.958,18.352,7.84,68.825,7.73,79.531.438,7.848,17.976,5.912,18.07,1.615.482-21.934,4.866-47.011,4.129-65.409-.149-3.705-1.763-18.518-1.631-22.205a377.517,377.517,0,0,0-.446-40.84s10.571,46.885,11.845,52.391c4.237,18.333,6.471,52.247,6.965,57.189.5,4.984,12.775,4.35,13.861.566,3.759-13.086,4.876-34.293,4.28-45.77-.289-5.583-1.372-19.036-2.072-24.581-1.958-15.476-5.772-36.655-6.111-59.768-.3-20.552,3.689-46.126,3.689-55.388,0-8.031-.349-15.61-.833-20.647" transform="translate(135.847 304.154)" fill="none" stroke="#000" stroke-linejoin="round" stroke-width="2"/>
      <path id="Path_4182" data-name="Path 4182" d="M139.524,291.6c-.064,2.966-.056,6,.018,9.063.444,18.223-4.462,43.85-3.239,66.347.725,13.335,7.465,15.909,22.6,17.092,22.758,1.779,38.557-2.968,47.608-12.357,5.689-5.9,4.163-11.564,4.189-15.313.135-18.474-.831-19.544,9.071-52.012,3.065-10.047,18.681-50.528,3.79-66.047-6.081-6.338-15.008-3.964-22.92-1.93,0,0,.412,9.983-16.7,10.8-5.485.263-7-5.774-7-5.774-10.664,3.932-14.534,6.977-26.087,12.278a17.99,17.99,0,0,0-3.334,2.559" transform="translate(137.23 236.204)" fill="none" stroke="#000" stroke-linejoin="round" stroke-width="2"/>
      <path id="Path_4183" data-name="Path 4183" d="M177.483,264.016c-17.026,4.936-22.758,10.029-34.2,5.1-8.507-3.663-12.911-30.206-16.144-35.8a3.916,3.916,0,0,0-2.44-1.671,23.884,23.884,0,0,1-1.042-3.6c-.1-.926-.958-1.283-1.86-1.5-4.286-1.02-6.137-.227-10.393,1.8-.862.408-1.558.97-1.456,1.924.1.916.195,2.681.271,4.32a2.45,2.45,0,0,0-.715.823c-5.7,13.582,7.617,46.577,20.2,56.332,11.126,8.625,27.218,12.361,51.319,3.822C204.86,287.115,192.163,259.761,177.483,264.016Z" transform="translate(109.035 227.968)" fill="none" stroke="#000" stroke-linejoin="round" stroke-width="2"/>
      <path id="Path_4184" data-name="Path 4184" d="M122.757,242.948s1.05-6.4,1.621-7.5c0,0,3.245-3.478,3.257-7.105.02-5.764-.283-8.372-1.936-8.154l-3.263-8.105c-.106-.765-.7-2.561-1.653-2.625-.86-.056-8.206,2.822-8.539,2.727a1.92,1.92,0,0,0-1.617.709,11.607,11.607,0,0,0-1.976,3.814c-.446,1.651-1.665,6.543-1.665,6.543s-.147,7.509.765,10.69c.785,2.741,2.3,8.007,4.731,10.674" transform="translate(107.861 211.191)" fill="none" stroke="#000" stroke-linejoin="round" stroke-width="2"/>
      <line id="Line_16" data-name="Line 16" x2="0.866" y2="10.859" transform="translate(313.295 466.818)" fill="none" stroke="#000" stroke-linejoin="round" stroke-width="2"/>
      <path id="Path_4185" data-name="Path 4185" d="M156.295,372.6s.922-34.586,5.173-46.069" transform="translate(157.585 329.225)" fill="none" stroke="#000" stroke-linejoin="round" stroke-width="2"/>
      <path id="Path_4186" data-name="Path 4186" d="M73.992,339.979c-.8,10.851-1.191,20.217-1.147,24.527a4.9,4.9,0,0,1-2,3.774c0,.655-.01,1.137-.024,1.265a27.429,27.429,0,0,0,8.917-.325c6.838-1.972,8.3,1.741,8.579,1.916a2.073,2.073,0,0,1,.141,1.986c-1.884,3.255-6.774,6.443-14.54,7.688-1.139.185-4.916.408-4.916.408v1.36s-2.93,1.675-3.745,1.98c-1.852.689-7.943-3.121-7.943-3.121s-.123.189-.261-2.98c-.05-.709.38-5.045,1.189-6.4a11.723,11.723,0,0,1,1.908-2.065q-.139-.578-.233-1.211c-1.34-.657-2.237-1.556-2.261-2.607-.187-8.549-.924-18.48-1.707-28.505-.829-.022-1.661-.036-2.5-.036A90.3,90.3,0,0,0,36.6,339.189c-.165,2.93-.3,5.262-.394,6.74a13.942,13.942,0,0,0,5.46-1.564c2.3-1.3,9.61-2.155,7.115,2.91-1.711,3.474-3.579,5.428-10.963,9.832a41.773,41.773,0,0,1-5.39,1.809v1.777s-1.683,2.235-2.522,2.548c-1.908.711-7.031-1.4-7.031-1.4s-.125.2-.267-3.069a16.729,16.729,0,0,1,.267-8.967,6.062,6.062,0,0,1,.325-.679,2.7,2.7,0,0,1-.97-1.323c-.343-1.195-.665-2.559-.976-3.99C8.346,349.415,0,358.3,0,368.3c0,16.94,23.928,30.674,53.446,30.674s53.446-13.734,53.446-30.674c0-12.762-13.582-23.7-32.9-28.322" transform="translate(0 340.414)" fill="#85bdff"/>
      <path id="Path_4187" data-name="Path 4187" d="M59.666,355.563c-.285-.175-1.743-3.888-8.579-1.918-2.173.627-5.629.629-8.935.42-.4,3.442-2.888,3.763-4.729,3.761a12.6,12.6,0,0,1-4.476-.793,3.985,3.985,0,0,1-1.448-2.619,11.641,11.641,0,0,0-1.908,2.065c-.811,1.36-1.241,5.7-1.171,6.406.12,3.167.241,2.976.241,2.976s6.091,3.81,7.945,3.123c.815-.305,3.745-1.98,3.745-1.98v-1.36s3.778-.225,4.916-.408c7.766-1.245,12.656-4.432,14.54-7.688a2.073,2.073,0,0,0-.141-1.986" transform="translate(28.647 355.985)"/>
      <path id="Path_4188" data-name="Path 4188" d="M30.57,341.483a13.941,13.941,0,0,1-5.462,1.564c-.038.564-.072,1.008-.1,1.311-.432,4.33-9.742,4.418-12.9,1.89a5.618,5.618,0,0,0-.325.681,16.519,16.519,0,0,0-.255,8.967c.131,3.263.255,3.067.255,3.067s5.123,2.109,7.029,1.4c.841-.313,2.522-2.546,2.522-2.546v-1.779a41.675,41.675,0,0,0,5.39-1.809c7.384-4.4,9.252-6.358,10.963-9.832,2.5-5.065-4.81-4.209-7.113-2.91" transform="translate(11.097 343.296)"/>
      <line id="Line_17" data-name="Line 17" x2="11.977" y2="5.246" transform="translate(96.872 384.327)" fill="none" stroke="#000" stroke-linejoin="round" stroke-width="2"/>
      <path id="Path_4189" data-name="Path 4189" d="M83.339,180.545l2.619-11.463-32.718-8.31L42.822,205.005" transform="translate(43.175 162.098)" fill="none" stroke="#000" stroke-linejoin="round" stroke-width="2"/>
      <line id="Line_18" data-name="Line 18" x1="3.888" y1="4.045" transform="translate(31.205 433.159)" fill="none" stroke="#000" stroke-linejoin="round" stroke-width="2"/>
      <line id="Line_19" data-name="Line 19" x2="8.828" y2="7.515" transform="translate(24.138 442.868)" fill="none" stroke="#000" stroke-linejoin="round" stroke-width="2"/>
      <path id="Path_4190" data-name="Path 4190" d="M30.432,212.512c-3.043,4.621-5.671,8.553-6.808,11.274-4.993,11.939,2.241,18.171,5.135,22.46,2.3,3.4-5.286,12.632-7.529,13.331-1.753.546-5.627-2.338-7.061-3.683-10.588-9.933-13.335-18.3-11.22-32.06,2.544-16.554,12.319-29.393,21.006-41.74" transform="translate(2.306 183.598)" fill="none" stroke="#000" stroke-linejoin="round" stroke-width="2"/>
      <path id="Path_4191" data-name="Path 4191" d="M54.946,160.475s.209,17.132-.653,20.976c-2.412,10.746-5.84,11.624-13.082,9.828-5.29-1.313-11.383-2.808-12.425-10.907-.657-5.087.811-14.829.811-14.829C30.709,159.232,56.031,154.3,54.946,160.475Z" transform="translate(28.854 158.942)" fill="none" stroke="#000" stroke-linejoin="round" stroke-width="2"/>
      <line id="Line_20" data-name="Line 20" y1="10.198" x2="1.135" transform="translate(69.2 350.126)" fill="none" stroke="#000" stroke-linejoin="round" stroke-width="2"/>
      <path id="Path_4192" data-name="Path 4192" d="M79.626,227.9s9.073,23.288,10.6,48.043c1.191,19.4-6.649,85.582-13.379,115.527C74.772,400.687,73.1,403,71.669,408.289c-4.96,18.363-7.521,60.32-7.41,71.034-.438,7.852-15.1,5.965-15.194,1.663-.48-21.948-4.575-52.99-3.838-71.4.149-3.707,1.765-18.53,1.631-22.219-.9-24.826-1.143-40.107-1.143-40.107S35.021,391.69,33.747,397.2c-4.239,18.345-5.738,59.912-6.232,64.859-.5,4.989-12.783,4.354-13.871.566C9.885,449.53,8.03,420.677,8.626,409.192c.289-5.583,1.374-19.048,2.075-24.6,1.958-15.486,5.89-34.193,6.23-57.322.3-20.567-2.2-54.321-2.97-63.555-1.3-15.512,4.282-30.67,10.449-39.97" transform="translate(8.587 225.597)" fill="none" stroke="#000" stroke-linejoin="round" stroke-width="2"/>
      <path id="Path_4193" data-name="Path 4193" d="M67.88,212.469,70.5,203.9c2.51-2.291,3.273-17.468,3.273-17.468l.09-5.167a22.184,22.184,0,0,0-.745-4.464c-.159-.333-.524-2.322-.916-2.243l-5.581-4.324c-.649-.048-1.912,1.705-2.048,2.37-.283,1.382-.494,4.513-.647,5.924-.161,1.508-1.3,6.577-1.3,6.577s-3.454-3.948-4.189-4.444c-1-.671-1.858.98-1.587,6.053a47.785,47.785,0,0,0,1.309,7.619l1.8,8.368-1.7,5.145" transform="translate(57.275 171.634)" fill="none" stroke="#000" stroke-linejoin="round" stroke-width="2"/>
      <path id="Path_4194" data-name="Path 4194" d="M70.588,242.717c.129,9.668,2.424,19.46,2.9,31.682.2,5.089-7.023,9.1-19.43,9.806-15.954.914-33.078-3.838-36.245-11.624-1.807-4.436,4.386-8.579,3.167-32.3-.239-4.7-1.542-10.409-2.524-16.721-1.131-7.266-8.619-36.711,3.067-46.208,4.77-3.878,10.963-1.4,16.283.7,0,0-7.2,10.561,10.278,11.116,5.866.187,5.93-5.611,5.93-5.611,6.736,1.613,17.008,7.5,21.446,10.055" transform="translate(15.181 176.765)" fill="none" stroke="#000" stroke-linejoin="round" stroke-width="2"/>
      <path id="Path_4195" data-name="Path 4195" d="M51.465,184.952c3.486,1.757,10.768,33.086,11.459,32.891,2.649-.749,8.915-17.717,10.29-22.705,1.093-3.954,11.521,2.761,13.512,4.01,1.554.976.719,2.773-.175,5.384-8.407,24.561-16.5,39.342-26.8,39.3-12.331-.052-17.5-17.614-20.5-36.922C37.714,197.092,40.536,179.441,51.465,184.952Z" transform="translate(39.18 185.427)" fill="none" stroke="#000" stroke-linejoin="round" stroke-width="2"/>
      <path id="Path_4196" data-name="Path 4196" d="M67.2,154.974c-6.577-6.5-23.633-6.854-28.676-4.4a29.956,29.956,0,0,0-8.708,4.147c-3.03,2.115-9.3,13.449-10.756,18.805-2.8,10.339-10.762,28.015-4.756,47,6.3,19.918,10.632,30.09,10.632,30.09s32.17-2.741,29.186-31.8c-2.05-19.982-1.53-28.887-.623-33.128-.04-.114-.09-.211-.127-.333-.757-2.526-.864-5.033,2.438-4.639a4.349,4.349,0,0,1,3.717,3.6c2.438-1.193,5.531-4.474,6.872-6.218.779-1.014,2.675-4.063,2.91-4.2.311-.187-.269,3.98,0,3.788,1.942-1.4,4.466-6.394,4.635-8.023.5-4.82.006-8.009-6.746-14.682" transform="translate(12.213 150.401)"/>
      <path id="Path_4197" data-name="Path 4197" d="M28.52,316.812s4.125-45.65-2.95-62.864" transform="translate(25.781 256.044)" fill="none" stroke="#000" stroke-linejoin="round" stroke-width="2"/>
      <path id="Path_4198" data-name="Path 4198" d="M244.87,23.364l-1.2,8.881-8.174,8.724-4.32,5.581-.462,8.182-5.306,5.125-6.262.528L217.416,56.7l-6.525-5.985-.55-9.589,1.3-9.431-3.9-4.167-1.494-9.352,17.371-7.025,21.261,8.832Z" transform="translate(207.956 11.242)" fill="#85bdff"/>
      <path id="Path_4199" data-name="Path 4199" d="M201.181,100.964l7.947,5.551L216.2,113.9l1.733,9.519-1.183,2.822,2.042,7.232-12.1.472-2.358.434-7.86-12.7-2.751-12.419-.143-4.89Z" transform="translate(195.178 101.797)" fill="#85bdff"/>
      <path id="Path_4200" data-name="Path 4200" d="M233.837,32.441s-21.693,9.945-25.153,18.277c0,0-23.422,40.4-20.593,70.112S205,179.221,205,179.221l-4.071,1.819-8.852-15.586-9.832-42.87,1.651-21.5,5.322-23.647,14.439-32.06,15.03-11.628,16.56-7.71Z" transform="translate(183.753 26.252)" fill="#85bdff"/>
      <path id="Path_4201" data-name="Path 4201" d="M201.271,122.042s2.822,45.065,2.354,63.8-4.713,26.515-5.657,43.728-1.866,64.14-1.866,64.14l-3.812-3.077-.737-70.966,6.061-25.467V168.967l-3.055-61.808Z" transform="translate(193.134 108.044)" fill="#85bdff"/>
      <path id="Path_4202" data-name="Path 4202" d="M214.649,118.1l4.6-1.532s7.073,25.585,6.366,39.261S222.9,196.975,223.491,209s2.173,44.718,2.173,44.718l-4.766-1.683-2.655-66.893,3.362-30.377-4.834-27.824Z" transform="translate(216.421 117.528)" fill="#85bdff"/>
      <path id="Path_4203" data-name="Path 4203" d="M214.682,37.738l11.6-3.908,3.944,11.634,4.065,37.956-1.673,59.227-2.81,5.049-15.528,4.42L211.1,121.256Z" transform="translate(212.846 34.11)"/>
      <path id="Path_4204" data-name="Path 4204" d="M193.028,204.741l6.754.791,7.105-2.368,4.985,7.846,8.67,6.412-1.2,6.485-8.931,3.49-10.3-8.541-6.461-5.677Z" transform="translate(194.622 204.842)"/>
      <path id="Path_4205" data-name="Path 4205" d="M267.867,81.922s5.24-2.392,6.473-2.655c1.506-.321,1.976.052,4.121-.072.978-.058,1.631-.4,1.283-1.247-.829-2.024-5.8-3.143-8.007-3.01-2.133.127-6.927,1.275-7.979,2.01l-.466.249a24.758,24.758,0,0,0-2.627,1.793l-1.876-.839" transform="translate(260.926 75.545)" fill="none" stroke="#000" stroke-linejoin="round" stroke-width="2"/>
      <path id="Path_4206" data-name="Path 4206" d="M256.753,84.619l2.07.745c.558,1.494,2.376,5.539,6.22,7.163,2.478,1.046,8.244,1.587,8.244,1.587a42.578,42.578,0,0,0,6.009,2.209,38,38,0,0,0,5.649-.2c1.073,0,1.6-.006,1.884-.655,0,0,6.013-4.966,6.382-5.651a1.465,1.465,0,0,0-.285-1.691,56.017,56.017,0,0,0-6.24-4.894,38.577,38.577,0,0,0-5.679-2.163l-5.764-3.7" transform="translate(258.872 78.002)" fill="none" stroke="#000" stroke-linejoin="round" stroke-width="2"/>
      <path id="Path_4207" data-name="Path 4207" d="M232.772,94.1c7.188,11.568,29.935,29.716,45.168,35.389,1.51.562,2.079.12,2.735-1.133,1.827-3.492,4.551-10.371,4.551-10.371,1.167-2.434-3-5.336-3-5.336S254.885,82.873,248.977,71.5c-3.83-7.372-8.895-23.479-13.469-36.58" transform="translate(234.693 35.206)" fill="none" stroke="#000" stroke-linejoin="round" stroke-width="2"/>
      <path id="Path_4208" data-name="Path 4208" d="M269.705,188.643a20.377,20.377,0,0,1,2.721,3.318c4.388,6.531,10.808,4.563,13.588,8.985a3.03,3.03,0,0,1,.337,2.081c.59.9.5,3.263-.139,3.7-1.723,1.177-4.983,3.388-5.72,3.81a8.38,8.38,0,0,1-8.156-.313c-2.757-1.852-6.945-5.007-6.945-5.007v1.335l-7.477-4.46a1.614,1.614,0,0,1-.906-1.4v-2.237a3.081,3.081,0,0,1-.5-1.332,20.118,20.118,0,0,1,.237-4.617,29.031,29.031,0,0,1,0-2.9,5.286,5.286,0,0,1,1.95-2.462c-.058-.335-.114-.683-.169-1.038a98.084,98.084,0,0,0-15.576-1.233,96.831,96.831,0,0,0-19.376,1.928c-1.7,13.084-2.928,23.8-2.936,25.7-.006,1.687-2.087,3.575-6.342,4.408-.058.691-.115,1.35-.169,1.97,1.864,1.737,2.864,4.328,3.7,6.071,3.386,7.049,9.393,6.9,11.5,11.644a2.465,2.465,0,0,1,.177.7c.767.755.207,4.462-1.064,5.272a46.75,46.75,0,0,1-6.924,2.906c-1.344.526-3.227.962-6.324-1.637a55.164,55.164,0,0,1-6.246-7.153v1.311l-5.912-4.7a1.675,1.675,0,0,1-.691-1.508c.022-.412.022-1.165.018-1.9a2.345,2.345,0,0,1-.532-1.076,15.082,15.082,0,0,1,.528-5.6,27.785,27.785,0,0,1,.41-2.854,3.954,3.954,0,0,1,1.484-1.466c-.125-.874-.241-1.858-.351-2.91-2.141-1.046-3.769-2.508-3.769-3.679,0,0-.267-6.683-.478-16.277-9.844,6.248-15.877,14.622-15.877,23.834,0,19.323,26.495,34.986,59.177,34.986s59.177-15.662,59.177-34.986c0-13.628-13.19-25.427-32.425-31.2" transform="translate(185.293 186.387)" fill="#85bdff"/>
      <path id="Path_4209" data-name="Path 4209" d="M204.155,201.3c-.145,1.681-.275,3.173-.38,4.334-.239,2.629-5.973,3.414-8.579,1.422-.548-.42-1.006-3.034-1.38-6.5" transform="translate(195.417 202.204)" fill="none" stroke="#000" stroke-linejoin="round" stroke-width="2"/>
      <path id="Path_4210" data-name="Path 4210" d="M221.91,186.1a4.909,4.909,0,0,0-1.655,2.233,28.494,28.494,0,0,0,0,2.906,20.117,20.117,0,0,0-.237,4.617,3.072,3.072,0,0,0,.5,1.329v2.239a1.609,1.609,0,0,0,.906,1.4l7.475,4.458v-1.335s4.189,3.157,6.947,5.007a8.376,8.376,0,0,0,8.156.315c.735-.422,4-2.633,5.719-3.81.633-.432.729-2.791.139-3.7a3.041,3.041,0,0,0-.337-2.081c-2.779-4.42-9.2-2.454-13.588-8.985a18.722,18.722,0,0,0-3.571-4.079" transform="translate(221.786 187.641)" fill="none" stroke="#000" stroke-linejoin="round" stroke-width="2"/>
      <path id="Path_4211" data-name="Path 4211" d="M221,185.825c.436,2.878,1,5.133,1.717,5.495,3.107,1.573,8.025.954,8.208-1.713.1-1.428.221-2.946.355-4.478" transform="translate(222.822 186.656)" fill="none" stroke="#000" stroke-linejoin="round" stroke-width="2"/>
      <path id="Path_4212" data-name="Path 4212" d="M195.008,201.867a3.551,3.551,0,0,0-1.271,1.329,27.785,27.785,0,0,0-.41,2.854,15.071,15.071,0,0,0-.528,5.593,2.347,2.347,0,0,0,.532,1.078c0,.739,0,1.492-.018,1.9a1.675,1.675,0,0,0,.691,1.508l5.912,4.7v-1.311a55.162,55.162,0,0,0,6.246,7.153c3.1,2.6,4.98,2.163,6.324,1.637a46.837,46.837,0,0,0,6.924-2.906c1.271-.809,1.832-4.517,1.111-5.233a5.276,5.276,0,0,0-.223-.739c-2.1-4.743-8.111-4.593-11.5-11.642-.8-1.669-1.749-4.119-3.464-5.848" transform="translate(194.325 203.533)" fill="none" stroke="#000" stroke-linejoin="round" stroke-width="2"/>
      <path id="Path_4213" data-name="Path 4213" d="M271.415,91.648c.671,2.858,1.532,6.426,1.906,9.063,3.247,22.968,4.053,60.3,1.958,85.435-.357,4.3-3.29,13.578-3.583,18.745-1.7,29.881-5.84,70.425-5.862,70.646-.279,2.729-4.665,4.249-11.714,4.432-4.508.118-9.381-1.984-9.489-3.492-1.34-18.733-3.884-47.674-3.137-65.533.151-3.595,1.761-19.562,1.95-23.165,1.074-20.591-5.772-42.995-5.772-42.995s-2.613,48.925-7.935,68.887c-.932,3.49-4.989,10.869-5.822,14.367-3.609,15.146-11.1,73.727-11.116,78.428-.01,2.265-3.747,4.9-11.5,4.842-4-.032-9.011-2.986-9.011-5.039,0-.012-2.117-52.924.825-75.211.43-3.255,3.271-14.243,3.816-17.5,3.181-19-2.673-65.638-2.673-84.208a109.972,109.972,0,0,1,1.366-15.578" transform="translate(193.134 92.405)" fill="none" stroke="#000" stroke-linejoin="round" stroke-width="2"/>
      <path id="Path_4214" data-name="Path 4214" d="M219.719,43.825c-1-3-.092-7.085-1.611-10.4l.265-7.437c5.545-1.906,8.372-3.5,16.913-3.408,7.965.084,14.6,11.26,15.64,32.016C251.519,66.42,245,133.018,245,154.825c0,4.788,1.1,18.255-19.41,23.824C220.634,179.995,236,92.672,219.719,43.825Z" transform="translate(219.908 22.767)" fill="none" stroke="#000" stroke-linejoin="round" stroke-width="2"/>
      <path id="Path_4215" data-name="Path 4215" d="M240.009,40.675a8.078,8.078,0,0,1-3.717-2.882c-3.332-5-.42-11.039-.42-11.039l.01-1.858c-8.025,4.615-22.219,12.184-30.636,19.773a13.066,13.066,0,0,0-3.161,5.043c-12.122,16.691-19.838,52.335-19.87,71.335-.03,16.827,9.083,48.1,15.241,56.482,1.406,1.916,3.657,4.434,5.952,3.88a32.134,32.134,0,0,0,9.23-3.749c1.912,1.9,4.288,3.46,6.963,3.458a229.5,229.5,0,0,0,23.513-1.147s-7.635-78.78.695-133.226A5.96,5.96,0,0,0,240.009,40.675Z" transform="translate(183.719 25.102)" fill="none" stroke="#000" stroke-linejoin="round" stroke-width="2"/>
      <path id="Path_4216" data-name="Path 4216" d="M205.143,102.314s4.143,3.539,5.125,4.312a7.3,7.3,0,0,1,.86.852c1.93,1.809,4.962,4.848,5.069,6.149.4,4.976,3.225,9.238,1.111,9.875l-1.408.639c.645,1.482,2.089,4.406,2.548,5.963.221.747.1,2.211-.683,2.583s-10.158.1-10.158.1a1.939,1.939,0,0,1-1.781.026,16.906,16.906,0,0,1-4.089-3.225,59.881,59.881,0,0,1-3.579-6.007l-3.187-9.36c-.4-1.07-1.251-4.844-.058-7.674l-1.468-3.119" transform="translate(195.042 103.159)" fill="none" stroke="#000" stroke-linejoin="round" stroke-width="2"/>
      <path id="Path_4217" data-name="Path 4217" d="M207.859,13.757c1.179-2.755.942-5.7,7.639-9.085,5.689-2.878,18.637-3.91,26.483,3.286,6.561,6.015,3.6,25.348,3.6,25.348l-4.36-2.888-.131,2.042s-4.719-1.434-5.675-1.747c-9.459-3.1-12.67-1.522-18.854-5.107l-.418,4.549a4.66,4.66,0,0,1-2.635-1.3c-2.052-1.922-4.4.37-4.4.37s-4.619-7.577-1.245-15.468" transform="translate(208.332 2.509)"/>
      <path id="Path_4218" data-name="Path 4218" d="M235.361,28.1a7.373,7.373,0,0,1-1.832-.681,4.5,4.5,0,0,0-3.705.3,8.008,8.008,0,0,0-2.98,2.153c-.783.9-1.578,2.675-2.3,3.127-7.868,4.928-15.028-8.352-15.028-8.352s1.448,13.622,9.736,16.532a16.99,16.99,0,0,0,18.859-5.217c3.649-4.754,3.478-19.589,3.478-19.589S240.2,28.69,235.361,28.1" transform="translate(211.249 16.508)"/>
      <path id="Path_4219" data-name="Path 4219" d="M214.039,40.819a6.224,6.224,0,0,1-3.5-5.109c-.418-2.952,1.082-5.406,3.709-5.149.271.026.494.08.735.125.376-5.326.93-10.27.93-10.27,1.657-7.31,33.873-2.143,32.253,5.009,0,0-.331,2.573-.773,5.856,1.3-4.892,2.305-13.122.831-18.964-1.307-5.189-6.989-9.053-10.893-10.455-15.389-5.533-22.1,3.04-22.1,3.04a10.074,10.074,0,0,0-8.593,5.8c-5.149,10.483-.008,19.3.225,22.288.635,8.109,3.448,7.437,6.9,11.79.058-1.094.169-2.6.277-3.962" transform="translate(206.042 0.001)"/>
      <path id="Path_4220" data-name="Path 4220" d="M200.32,152.451s2.342.353,1.771-11.383-11.746-41.541-6.039-58.189S207.61,49.9,207.61,49.9" transform="translate(196.039 50.311)" fill="none" stroke="#000" stroke-linejoin="round" stroke-width="2"/>
      <path id="Path_4221" data-name="Path 4221" d="M211.7,94.486a32.264,32.264,0,0,0,20.081-4.667" transform="translate(213.45 90.56)" fill="none" stroke="#000" stroke-linejoin="round" stroke-width="2"/>
      <path id="Path_4222" data-name="Path 4222" d="M212.918,40.2l2.948-.317c4.145-.448,8.533-3.99,8.587-8.16" transform="translate(214.676 31.982)" fill="none" stroke="#000" stroke-linejoin="round" stroke-width="2"/>
      <line id="Line_21" data-name="Line 21" y1="9.178" x2="0.48" transform="translate(419.601 40.82)" fill="none" stroke="#000" stroke-linejoin="round" stroke-width="2"/>
      <path id="Path_4223" data-name="Path 4223" d="M346.687,197.93l7.5,13.827L330.972,219.9l-16.118,6.72L311.2,211.368l9.222-4.446,5.987.014Z" transform="translate(313.768 199.564)" fill="#85bdff"/>
      <path id="Path_4224" data-name="Path 4224" d="M379.47,212.517l10.369,3.882-8.519,19.962-1.85,10.22-8.579,9.124-7.9-1.343-.884-6.051-2.065-3.852,7.192-8.842,5.545-4.364Z" transform="translate(363.017 214.272)" fill="#85bdff"/>
      <path id="Path_4225" data-name="Path 4225" d="M321.59,291.926l27.873-72.594-14.377-49.2-74.492,71.349,13.361,52.743Z" transform="translate(262.745 171.536)" fill="#ef353f"/>
      <path id="Path_4226" data-name="Path 4226" d="M346.8,277.237v6.587l-2.306,3.944-12.1,3.641-6.453-.88-2.185-13.293-6.6-.388-4.34-6.362-5.183-29.527Z" transform="translate(310.177 242.949)" fill="#85bdff"/>
      <path id="Path_4227" data-name="Path 4227" d="M282.473,288.655l3.213-7.025-3.213-6.485-15.889-5.712-2.117.572v6.523l11.79,12.126Z" transform="translate(266.65 271.658)" fill="#85bdff"/>
      <path id="Path_4228" data-name="Path 4228" d="M359.405,268.486a18,18,0,0,0-8.264,8.184,73.354,73.354,0,0,1-15.652,21.159c-10.31,9.409-13.925,12.395-23.673,10.666s-37.364-17.655-37.364-17.655l2.31-3.211,17.46,9.29,17.281,5.288,7.388-.787,14.777-11.16,12.588-17.134,9.107-9.748,3.111-.554Z" transform="translate(276.718 264.993)" fill="#85bdff"/>
      <path id="Path_4229" data-name="Path 4229" d="M313.6,288.058a61.62,61.62,0,0,1,1.1,17.239c-.629,10.453-2.436,16.883-1.611,25.93l-4.671-2.243-.956-14.178,2.992-14.3-.08-10.837Z" transform="translate(309.996 290.436)" fill="#85bdff"/>
      <path id="Path_4230" data-name="Path 4230" d="M337.247,303.139s-29.268-6.563-37.066-7.447-11.634-1.424-15.53,5.527h-5.115l2.042-5.527,7.408-4.7,9.1-.251,22.922,4.2,16.235,3.653Z" transform="translate(281.844 293.142)" fill="#85bdff"/>
      <path id="Path_4231" data-name="Path 4231" d="M323.006,310.554l-27.939-8.162-3.5-4.036,31.905,7.627Z" transform="translate(293.978 300.819)" fill="#85bdff"/>
      <path id="Path_4232" data-name="Path 4232" d="M294.787,301.091s-10.979,1.235-13.451,11.294-5.458,37.458-5.458,42.075-2.093,14.088-2.093,14.088-5.177-1.058-5-1.414,7.322-54.876,7.322-54.876l5.677-13.2,13-2.522h2.384Z" transform="translate(270.999 298.988)" fill="#85bdff"/>
      <path id="Path_4233" data-name="Path 4233" d="M351.9,170.218s-5.031,1.9-3.3,12.652,1.607,13.11,4.183,18.454,11.853,14.779,12.323,20.123,1.1,21.205,1.1,21.205l-4.93-3.745-1.986-16.988-8.2-12.979-5.479-9.5L343.68,182.87V170.218l8.035-4.727,1.715,2.7Z" transform="translate(346.517 166.857)" fill="#85bdff"/>
      <path id="Path_4234" data-name="Path 4234" d="M369.717,171.552s4.274,8.135,8.517,18.157,10.375,22.521,9.786,31.126-9.786,40.456-9.786,40.456l4.244.534,9.551-30.614.745-16.5-4.3-16.861-9.515-21.944L373,167.3Z" transform="translate(372.769 168.686)" fill="#85bdff"/>
      <path id="Path_4235" data-name="Path 4235" d="M363.1,206.694s-11.045,18.558-10.672,40.251,1.133,81.166,1.133,81.166l-4.318,2.761-2.482-83.459,3.193-22.33,8.216-22.517Z" transform="translate(349.624 204.239)" fill="#85bdff"/>
      <path id="Path_4236" data-name="Path 4236" d="M355.706,289.022l8.1,44.121-5.962-6.021L350.83,285.21Z" transform="translate(353.726 287.564)" fill="#85bdff"/>
      <path id="Path_4237" data-name="Path 4237" d="M361.959,322.734l7.6,45.565-3.117-.831L356.107,315Z" transform="translate(359.047 317.605)" fill="#85bdff"/>
      <path id="Path_4238" data-name="Path 4238" d="M373.376,293.338s.016,4.8,3.081,16.4,21.464,76.3,21.464,76.3l-5.193-.305-25.459-93.127,5.42-.58Z" transform="translate(370.301 294.438)" fill="#85bdff"/>
      <path id="Path_4239" data-name="Path 4239" d="M311.21,346.94l5.667-.607,7.292,7.7,2.621,10.172-3.269,6.22-3.832-12.887Z" transform="translate(313.779 349.192)"/>
      <path id="Path_4240" data-name="Path 4240" d="M325.879,361.37l2.743-7.977L324.1,342.436l-9.852-8.634-2.131,3.48,10.142,12.066Z" transform="translate(314.69 336.558)"/>
      <path id="Path_4241" data-name="Path 4241" d="M294.469,379.884l2.317-4.087-2.317-12.256-8.057-9.8-7.987-.5-2.121.5,12.14,8.738,4.171,12.425Z" transform="translate(278.585 356.152)"/>
      <path id="Path_4242" data-name="Path 4242" d="M358.707,349.306l3.4-4.33-.378-9.66-8.306-8.266-6.977-1.121,7.83,7.143,4.167,11.068Z" transform="translate(349.309 328.621)"/>
      <path id="Path_4243" data-name="Path 4243" d="M374.262,437.5l3.061-13.853-3.994-26.252L362.954,369.47l-11.459-18.789-10.2-13.714-16.616-13.393-14.528-5.718-4.507,2,22.934,11.166,18.135,19.442,14.19,25.81,9.6,29.867,1.6,29.724Z" transform="translate(308.169 320.48)"/>
      <path id="Path_4244" data-name="Path 4244" d="M397.083,353.312c-.408-2.356-3.759-6.334-4.828-8.543-1.191-2.462-2.9-8.242-4.85-10.616a9.653,9.653,0,0,0,.582,1.974c1.659,3.524-2.376,6.688-6.268,6.153,0,0-.884-2.739-2.336-7.348a2.78,2.78,0,0,0-.87,1.563c-.331,1.99,1.554,7.28,2.257,9.36,1.068,3.165,1.486,10.007,3.28,12.849,1.372,2.173,4.48,7.2,6.669,7.6.93.173,4.681-2.324,5.227-3.049,1.44-1.916,1.615-7.173,1.135-9.947" transform="translate(381.6 336.911)"/>
      <path id="Path_4245" data-name="Path 4245" d="M378.4,339a11.226,11.226,0,0,1-1.3,4.29,4.52,4.52,0,0,1-8-2.143c-.076-.655-.179-1.4-.291-2.193a19.756,19.756,0,0,0-3.954,6.083c-3.876,8.059-5.5,10.927-11.385,14.708a2.347,2.347,0,0,0-.729,2.814,9.082,9.082,0,0,0,2.962,2.808c1.348.835,3.707,1.715,7.264-.355a41.248,41.248,0,0,0,11.045-9.81l0,2.436,4.727-3.187a40.7,40.7,0,0,0,1.207-9.316,24.993,24.993,0,0,0-.486-4.3A3.811,3.811,0,0,0,378.4,339" transform="translate(355.464 341.751)"/>
      <path id="Path_4246" data-name="Path 4246" d="M391.89,376.629l.831-16.91-4.133-16.976L384.817,332.3a123.689,123.689,0,0,1-1.221,13.4,3.789,3.789,0,0,1,1.062,1.834,24.812,24.812,0,0,1,.484,4.3,40.727,40.727,0,0,1-1.207,9.318l-4.727,3.187V361.9a41.262,41.262,0,0,1-11.047,9.812c-3.555,2.071-5.914,1.191-7.264.356a9.1,9.1,0,0,1-2.962-2.808,2.347,2.347,0,0,1,.729-2.814c5.882-3.782,7.511-6.649,11.385-14.708A19.724,19.724,0,0,1,374,345.658c-.468-3.277-1.221-7.635-2.183-12.8-6.637,1.974-11.08,5.117-15.45,8.561-.627.494-1.229,2.267-1.8,2.785s-2.4-.518-2.916.026c-3.655,3.88-4.255,8.234-4.255,12.957,0,14.3,17.55,26.137,41.868,27.459Z" transform="translate(350.271 335.048)" fill="#85bdff"/>
      <path id="Path_4247" data-name="Path 4247" d="M394.873,334.914c.123.89.249,1.7.39,2.366,1.948,2.374,3.659,8.154,4.85,10.618,1.068,2.207,4.42,6.187,4.828,8.541.478,2.773.305,8.033-1.137,9.947-.546.725-4.3,3.221-5.225,3.051-2.189-.406-5.3-5.43-6.671-7.605-1.793-2.842-2.209-9.682-3.278-12.849-.7-2.081-2.589-7.37-2.259-9.361a2.8,2.8,0,0,1,.87-1.562c-.518-1.643-1.109-3.526-1.759-5.611a80.867,80.867,0,0,0-14.8-1.4l3.2,8.762,3.846,15.044L378.289,367v10.893l-2.191,7.941c23.754-1.627,42.175-13.222,42.175-27.294,0-10.043-9.389-18.827-23.4-23.625" transform="translate(373.744 333.783)" fill="#85bdff"/>
      <path id="Path_4248" data-name="Path 4248" d="M356.631,196.384c.416-.119,1.139-.38,2.077-.707a19.609,19.609,0,0,1-8.995-8.5c-1.886-3.551-4.776-13.08-4.892-17.183-.281-9.82,23.523-13.971,26.35-8.083,0,0,1.52,4.486,2.872,9.208a4.478,4.478,0,0,1,2.2-1.751c2.157-.854,3.842.823,4.006,3.378s-.948,4.836-3.093,5.73a2.283,2.283,0,0,1-1.287.129c.054.329.106.649.143.938.028.233.022.464.036.7,1.074,3.611,2.072,6.957,2.354,7.9.462,1.53.876,3.02,1.255,4.462a30.555,30.555,0,0,1,4.428.811c2.788.739,7.214,1.773,11.511,3.179a45.379,45.379,0,0,0-2.785-10.288c-2.573-6.639,1.713-12.321.59-19.868-.809-5.44-3.8-18.4-9.991-23.9-10.087-8.951-18.737-8.214-23.454-6.888-14.586,4.1-18.49,10.557-20.677,22.667-2.585,14.317,5.794,22.1,14.574,39.225a13.155,13.155,0,0,1,2.777-1.151" transform="translate(341.601 135.962)"/>
      <path id="Path_4249" data-name="Path 4249" d="M347.07,197.93l-21.757,9.142a35,35,0,0,0-4.456-.217c-3.77.1-9.373,4.513-9.373,4.513" transform="translate(314.055 199.564)" fill="none" stroke="#000" stroke-linejoin="round" stroke-width="2"/>
      <path id="Path_4250" data-name="Path 4250" d="M313.386,218.762a24.52,24.52,0,0,0,5.653-1.48c4.679-2.042,9.21-4.059,9.21-4.059-.026-.07,23.738-8.409,23.738-8.409" transform="translate(315.973 206.506)" fill="none" stroke="#000" stroke-linejoin="round" stroke-width="2"/>
      <path id="Path_4251" data-name="Path 4251" d="M371.264,208.827q-.368.515-.735,1c-7.9,10.351-7.646,16.869-30.321,26.619-1.6.687-4.015.149-4.531-1.287-1.44-4-6.3-12.218-6.3-12.218-.888-2.775,1.775-4.537,3.277-5.159,10.959-4.551,14.765-15.4,17.508-20.673a96.24,96.24,0,0,0,8.111-22.962" transform="translate(331.92 175.581)" fill="none" stroke="#000" stroke-linejoin="round" stroke-width="2"/>
      <path id="Path_4252" data-name="Path 4252" d="M358.145,327.708c-2.382-12.114-4.633-24-6.308-34.074-.456-2.745-.894-5.764-1.311-9.005" transform="translate(353.42 286.979)" fill="none" stroke="#000" stroke-linejoin="round" stroke-width="2"/>
      <path id="Path_4253" data-name="Path 4253" d="M376.053,348.783c-.458,9.362-1.287,17.066-2.53,18.653a4.519,4.519,0,0,1-8-2.143c-.99-8.417-5.089-28.738-9.413-50.289" transform="translate(359.047 317.604)" fill="none" stroke="#000" stroke-linejoin="round" stroke-width="2"/>
      <path id="Path_4254" data-name="Path 4254" d="M364.37,291.73c.374,4.6.894,10.266,1.458,14.042,1.434,9.614,2.259,28.122,2.326,45.184" transform="translate(367.378 294.138)" fill="none" stroke="#000" stroke-linejoin="round" stroke-width="2"/>
      <path id="Path_4255" data-name="Path 4255" d="M391.568,292.028c5.79,13.028,4.2,79.083,7.72,86.572,1.657,3.524-2.378,6.688-6.268,6.153,0,0-17.462-54.106-25.3-87.865a38.027,38.027,0,0,1-.452-4.28" transform="translate(370.302 294.439)" fill="none" stroke="#000" stroke-linejoin="round" stroke-width="2"/>
      <path id="Path_4256" data-name="Path 4256" d="M348.779,361.093c11.481,21.557,67.857,28.957,68.483,12.238.446-11.911.48-24.266,3.051-43.667,2.659-20.075,5.85-48.088,5.868-55.4.1-37.617-14.624-70.349-14.624-70.349" transform="translate(351.658 205.596)" fill="none" stroke="#000" stroke-linejoin="round" stroke-width="2"/>
      <path id="Path_4257" data-name="Path 4257" d="M358.206,202.567c-3.328,7.437-8.176,19.651-10.377,31.905-2.217,12.339-.564,40.507.382,70.767.283,9.067.357,18.6.361,26.543" transform="translate(349.588 204.239)" fill="none" stroke="#000" stroke-linejoin="round" stroke-width="2"/>
      <path id="Path_4258" data-name="Path 4258" d="M395.969,244.723c-19.721,4.6-32.259-1.06-34.418-4.8-1.269-2.2-.51-12.027-1.974-17.42-.978-3.6-12.046-16.5-13.024-22.326-1.008-6.013-3.322-14.335-2.8-23.876.315-5.762,2.9-9.081,7.959-10.525l2.378-.566" transform="translate(346.517 166.572)" fill="none" stroke="#000" stroke-linejoin="round" stroke-width="2"/>
      <path id="Path_4259" data-name="Path 4259" d="M357.261,156.635l3.79,13.994,4.428.813c5.272,1.394,15.956,3.229,20.982,7.28" transform="translate(360.21 157.928)" fill="none" stroke="#000" stroke-linejoin="round" stroke-width="2"/>
      <path id="Path_4260" data-name="Path 4260" d="M377.713,164.4s3.775,2.47,4.352,4.422c2.147,7.276-7.029,20.806-22.816,17.428-7.931-1.7-10.292-9.513-10.993-13.983-.315-2,1.175-4.549,2.9-5.611" transform="translate(351.088 165.762)" fill="none" stroke="#000" stroke-linejoin="round" stroke-width="2"/>
      <path id="Path_4261" data-name="Path 4261" d="M341.8,152.348c.119,4.1,3.008,13.632,4.892,17.183,4.127,7.776,12.21,10.158,14.556,9.953,4.014-.351,12.793-9.156,11.744-17.588" transform="translate(344.622 153.606)" fill="none" stroke="#000" stroke-linejoin="round" stroke-width="2"/>
      <path id="Path_4262" data-name="Path 4262" d="M378.571,212.43l-6.766,19.1-3.149,2.729s-3.751,3.9-5.39,5.145c-1.7,1.287-3.2,5.563-2.818,7.541.161.825,1.95,1.876,1.95,1.876s-.691,2.135-.221,2.818c.161.237.685,1.952,1.247,2.193.416.179,1.683,1.46,2.253,1.7s4.394.562,5.786-.339a23.861,23.861,0,0,0,2.5-2.143,49.7,49.7,0,0,0,3.928-5.462c2.53-4.434,3.077-11.138,3.077-11.138l8.521-19.962" transform="translate(363.363 214.184)" fill="none" stroke="#000" stroke-linejoin="round" stroke-width="2"/>
      <path id="Path_4263" data-name="Path 4263" d="M379.49,170.348c-5.768-10.74-16.008,10.706-12.323,26.388,1.711,7.28,6.6,24.354,7.326,31.375.862,8.288-3.334,21.858-2.552,28.212.38,3.081,11.871,6.378,13.983,5.053,2.464-1.544,10.648-27.352,10.841-35.293C396.949,218.506,397.04,203.035,379.49,170.348Z" transform="translate(369.411 168.834)" fill="none" stroke="#000" stroke-linejoin="round" stroke-width="2"/>
      <path id="Path_4264" data-name="Path 4264" d="M281.131,335.053l-2.806-1.753,2.219-6.812Z" transform="translate(280.623 329.183)" fill="#fabf62"/>
      <path id="Path_4265" data-name="Path 4265" d="M473.549,375.61l1.663.944a11.239,11.239,0,0,1,.114,19.474l-66.076,38.595a39.472,39.472,0,0,1-39.4.239L272.4,379.506a10.915,10.915,0,0,1-.114-18.918l8.533-4.984" transform="translate(269.076 358.539)" fill="none" stroke="#85bdff" stroke-linejoin="round" stroke-width="2"/>
      <path id="Path_4266" data-name="Path 4266" d="M348.779,384.438V277.727c0-8.77,6.177-12.335,13.771-7.951l8.075,4.661" transform="translate(351.658 270.113)" fill="none" stroke="#000" stroke-linejoin="round" stroke-width="2"/>
      <line id="Line_22" data-name="Line 22" y2="30.295" transform="translate(695.757 625.191)" fill="none" stroke="#000" stroke-linejoin="round" stroke-width="2"/>
      <path id="Path_4267" data-name="Path 4267" d="M375.314,273.417,364.9,267.4c-10.174-5.874-18.452-1.095-18.452,10.654v31.449" transform="translate(349.309 267.079)" fill="none" stroke="#000" stroke-linejoin="round" stroke-width="2"/>
      <line id="Line_23" data-name="Line 23" x1="8.883" y1="5.121" transform="translate(686.554 630.725)" fill="none" stroke="#000" stroke-linejoin="round" stroke-width="2"/>
      <line id="Line_24" data-name="Line 24" x2="9.786" y2="5.643" transform="translate(685.493 635.516)" fill="none" stroke="#000" stroke-linejoin="round" stroke-width="2"/>
      <path id="Path_4268" data-name="Path 4268" d="M320.335,363.33c4.979,19.8,16.209,39.7,29.481,54.713m11.65,11.1a77.464,77.464,0,0,0,9.435,6.463c15.839,9.144,27.535,9.2,40.4,1.741,11.612-6.78,17.757-19.908,17.757-39.273,0-35.8-22.681-78.129-51.6-96.023m.474,12.351c23.39,17.7,41.408,52.95,41.408,82.873,0,9.212-1.709,16.954-4.753,22.991-3.85,7.627-11.642,12.754-20.181,12.455-5.868-.207-12.4-2.213-19.331-6.219a71.6,71.6,0,0,1-16.556-13.176" transform="translate(322.979 304.547)" fill="none" stroke="#000" stroke-linejoin="round" stroke-width="2"/>
      <path id="Path_4269" data-name="Path 4269" d="M356.45,351.552l4.79-2.735c1.57-1.024,2.542-3.131,2.542-6.079,0-5.894-3.888-12.917-8.684-15.687-2.318-1.338-4.424-1.438-5.981-.518l-4.328,2.5" transform="translate(347.636 328.62)" fill="none" stroke="#000" stroke-linejoin="round" stroke-width="2"/>
      <path id="Path_4270" data-name="Path 4270" d="M352.206,328.247c4.8,2.769,8.684,9.792,8.684,15.687s-3.888,8.429-8.684,5.659-8.684-9.792-8.684-15.686S347.41,325.478,352.206,328.247Z" transform="translate(346.358 329.826)" fill="none" stroke="#000" stroke-linejoin="round" stroke-width="2"/>
      <path id="Path_4271" data-name="Path 4271" d="M308.948,336.627s3.442-2.069,4.151-2.37c1.938-.821,4.41-.556,7.105,1,6.218,3.589,11.256,12.694,11.256,20.334,0,3.9-1.309,6.659-3.418,7.957-1.341.827-3.551,2.07-3.551,2.07" transform="translate(311.498 336.558)" fill="none" stroke="#000" stroke-linejoin="round" stroke-width="2"/>
      <path id="Path_4272" data-name="Path 4272" d="M327.229,363.686c1.356-1.5,2.157-3.856,2.157-6.9,0-7.639-5.041-16.745-11.256-20.334s-11.258-.305-11.258,7.336a17.482,17.482,0,0,0,.494,4.715s2.484,7.459,6.312,10.975" transform="translate(309.404 337.763)" fill="none" stroke="#000" stroke-linejoin="round" stroke-width="2"/>
      <line id="Line_25" data-name="Line 25" x1="15.301" y2="10.274" transform="translate(546.078 695.424)" fill="none" stroke="#000" stroke-linejoin="round" stroke-width="2"/>
      <line id="Line_26" data-name="Line 26" x1="5.563" y2="3.735" transform="translate(566.748 688.083)" fill="none" stroke="#000" stroke-linejoin="round" stroke-width="2"/>
      <line id="Line_27" data-name="Line 27" x1="22.603" y2="15.178" transform="translate(582.582 666.008)" fill="none" stroke="#000" stroke-linejoin="round" stroke-width="2"/>
      <line id="Line_28" data-name="Line 28" y1="12.377" x2="17.11" transform="translate(521.059 681.109)" fill="none" stroke="#000" stroke-linejoin="round" stroke-width="2"/>
      <line id="Line_29" data-name="Line 29" x1="10.353" y2="6.336" transform="translate(681.269 638.589)" fill="none" stroke="#000" stroke-linejoin="round" stroke-width="2"/>
      <line id="Line_30" data-name="Line 30" x1="10.132" y2="6.061" transform="translate(634.195 667.536)" fill="none" stroke="#000" stroke-linejoin="round" stroke-width="2"/>
      <path id="Path_4273" data-name="Path 4273" d="M346.014,307.85c-19.962-6.021-45.66-12.8-55.131-11.069-7.487,1.37-13.479,5.792-15.217,15.514-4.579,25.605-3.211,16.779-6.442,53.655-.209,2.364,3.854,4.85,7.8,5.924" transform="translate(271.44 298.953)" fill="none" stroke="#000" stroke-linejoin="round" stroke-width="2"/>
      <path id="Path_4274" data-name="Path 4274" d="M299.5,322.274c.633.41,1.189.785,1.657,1.119a87.1,87.1,0,0,0,24.575,12.339" transform="translate(301.975 324.934)" fill="none" stroke="#000" stroke-linejoin="round" stroke-width="2"/>
      <path id="Path_4275" data-name="Path 4275" d="M282.349,312.69c5.752,3.047,15.9,8.469,24.23,13.182" transform="translate(284.68 315.271)" fill="none" stroke="#000" stroke-linejoin="round" stroke-width="2"/>
      <path id="Path_4276" data-name="Path 4276" d="M277.273,339.765a100.579,100.579,0,0,0,4.918-15.5" transform="translate(279.562 326.942)" fill="none" stroke="#000" stroke-linejoin="round" stroke-width="2"/>
      <path id="Path_4277" data-name="Path 4277" d="M325.017,345.314c13.781-2.771,31.277-10.029,33.5-31.512" transform="translate(327.7 316.392)" fill="none" stroke="#000" stroke-linejoin="round" stroke-width="2"/>
      <line id="Line_31" data-name="Line 31" y1="22.181" x2="39.376" transform="translate(628.169 593.087)" fill="none" stroke="#000" stroke-linejoin="round" stroke-width="2"/>
      <line id="Line_32" data-name="Line 32" x1="8.415" y2="5.189" transform="translate(628.34 660.933)" fill="none" stroke="#000" stroke-linejoin="round" stroke-width="2"/>
      <line id="Line_33" data-name="Line 33" x1="54.104" y2="33.363" transform="translate(646.333 621.663)" fill="none" stroke="#000" stroke-linejoin="round" stroke-width="2"/>
      <line id="Line_34" data-name="Line 34" y1="13.094" x2="23.243" transform="translate(676.969 574.683)" fill="none" stroke="#000" stroke-linejoin="round" stroke-width="2"/>
      <line id="Line_35" data-name="Line 35" y2="41.44" transform="translate(628.169 653.968)" fill="none" stroke="#000" stroke-linejoin="round" stroke-width="2"/>
      <line id="Line_36" data-name="Line 36" y2="10.553" transform="translate(628.169 631.589)" fill="none" stroke="#000" stroke-linejoin="round" stroke-width="2"/>
      <path id="Path_4278" data-name="Path 4278" d="M341.605,292.593l-10.361-5.981c-10.174-5.874-18.452-1.1-18.452,10.652v41.848" transform="translate(315.375 286.445)" fill="none" stroke="#000" stroke-linejoin="round" stroke-width="2"/>
      <path id="Path_4279" data-name="Path 4279" d="M315.124,322.66V296.934c0-8.768,6.177-12.335,13.771-7.951l8.055,4.649" transform="translate(317.725 289.478)" fill="none" stroke="#000" stroke-linejoin="round" stroke-width="2"/>
      <path id="Path_4280" data-name="Path 4280" d="M294.718,321.6c9.957-5.979,24.137-6.141,38.595,2.207,29.766,17.185,53.982,60.908,53.982,97.463,0,19.422-6.553,32.584-19.032,39.46" transform="translate(297.151 319.924)" fill="none" stroke="#000" stroke-linejoin="round" stroke-width="2"/>
      <path id="Path_4281" data-name="Path 4281" d="M301.674,323.522c-7.416,6.025-11.857,17.141-11.857,32.349,0,32.861,21.729,72.14,48.439,87.56,13.174,7.607,25.18,7.2,33.67,1.815" transform="translate(292.209 326.193)" fill="none" stroke="#000" stroke-linejoin="round" stroke-width="2"/>
      <path id="Path_4282" data-name="Path 4282" d="M309.291,349.173s3.231-1.864,3.854-2.233c1.558-.924,3.667-.825,5.987.514,4.8,2.769,8.684,9.792,8.684,15.687,0,3.171-1.125,5.368-2.91,6.292-.958.5-4.163,2.4-4.163,2.4" transform="translate(311.844 349.192)" fill="none" stroke="#000" stroke-linejoin="round" stroke-width="2"/>
      <path id="Path_4283" data-name="Path 4283" d="M307.79,354.31c0,5.894,3.888,12.917,8.684,15.687s8.684.235,8.684-5.659-3.888-12.919-8.684-15.686S307.79,348.416,307.79,354.31Z" transform="translate(310.331 350.398)" fill="none" stroke="#000" stroke-linejoin="round" stroke-width="2"/>
      <path id="Path_4284" data-name="Path 4284" d="M314.048,351.352a8.9,8.9,0,0,1,3.9,7.043c0,2.647-1.745,3.784-3.9,2.54a8.9,8.9,0,0,1-3.9-7.043C310.15,351.247,311.9,350.109,314.048,351.352Z" transform="translate(312.71 353.745)" fill="none" stroke="#000" stroke-linejoin="round" stroke-width="2"/>
      <path id="Path_4285" data-name="Path 4285" d="M275.293,355.834s3.442-2.069,4.151-2.37c1.938-.821,4.41-.556,7.105,1,6.217,3.589,11.256,12.694,11.256,20.336,0,3.894-1.309,6.657-3.418,7.955-1.344.827-3.551,2.071-3.551,2.071" transform="translate(277.566 355.923)" fill="none" stroke="#000" stroke-linejoin="round" stroke-width="2"/>
      <path id="Path_4286" data-name="Path 4286" d="M273.216,363c0,7.641,5.041,16.745,11.256,20.336s11.256.3,11.256-7.338-5.039-16.745-11.256-20.334S273.216,355.355,273.216,363Z" transform="translate(275.471 357.13)" fill="none" stroke="#000" stroke-linejoin="round" stroke-width="2"/>
      <path id="Path_4287" data-name="Path 4287" d="M276.3,362.348a11.542,11.542,0,0,0,5.055,9.129c2.789,1.611,5.053.137,5.053-3.293a11.543,11.543,0,0,0-5.053-9.129C278.567,357.441,276.3,358.917,276.3,362.348Z" transform="translate(278.585 361.359)" fill="none" stroke="#000" stroke-linejoin="round" stroke-width="2"/>
      <path id="Path_4288" data-name="Path 4288" d="M350.551,308.739l-18.87-10.624-4.715-2.673a2.1,2.1,0,0,1-.87-1.9,6.482,6.482,0,0,1,2.934-5.081,2.065,2.065,0,0,1,2.066-.209l18.343,10.525c2.064,1.193,5.041,2.671,5.041,2.671" transform="translate(328.788 290.436)" fill="none" stroke="#000" stroke-linejoin="round" stroke-width="2"/>
      <path id="Path_4289" data-name="Path 4289" d="M337.785,300.135c0,1.872,1.313,2.629,2.934,1.693a6.479,6.479,0,0,0,2.934-5.081c0-1.872-1.313-2.629-2.934-1.693A6.482,6.482,0,0,0,337.785,300.135Z" transform="translate(340.573 297.086)" fill="none" stroke="#000" stroke-linejoin="round" stroke-width="2"/>
      <path id="Path_4290" data-name="Path 4290" d="M383.872,289.451,365,278.828l-4.715-2.673a2.1,2.1,0,0,1-.87-1.9,6.486,6.486,0,0,1,2.934-5.081,2.066,2.066,0,0,1,2.067-.209l18.343,10.525c2.065,1.193,5.041,2.671,5.041,2.671" transform="translate(362.385 270.988)" fill="none" stroke="#000" stroke-linejoin="round" stroke-width="2"/>
      <path id="Path_4291" data-name="Path 4291" d="M371.108,280.847c0,1.872,1.313,2.629,2.934,1.693a6.479,6.479,0,0,0,2.934-5.081c0-1.872-1.313-2.629-2.934-1.693A6.479,6.479,0,0,0,371.108,280.847Z" transform="translate(374.171 277.638)" fill="none" stroke="#000" stroke-linejoin="round" stroke-width="2"/>
      <path id="Path_4292" data-name="Path 4292" d="M269,336.349c2.565,2.046,6.724,3.117,10.531,3.681-.331,1.2-.667,2.394-1.01,3.559-.532,1.805,3.408,5.286,5.175,5.469.3.03.673.074,1.08.106l-1.743,8.457a2.646,2.646,0,0,1-1.94.122c-.856-.54-3.8-3.139-3.8-3.139l.321-1.546s-4.754-.938-6.007-1.414c-8.545-3.251-12.176-9.033-13.634-13.154-.952-2.687,4.555-7.3,11.021-2.141" transform="translate(260.003 336.772)"/>
      <path id="Path_4293" data-name="Path 4293" d="M301.22,339.995c-4.828-2.179-8.539-1.826-9.614,3.392L284.754,376.3a1.407,1.407,0,0,1-.094.217,1.685,1.685,0,0,1-.133.305,1.208,1.208,0,0,1-.287.323,1.021,1.021,0,0,1-.217.157,1.224,1.224,0,0,1-.458.092,1.279,1.279,0,0,1-.251.016,2.17,2.17,0,0,1-.845-.291l-22.1-13.005a5.176,5.176,0,0,1-2.342-4.055c0-1.492,1.048-2.1,2.342-1.35L280.575,370.6l6.141-29.815c1.526-7.408,7.417-10.28,14.506-7.481" transform="translate(260.158 334.994)" fill="none" stroke="#000" stroke-linejoin="round" stroke-width="2"/>
      <path id="Path_4294" data-name="Path 4294" d="M274.088,350.8c-.271-.026-.52-.054-.731-.076-1.767-.183-5.707-3.665-5.175-5.47,1.219-4.131,2.368-8.571,3.4-12.891" transform="translate(270.346 335.106)" fill="none" stroke="#000" stroke-linejoin="round" stroke-width="2"/>
      <line id="Line_37" data-name="Line 37" x1="21.956" y1="4.561" transform="translate(598.49 587.178)" fill="none" stroke="#000" stroke-linejoin="round" stroke-width="2"/>
      <path id="Path_4295" data-name="Path 4295" d="M280.2,302.677a7.885,7.885,0,0,1,2.325-8.328,13.4,13.4,0,0,1,8.754-3.619,43.181,43.181,0,0,1,6.533.1" transform="translate(282.126 293.055)" fill="none" stroke="#000" stroke-linejoin="round" stroke-width="2"/>
      <line id="Line_38" data-name="Line 38" x1="29.907" y1="17.245" transform="translate(589.044 657.447)" fill="none" stroke="#000" stroke-linejoin="round" stroke-width="2"/>
      <line id="Line_39" data-name="Line 39" x1="30.716" y1="17.713" transform="translate(591.481 653.447)" fill="none" stroke="#000" stroke-linejoin="round" stroke-width="2"/>
      <path id="Path_4296" data-name="Path 4296" d="M282.083,324.976a37.17,37.17,0,0,0,7.151,1.564,36.8,36.8,0,0,1-.556,4.406c-.243,1.181.819,2.472,2.078,3.3l-1.386,4.8-.683,4.239c-1.175-.956-2.707-2.309-2.707-2.309l.319-1.546s-2.215-.438-4.025-.868Z" transform="translate(284.412 327.659)"/>
      <path id="Path_4297" data-name="Path 4297" d="M287.146,338.016c-1.115-.829-1.984-2.008-1.761-3.089.98-4.756.815-13.9.815-13.9l7.318,4.5" transform="translate(287.705 323.678)" fill="none" stroke="#000" stroke-linejoin="round" stroke-width="2"/>
      <path id="Path_4298" data-name="Path 4298" d="M338.959,325.231c-29.764-17.185-53.98-1.424-53.98,35.132s24.215,80.278,53.98,97.463,53.984,1.426,53.984-35.13S368.727,342.418,338.959,325.231ZM387.4,419.495c0,32.861-21.729,47.049-48.439,31.628s-48.435-54.7-48.435-87.558,21.729-47.047,48.435-31.628S387.4,386.635,387.4,419.495Z" transform="translate(287.331 320.903)" fill="none" stroke="#000" stroke-linejoin="round" stroke-width="2"/>
      <path id="Path_4299" data-name="Path 4299" d="M284.4,412V315.184c0-10.638,7.495-14.963,16.707-9.646l47.369,27.3c1.291.747,2.34.143,2.34-1.35a5.179,5.179,0,0,0-2.34-4.055l-47.369-27.3c-11.792-6.808-21.388-1.269-21.388,12.347V409.8" transform="translate(282.031 299.675)" fill="none" stroke="#000" stroke-linejoin="round" stroke-width="2"/>
      <path id="Path_4300" data-name="Path 4300" d="M346.35,272.505c-8.915,8.786-18.092,21.711-29.481,23.495-7.9,1.237-29.813-9.618-37.04-14.439-3.488-2.328-8.461,11.913-6.422,13.182,28.31,17.6,49,31.7,78.089,8.073C363.973,292.682,359.125,259.916,346.35,272.505Z" transform="translate(275.185 271.892)" fill="none" stroke="#000" stroke-linejoin="round" stroke-width="2"/>
      <path id="Path_4301" data-name="Path 4301" d="M286.087,282.619c-.735-1.229-1.048-2.755-1.556-3.633-.137-.253-1.078-3.316-3.763-4.519-3.79-1.7-6.663-3.185-7.854-2.639a31.374,31.374,0,0,0-4.48-2.2,2.132,2.132,0,0,0-2.243.211,1.558,1.558,0,0,0-1.749-.06,1.5,1.5,0,0,0,.056,2.05l1.072,2.07c-.436.317-.775.269-1.08,1.271-.313,1.03,1.813,3.225,2.454,4.1a24.13,24.13,0,0,0,3.219,3.022c-.01.01,5.013,4.014,6.475,5.175,1.524,1.209,3.98,1.512,6.073,2.35" transform="translate(266.249 271.645)" fill="none" stroke="#000" stroke-linejoin="round" stroke-width="2"/>
      <path id="Path_4302" data-name="Path 4302" d="M302.4,188.088l9.692,1.08,21.721,81.549-7.778,7.752" transform="translate(304.894 189.64)" fill="none" stroke="#000" stroke-linejoin="round" stroke-width="2"/>
      <line id="Line_40" data-name="Line 40" y1="67.499" x2="67.73" transform="translate(550.086 481.177)" fill="none" stroke="#000" stroke-linejoin="round" stroke-width="2"/>
      <line id="Line_41" data-name="Line 41" x1="67.062" y2="169.306" transform="translate(549.922 378.809)" fill="none" stroke="#000" stroke-linejoin="round" stroke-width="2"/>
      <path id="Path_4303" data-name="Path 4303" d="M375.96,229.233l-115.366,6.109,20.135,78.049" transform="translate(262.745 231.125)" fill="none" stroke="#000" stroke-linejoin="round" stroke-width="2"/>
      <line id="Line_42" data-name="Line 42" y1="20.755" x2="8.288" transform="translate(523.339 445.711)" fill="none" stroke="#000" stroke-linejoin="round" stroke-width="2"/>
      <path id="Path_4304" data-name="Path 4304" d="M273.969,294.7,260.58,243.672l74.269-74.016,13.737,52.363" transform="translate(262.731 171.056)" fill="none" stroke="#000" stroke-linejoin="round" stroke-width="2"/>
      <path id="Path_4305" data-name="Path 4305" d="M308,243.551s1.026,16.837,2.48,20.91c3.553,9.943,6.941,11.584,12.835,9.891l2.255,7.4" transform="translate(310.548 245.561)" fill="none" stroke="#000" stroke-linejoin="round" stroke-width="2"/>
      <path id="Path_4306" data-name="Path 4306" d="M378.2,322.971c.474-6.75,1.06-13.734,1.47-18.04,1.1-11.493,3.541-33.134-10.907-44.879-5.9-4.8-13.56-1.727-20.141.864,0,0,7.18,13.148-14.429,13.835-7.252.229-5.436-7.1-5.436-7.1-6.874,3.551-14.13,11.076-17.753,16.889a99.482,99.482,0,0,0-6.163,10.065" transform="translate(307.361 259.66)" fill="none" stroke="#000" stroke-linejoin="round" stroke-width="2"/>
      <path id="Path_4307" data-name="Path 4307" d="M309,288.858s.631,1.759.663,1.982c2.325,15.608-3.906,17.992-1.426,37.337" transform="translate(310.177 291.243)" fill="none" stroke="#000" stroke-linejoin="round" stroke-width="2"/>
      <path id="Path_4308" data-name="Path 4308" d="M329.823,231.107c3.8-.785,11.08-1.352,17.512,3.081,1.657,1.143,4.418,5.217,6.5,7.427,1.852,1.962,4.95,2.237,6.569,3.976A14.541,14.541,0,0,1,364,255.953c-.114,3.5-2.046,3.826-1.675,6.6.313,2.323,2.928,3.613,2.757,8.18-.114,3.048-2.781,3.129-2.85,6.2-.09,4.009-2.816,8.6-6.33,8.9-3.569.3-3.88,2.2-5.788,2.187-2.681-.018-4.127-.422-6.206,1.52a9.921,9.921,0,0,1-7.2,2.117,41.285,41.285,0,0,0-6.868-.086c-6.892.185-4.657-2-7.374-6.1-1.723-2.6-5.934-3.067-6.706-7.909-.552-3.478.378-6.44-.813-9.857-.974-2.791-4.91-7.421-4.736-11.541.219-5.137,1.805-7.284,5.468-10.919,2.209-2.191.864-5.159,6.025-9.182,2.753-2.147,4.569-4.227,8.119-4.962" transform="translate(312.766 232.47)"/>
      <path id="Path_4309" data-name="Path 4309" d="M345.574,232.061c-6.444-2.872-26.547-.745-33.789,6.91-7.433,7.858-6.125,12.861-4.121,16.908,1,2.024,4.948-.183,6.406,6.071.942,4.039,5.707,2.249,5.647,9.272-.032,3.968,32.725-36.1,25.856-39.161" transform="translate(308.631 232.741)"/>
      <path id="Path_4310" data-name="Path 4310" d="M371.183,168.724c.048-.8-.2-3.86,3.026-5.135a2.566,2.566,0,0,1,3.275,1.038c.845-3.087,1.623-9.326-2.47-16.9-1.332-2.462-4.689-5.846-11.935-6.772-6.4-.819-13.387-1.1-19.534,8.027-5.137,7.631-1.424,21.621-1.424,21.621L362.8,169.24l1.416-5.573s.426,4.362,1.329,5.288c.866.886,4.037.53,5.657.279a4.811,4.811,0,0,1-.02-.51" transform="translate(343.637 141.739)"/>
      <line id="Line_43" data-name="Line 43" y2="51.63" transform="translate(698.564 679.42)" fill="none" stroke="#000" stroke-linejoin="round" stroke-width="2"/>
      <line id="Line_44" data-name="Line 44" x2="29.724" y2="51.63" transform="translate(702.664 679.42)" fill="none" stroke="#000" stroke-linejoin="round" stroke-width="2"/>
      <path id="Path_4311" data-name="Path 4311" d="M352.17,337.077l33.6,20.693,1.4.882" transform="translate(355.077 339.859)" fill="none" stroke="#000" stroke-linejoin="round" stroke-width="2"/>
      <line id="Line_45" data-name="Line 45" y1="11.272" x2="20.207" transform="translate(709.432 653.562)" fill="none" stroke="#000" stroke-linejoin="round" stroke-width="2"/>
      <line id="Line_46" data-name="Line 46" x1="9.676" y1="14.903" transform="translate(681.026 644.054)" fill="none" stroke="#000" stroke-linejoin="round" stroke-width="2"/>
      <line id="Line_47" data-name="Line 47" x1="20.177" y1="11.648" transform="translate(669.984 654.81)" fill="none" stroke="#000" stroke-linejoin="round" stroke-width="2"/>
      <line id="Line_48" data-name="Line 48" x1="22.561" y2="11.576" transform="translate(669.866 674.692)" fill="none" stroke="#000" stroke-linejoin="round" stroke-width="2"/>
      <line id="Line_49" data-name="Line 49" x1="23.033" y2="13.275" transform="translate(637.949 692.748)" fill="none" stroke="#000" stroke-linejoin="round" stroke-width="2"/>
      <line id="Line_50" data-name="Line 50" x1="27.477" y1="48.797" transform="translate(595.604 648.445)" fill="none" stroke="#000" stroke-linejoin="round" stroke-width="2"/>
      <line id="Line_51" data-name="Line 51" x1="37.181" y1="21.468" transform="translate(581.141 681.109)" fill="none" stroke="#000" stroke-linejoin="round" stroke-width="2"/>
      <line id="Line_52" data-name="Line 52" x1="26.322" y2="15.196" transform="translate(594.573 714.09)" fill="none" stroke="#000" stroke-linejoin="round" stroke-width="2"/>
      <line id="Line_53" data-name="Line 53" x2="0.066" y2="48.108" transform="translate(630.397 721.517)" fill="none" stroke="#000" stroke-linejoin="round" stroke-width="2"/>
      <line id="Line_54" data-name="Line 54" x2="28.284" y2="51" transform="translate(636.75 718.625)" fill="none" stroke="#000" stroke-linejoin="round" stroke-width="2"/>
      <line id="Line_55" data-name="Line 55" x2="35.281" y2="19.402" transform="translate(639.261 715.634)" fill="none" stroke="#000" stroke-linejoin="round" stroke-width="2"/>
    </g>
  </g>
</svg>
