<svg id="Group_168" data-name="Group 168" xmlns="http://www.w3.org/2000/svg" width="698" height="698" viewBox="0 0 698 698">
  <rect id="Rectangle_21" data-name="Rectangle 21" width="698" height="698" fill="#fff"/>
  <rect id="Rectangle_22" data-name="Rectangle 22" width="207.649" height="207.649" transform="translate(37.526 37.526)" fill="#1a1818"/>
  <path id="Path_4101" data-name="Path 4101" d="M422.7,215.049h29.664v29.664h29.664v29.664H452.363v29.664h29.664V274.377h29.664v29.664h29.664V363.37H511.691V422.7H482.027V393.034H452.363v59.328h59.328v29.664H482.027v29.664H452.363v29.664H422.7V511.691H393.034V482.026H422.7V452.362H363.37v59.328h29.664v29.664H422.7v29.664H363.37V541.355H304.042v29.664h29.664v29.664H452.363v29.664h29.664v29.664H452.363v29.664h29.664V719.34h29.664v88.993H482.027V838H422.7V630.348H215.049V571.019h29.664v29.664h29.664V482.026H244.713v29.664H215.049V422.7H422.7Z" transform="translate(-177.523 -177.523)" fill="#fff"/>
  <rect id="Rectangle_23" data-name="Rectangle 23" width="29.664" height="29.664" transform="translate(274.84 37.526)" fill="#1a1818"/>
  <rect id="Rectangle_24" data-name="Rectangle 24" width="59.328" height="29.664" transform="translate(304.504 37.526)" fill="#fff"/>
  <path id="Path_4102" data-name="Path 4102" d="M1664,215.049h59.328V363.37h-29.664v29.664H1664v88.992h29.664v29.664H1634.34v29.664h-59.328V511.691h29.664V482.026h29.664V452.362h-59.328V393.034h29.664V422.7h29.664V363.37H1664V304.041h29.664V244.713H1664Z" transform="translate(-1300.172 -177.523)" fill="#1a1818"/>
  <path id="Path_4103" data-name="Path 4103" d="M1863.664,215.049h29.664V422.7h207.65v29.664h-29.664v59.328h-88.993V452.362h-29.664V571.019h29.664v59.328h29.664V600.683h59.328V571.019h-29.664V541.355h29.664V511.691h29.664V749h-59.329V689.676h-29.664V660.012h-59.328V600.683h-59.328v29.664h29.664v29.664H1834v29.664h29.664V719.34H1834V749h-29.664V719.34h-29.664V689.676h-29.664V660.012h59.328V630.348h59.328V541.355h29.664v29.664h29.664V452.362h-29.664v59.328H1834V482.026h-29.664V393.034H1834v59.328h29.664V393.034H1834V363.37h29.664Z" transform="translate(-1440.503 -177.523)" fill="#fff"/>
  <rect id="Rectangle_25" data-name="Rectangle 25" width="207.649" height="207.649" transform="translate(452.825 37.526)" fill="#1a1818"/>
  <rect id="Rectangle_26" data-name="Rectangle 26" width="148.321" height="148.321" transform="translate(67.19 67.19)" fill="#fff"/>
  <path id="Path_4104" data-name="Path 4104" d="M1745.007,385.044h59.328v59.328h-29.664V414.708h-29.664Z" transform="translate(-1440.503 -317.854)" fill="#1a1818"/>
  <rect id="Rectangle_27" data-name="Rectangle 27" width="29.664" height="59.328" transform="translate(363.832 67.19)" fill="#fff"/>
  <rect id="Rectangle_28" data-name="Rectangle 28" width="148.321" height="148.321" transform="translate(482.489 67.19)" fill="#fff"/>
  <rect id="Rectangle_29" data-name="Rectangle 29" width="88.993" height="88.993" transform="translate(96.854 96.854)" fill="#1a1818"/>
  <rect id="Rectangle_30" data-name="Rectangle 30" width="29.664" height="29.664" transform="translate(274.84 96.854)" fill="#1a1818"/>
  <rect id="Rectangle_31" data-name="Rectangle 31" width="88.993" height="88.993" transform="translate(512.153 96.854)" fill="#1a1818"/>
  <rect id="Rectangle_32" data-name="Rectangle 32" width="29.664" height="29.664" transform="translate(274.84 156.183)" fill="#1a1818"/>
  <rect id="Rectangle_33" data-name="Rectangle 33" width="29.664" height="59.328" transform="translate(393.496 215.511)" fill="#1a1818"/>
  <path id="Path_4105" data-name="Path 4105" d="M1065.026,1575.012h59.328v29.664H1094.69v29.664h-29.664Z" transform="translate(-879.179 -1300.172)" fill="#1a1818"/>
  <path id="Path_4106" data-name="Path 4106" d="M2173.99,1575.012h29.664v118.657H2173.99V1664h-29.664V1753H2085v-29.664h29.664v-29.664H2085V1664h29.664V1634.34h59.329Z" transform="translate(-1721.166 -1300.172)" fill="#1a1818"/>
  <path id="Path_4107" data-name="Path 4107" d="M2934.974,1575.012h29.664v59.328h88.992V1664h-29.664v29.664h29.664v29.664H2994.3V1753h-29.664v-59.328H2994.3V1664h-29.664v29.664h-29.664Z" transform="translate(-2422.821 -1300.172)" fill="#1a1818"/>
  <rect id="Rectangle_34" data-name="Rectangle 34" width="29.664" height="29.664" transform="translate(571.481 274.84)" fill="#1a1818"/>
  <rect id="Rectangle_35" data-name="Rectangle 35" width="29.664" height="59.328" transform="translate(630.81 274.84)" fill="#1a1818"/>
  <path id="Path_4108" data-name="Path 4108" d="M244.713,1745.007h29.664v118.657H244.713V1834H215.049v-59.328h29.664Z" transform="translate(-177.523 -1440.503)" fill="#1a1818"/>
  <rect id="Rectangle_36" data-name="Rectangle 36" width="29.664" height="29.664" transform="translate(126.519 304.504)" fill="#1a1818"/>
  <rect id="Rectangle_37" data-name="Rectangle 37" width="29.664" height="29.664" transform="translate(215.511 334.168)" fill="#1a1818"/>
  <path id="Path_4109" data-name="Path 4109" d="M1634.34,1915h59.328v29.664H1664v29.664h29.664v29.664H1664v29.664h-59.328v-29.664h29.664v-29.664h-29.664v29.664h-29.664v-59.328h59.328Z" transform="translate(-1300.172 -1580.834)" fill="#fff"/>
  <path id="Path_4110" data-name="Path 4110" d="M725.035,2085h59.328v29.664h59.328V2085h29.664v59.329H754.7v-29.665H725.035Z" transform="translate(-598.516 -1721.166)" fill="#1a1818"/>
  <rect id="Rectangle_38" data-name="Rectangle 38" width="29.664" height="29.664" transform="translate(541.817 363.832)" fill="#fff"/>
  <rect id="Rectangle_39" data-name="Rectangle 39" width="29" height="30" transform="translate(305 393)" fill="#1a1818"/>
  <rect id="Rectangle_40" data-name="Rectangle 40" width="29.664" height="29.664" transform="translate(274.84 423.16)" fill="#1a1818"/>
  <path id="Path_4111" data-name="Path 4111" d="M2033.659,2424.988h59.329v59.329h59.328v29.664h-59.328v29.664h-59.329v59.329h-88.992v29.664H1915v-88.993h29.664v29.664h29.664v-29.664H2004v-29.664h-29.664v-29.664h88.992v-29.664h-29.664Z" transform="translate(-1580.835 -2001.828)" fill="#1a1818"/>
  <rect id="Rectangle_41" data-name="Rectangle 41" width="207.649" height="207.649" transform="translate(37.526 452.825)" fill="#1a1818"/>
  <rect id="Rectangle_42" data-name="Rectangle 42" width="59.328" height="29.664" transform="translate(304.504 452.825)" fill="#1a1818"/>
  <rect id="Rectangle_43" data-name="Rectangle 43" width="29.664" height="29.664" transform="translate(601.146 452.825)" fill="#1a1818"/>
  <rect id="Rectangle_44" data-name="Rectangle 44" width="148.321" height="148.321" transform="translate(67.19 482.489)" fill="#fff"/>
  <rect id="Rectangle_45" data-name="Rectangle 45" width="29.664" height="29.664" transform="translate(274.84 482.489)" fill="#1a1818"/>
  <rect id="Rectangle_46" data-name="Rectangle 46" width="88.993" height="88.993" transform="translate(96.854 512.153)" fill="#1a1818"/>
  <rect id="Rectangle_47" data-name="Rectangle 47" width="29.664" height="29.664" transform="translate(304.504 512.153)" fill="#1a1818"/>
  <path id="Path_4112" data-name="Path 4112" d="M2233.318,2934.974h59.328v118.656h-29.664v-29.664h-29.664V3083.3h-88.993v-29.665H2085v-29.664h88.992v29.664h29.665v-29.664H2173.99v-59.328h59.329Z" transform="translate(-1721.165 -2422.821)" fill="#fff"/>
  <path id="Path_4113" data-name="Path 4113" d="M2994.3,2934.974h29.664V2994.3h59.328v29.664h-59.328v29.664h29.664V3083.3H2934.974v-59.329h29.664v29.664H2994.3Z" transform="translate(-2422.821 -2422.821)" fill="#1a1818"/>
  <rect id="Rectangle_48" data-name="Rectangle 48" width="29.664" height="29.664" transform="translate(452.825 601.146)" fill="#1a1818"/>
  <path id="Path_4114" data-name="Path 4114" d="M3444.96,3444.96h59.329v59.329h-29.665v-29.665H3444.96Z" transform="translate(-2843.815 -2843.815)" fill="#fff"/>
  <rect id="Rectangle_49" data-name="Rectangle 49" width="29.664" height="29.664" transform="translate(304.504 630.81)" fill="#1a1818"/>
  <rect id="Rectangle_50" data-name="Rectangle 50" width="29.664" height="29.664" transform="translate(334.168 630.81)" fill="#fff"/>
  <rect id="Rectangle_51" data-name="Rectangle 51" width="59.328" height="29.664" transform="translate(363.832 630.81)" fill="#1a1818"/>
</svg>
