<svg xmlns="http://www.w3.org/2000/svg" xmlns:xlink="http://www.w3.org/1999/xlink" width="150.348" height="142.808" viewBox="0 0 150.348 142.808">
  <defs>
    <clipPath id="clip-path">
      <rect id="Rectangle_52" data-name="Rectangle 52" width="150.348" height="142.808" fill="none"/>
    </clipPath>
  </defs>
  <g id="Group_170" data-name="Group 170" transform="translate(-23.87 6.327)">
    <g id="Group_169" data-name="Group 169" transform="translate(23.87 -6.327)" clip-path="url(#clip-path)">
      <path id="Path_4118" data-name="Path 4118" d="M15.71,67.92C1.892,65.785-.125,63.352.006,49.588c.091-9.612,3.436-12.776,15.7-14.493,0-5.785-.029-11.641.006-17.5C15.783,6.459,22.174.036,33.312.024q41.86-.048,83.72,0c11.143.013,17.532,6.429,17.6,17.568.037,5.856.006,11.713.006,17.5,12.493,1.771,15.65,4.853,15.706,14.957.073,13.328-2,15.767-15.7,17.87v18.35c0,7.287-.138,14.577.039,21.859.17,7.01-1.955,12.791-8.228,16.914,0,3.326.129,6.713-.031,10.087-.221,4.656-3,7.436-7.659,7.576-5.112.153-10.233.12-15.347.028-5.459-.1-8.21-2.826-8.489-8.321-.116-2.278-.019-4.567-.019-7.134H55.443c0,2.564.1,4.852-.019,7.129-.282,5.5-3.034,8.227-8.488,8.326-5.114.093-10.235.125-15.347-.028-4.657-.139-7.436-2.924-7.661-7.573-.157-3.247-.03-6.508-.03-9.984-6.632-4.308-8.422-10.768-8.262-18.412.27-12.854.074-25.718.074-38.814m110.7,19.651H23.869c0,7.422-.025,14.514.007,21.606.033,7.237,2.849,10.027,10.183,10.037q26.479.036,52.957.008c10.065,0,20.13.043,30.195-.019,5.293-.033,8.986-2.757,9.13-7.236.257-8.012.072-16.038.072-24.4M24.083,78.98H70.957V32H24.083Zm55.381-.04h46.628V31.885H79.465ZM23.871,23.253H126.289c.076-1.187.17-2.091.187-3,.2-10.509-1.741-12.477-12.288-12.478q-25.786,0-51.573,0c-9.757,0-19.514-.037-29.271.015-6.551.035-9.366,2.833-9.468,9.242-.032,1.982,0,3.965,0,6.218m8.079,111.47H47.09v-7.452H31.95Zm71.129-.134h15.345v-7.182H103.079ZM15.493,42.853C12.71,44.008,9.04,44.571,8.8,45.81a29.46,29.46,0,0,0,.147,11.773c.271,1.231,3.891,1.726,6.55,2.785ZM134.909,60.5c2.739-1.191,6.342-1.78,6.6-3.055a29.642,29.642,0,0,0-.053-11.783c-.247-1.182-3.928-1.646-6.551-2.633Z" transform="translate(0 0)" fill="#fff"/>
      <path id="Path_4119" data-name="Path 4119" d="M138.217,389.334a12.122,12.122,0,0,1-11.544-12.179,11.885,11.885,0,1,1,11.544,12.179m.147-17.388c-1.635,2.547-3.46,4.134-3.3,5.489.168,1.433,2.224,2.646,3.455,3.955,1.29-1.41,3.349-2.69,3.616-4.272.2-1.186-1.909-2.76-3.769-5.172" transform="translate(-95.03 -274.246)" fill="#fff"/>
      <path id="Path_4120" data-name="Path 4120" d="M391.914,389.33A12.043,12.043,0,0,1,380.1,377.469a11.884,11.884,0,1,1,23.767.091,12.12,12.12,0,0,1-11.951,11.771m.071-17.381c-1.776,2.467-3.834,4.114-3.592,5.29.323,1.574,2.426,2.782,3.765,4.148,1.188-1.354,3.2-2.638,3.324-4.082.114-1.354-1.774-2.877-3.5-5.355" transform="translate(-285.16 -274.242)" fill="#fff"/>
      <path id="Path_4121" data-name="Path 4121" d="M253.1,54.625c-3.562,0-7.2.435-10.654-.183-1.734-.31-3.126-2.532-4.673-3.889,1.466-1.3,2.879-3.655,4.408-3.733a222.1,222.1,0,0,1,22.746,0c1.532.079,2.948,2.424,4.417,3.725-1.543,1.36-2.944,3.626-4.659,3.9-3.778.6-7.714.185-11.586.185" transform="translate(-178.382 -34.907)" fill="#fff"/>
    </g>
  </g>
</svg>
