<svg xmlns="http://www.w3.org/2000/svg" xmlns:xlink="http://www.w3.org/1999/xlink" width="138.372" height="138.436" viewBox="0 0 138.372 138.436">
  <defs>
    <clipPath id="clip-path">
      <rect id="Rectangle_53" data-name="Rectangle 53" width="138.372" height="138.436" fill="none"/>
    </clipPath>
  </defs>
  <g id="Group_254" data-name="Group 254" transform="translate(8 -4.999)">
    <g id="Group_171" data-name="Group 171" transform="translate(-8 4.999)" clip-path="url(#clip-path)">
      <path id="Path_4122" data-name="Path 4122" d="M21.285,93.036A37.912,37.912,0,0,1,4.565,66.682,35.8,35.8,0,0,1,9.823,41.077,23.52,23.52,0,0,0,13.54,28.289C13.652,12.862,26.276.075,41.414,0a28.737,28.737,0,0,1,29.163,28.18c.046,2.439.343,4.873.522,7.288L82.075,34.5c0-6.256-.068-12.765.015-19.272C82.226,4.737,92.2-2.316,101.925,1.547c3.072,1.22,5.534,3.974,8.666,6.318,6.149-3.06,12.88-3.428,18.5,2.524,5.255,5.567,4.918,11.984,1.795,17.979,2.182,2.736,4.8,4.974,6.081,7.814,4.558,10.072-2.465,20.35-13.867,20.6-6.3.139-12.6.025-18.807.025-.394,3.442-.561,6.577-1.144,9.632A21.774,21.774,0,0,1,95,79.755C78.993,92.264,63.13,104.988,46.691,116.913,34.526,125.738,20.965,132.356,7.013,138a7.148,7.148,0,0,1-5.535-.249c-2.2-1.284-1.565-3.707-.521-5.751Q9.881,114.535,18.83,97.084c.667-1.3,1.512-2.5,2.455-4.048M90.518,72.644a17.274,17.274,0,0,0,3.306-20.578C90.314,45.479,82.5,41.594,75.289,43.4c-2.953.739-6.348,2-8.271,4.159-7.331,8.224-14.145,16.909-21.573,25.934,2.325,2.082,4.4,3.819,6.329,5.7,1.982,1.931,2.432,4.212.229,6.188-2,1.8-4.209,1.348-6.016-.536-1.622-1.69-3.118-3.5-4.965-5.594a243.681,243.681,0,0,0-28.9,47.547C39.63,114.681,62.011,96.574,84.5,77.666c-2.668-2.547-5.14-4.843-7.537-7.214-2.789-2.759-3.2-5.047-1.369-7C77.523,61.4,79.821,61.8,82.8,64.78c2.55,2.553,5.057,5.149,7.718,7.864M54.659,47.269c2.937-2.534,5.785-4.913,8.51-7.425a2.934,2.934,0,0,0,.4-2.122c-.341-3.574-.93-7.129-1.15-10.709-.63-10.246-9.829-18.858-20.34-18.893-10.592-.035-20.065,8.466-20.309,18.734a40.139,40.139,0,0,1-5.9,20.118C8.1,60.064,13.065,78.835,26,85.92l5.3-7.451c-9.638-9.213-11.322-19.886-4.674-28.153,7.32-9.1,17.872-10.028,28.035-3.047M90.194,25.41c0,3.275-.164,6.563.085,9.819A6.449,6.449,0,0,0,92.092,38.7c2.581,2.79,5.32,5.437,8.047,8.089.738.717,1.643,1.775,2.487,1.79,7.112.129,14.234.222,21.339-.031a6.14,6.14,0,0,0,6.253-6.6c-.124-3.668-2.472-5.806-6.713-6.108-.337-.024-.76.108-1-.05-1.425-.929-3.438-1.65-4.01-2.977-.479-1.112.473-3.122,1.282-4.431.867-1.4,2.393-2.381,3.481-3.672a6.68,6.68,0,0,0-.165-8.945,6.724,6.724,0,0,0-8.955-.137c-.947.8-1.648,1.969-2.695,2.547-1.738.959-3.752,2.351-5.492,2.157-2.7-.3-2.8-2.976-2.9-5.35-.173-4.02-2.66-6.287-6.508-6.225-3.718.06-6.2,2.529-6.322,6.488-.1,3.385-.021,6.775-.027,10.163M50.2,54.8c-3.324-3.746-7.3-4.863-11.594-3.372-4.592,1.593-7.658,5.339-7.821,9.97-.157,4.467,1.781,7.878,5.764,10.361L50.2,54.8" transform="translate(0 0)" fill="#fff"/>
    </g>
  </g>
</svg>
