<?xml version="1.0" encoding="utf-8"?>
<!-- Generator: Adobe Illustrator 26.5.0, SVG Export Plug-In . SVG Version: 6.00 Build 0)  -->
<svg version="1.1" id="Layer_1" xmlns="http://www.w3.org/2000/svg" xmlns:xlink="http://www.w3.org/1999/xlink" x="0px" y="0px"
	 viewBox="0 0 112.5 112.5" style="enable-background:new 0 0 112.5 112.5;" xml:space="preserve">
<style type="text/css">
	.st0{fill:#EE7981;}
</style>
<g id="Group_203" transform="translate(0 0)">
	<path id="Path_4148" class="st0" d="M16.4,9.6h14.1c2.6,0,4.8-2.1,4.9-4.7c0-2.6-2.1-4.8-4.7-4.9c0,0-0.1,0-0.1,0H4.8
		C2.1,0,0,2.1,0,4.8c0,0,0,0,0,0v25.7c0,2.6,2.1,4.8,4.7,4.9c2.6,0,4.8-2.1,4.9-4.7c0,0,0-0.1,0-0.1V16.4l25.5,25.5
		c1.9,1.9,4.9,1.9,6.8,0l0,0c1.9-1.9,1.9-4.9,0-6.8L16.4,9.6z"/>
	<path id="Path_4149" class="st0" d="M107.7,77.2c-2.6,0-4.8,2.1-4.8,4.8c0,0,0,0,0,0v14.1L77.4,70.6c-1.9-1.8-4.9-1.8-6.8,0.1
		c-1.8,1.9-1.8,4.8,0,6.7l25.5,25.5H82c-2.6,0-4.8,2.1-4.8,4.8c0,2.6,2.1,4.8,4.8,4.8c0,0,0,0,0,0h25.7c2.6,0,4.8-2.1,4.8-4.8
		c0,0,0,0,0,0V82C112.5,79.4,110.3,77.2,107.7,77.2C107.7,77.2,107.7,77.2,107.7,77.2"/>
	<path id="Path_4150" class="st0" d="M41.9,70.6c-1.9-1.9-4.9-1.9-6.8,0L9.6,96.1V82c0-2.6-2.2-4.8-4.9-4.7C2.1,77.3,0,79.4,0,82
		v25.7c0,2.6,2.1,4.8,4.8,4.8c0,0,0,0,0,0h25.7c2.6,0,4.8-2.2,4.7-4.9c0-2.6-2.1-4.7-4.7-4.7H16.4l25.5-25.5
		C43.8,75.5,43.8,72.5,41.9,70.6C41.9,70.6,41.9,70.6,41.9,70.6z"/>
	<path id="Path_4151" class="st0" d="M107.7,0H82c-2.6,0-4.8,2.1-4.9,4.7s2.1,4.8,4.7,4.9c0,0,0.1,0,0.1,0h14.1L70.6,35.1
		c-1.9,1.9-1.9,4.9,0,6.8c1.9,1.9,4.9,1.9,6.7,0l25.5-25.5v14.1c0,2.6,2.2,4.8,4.9,4.7c2.6,0,4.7-2.1,4.7-4.7V4.8
		C112.5,2.1,110.3,0,107.7,0C107.7,0,107.7,0,107.7,0"/>
</g>
</svg>
